<?xml version="1.0" encoding="utf-8" standalone="no"?>
<!DOCTYPE svg PUBLIC "-//W3C//DTD SVG 1.1//EN"
  "http://www.w3.org/Graphics/SVG/1.1/DTD/svg11.dtd">
<svg xmlns:xlink="http://www.w3.org/1999/xlink" width="684pt" height="324.864pt" viewBox="0 0 684 324.864" xmlns="http://www.w3.org/2000/svg" version="1.1">
 <metadata>
  <rdf:RDF xmlns:dc="http://purl.org/dc/elements/1.1/" xmlns:cc="http://creativecommons.org/ns#" xmlns:rdf="http://www.w3.org/1999/02/22-rdf-syntax-ns#">
   <cc:Work>
    <dc:type rdf:resource="http://purl.org/dc/dcmitype/StillImage"/>
    <dc:date>2026-08-15T19:38:45.444320</dc:date>
    <dc:format>image/svg+xml</dc:format>
    <dc:creator>
     <cc:Agent>
      <dc:title>Matplotlib v3.9.4, https://matplotlib.org/</dc:title>
     </cc:Agent>
    </dc:creator>
   </cc:Work>
  </rdf:RDF>
 </metadata>
 <defs>
  <style type="text/css">*{stroke-linejoin: round; stroke-linecap: butt}</style>
 </defs>
 <g id="figure_1">
  <g id="patch_1">
   <path d="M 0 324.864 
L 684 324.864 
L 684 0 
L 0 0 
z
" style="fill: #ffffff"/>
  </g>
  <g id="axes_1">
   <g id="text_1">
    <!-- How the mixture shifts -->
    <g style="fill: #14181d" transform="translate(20.592 27.1191) scale(0.16 -0.16)">
     <defs>
      <path id="DejaVuSans-Bold-48" d="M 588 4666 
L 1791 4666 
L 1791 2888 
L 3566 2888 
L 3566 4666 
L 4769 4666 
L 4769 0 
L 3566 0 
L 3566 1978 
L 1791 1978 
L 1791 0 
L 588 0 
L 588 4666 
z
" transform="scale(0.015625)"/>
      <path id="DejaVuSans-Bold-6f" d="M 2203 2784 
Q 1831 2784 1636 2517 
Q 1441 2250 1441 1747 
Q 1441 1244 1636 976 
Q 1831 709 2203 709 
Q 2569 709 2762 976 
Q 2956 1244 2956 1747 
Q 2956 2250 2762 2517 
Q 2569 2784 2203 2784 
z
M 2203 3584 
Q 3106 3584 3614 3096 
Q 4122 2609 4122 1747 
Q 4122 884 3614 396 
Q 3106 -91 2203 -91 
Q 1297 -91 786 396 
Q 275 884 275 1747 
Q 275 2609 786 3096 
Q 1297 3584 2203 3584 
z
" transform="scale(0.015625)"/>
      <path id="DejaVuSans-Bold-77" d="M 225 3500 
L 1313 3500 
L 1900 1088 
L 2491 3500 
L 3425 3500 
L 4013 1113 
L 4603 3500 
L 5691 3500 
L 4769 0 
L 3547 0 
L 2956 2406 
L 2369 0 
L 1147 0 
L 225 3500 
z
" transform="scale(0.015625)"/>
      <path id="DejaVuSans-Bold-20" transform="scale(0.015625)"/>
      <path id="DejaVuSans-Bold-74" d="M 1759 4494 
L 1759 3500 
L 2913 3500 
L 2913 2700 
L 1759 2700 
L 1759 1216 
Q 1759 972 1856 886 
Q 1953 800 2241 800 
L 2816 800 
L 2816 0 
L 1856 0 
Q 1194 0 917 276 
Q 641 553 641 1216 
L 641 2700 
L 84 2700 
L 84 3500 
L 641 3500 
L 641 4494 
L 1759 4494 
z
" transform="scale(0.015625)"/>
      <path id="DejaVuSans-Bold-68" d="M 4056 2131 
L 4056 0 
L 2931 0 
L 2931 347 
L 2931 1625 
Q 2931 2084 2911 2256 
Q 2891 2428 2841 2509 
Q 2775 2619 2662 2680 
Q 2550 2741 2406 2741 
Q 2056 2741 1856 2470 
Q 1656 2200 1656 1722 
L 1656 0 
L 538 0 
L 538 4863 
L 1656 4863 
L 1656 2988 
Q 1909 3294 2193 3439 
Q 2478 3584 2822 3584 
Q 3428 3584 3742 3212 
Q 4056 2841 4056 2131 
z
" transform="scale(0.015625)"/>
      <path id="DejaVuSans-Bold-65" d="M 4031 1759 
L 4031 1441 
L 1416 1441 
Q 1456 1047 1700 850 
Q 1944 653 2381 653 
Q 2734 653 3104 758 
Q 3475 863 3866 1075 
L 3866 213 
Q 3469 63 3072 -14 
Q 2675 -91 2278 -91 
Q 1328 -91 801 392 
Q 275 875 275 1747 
Q 275 2603 792 3093 
Q 1309 3584 2216 3584 
Q 3041 3584 3536 3087 
Q 4031 2591 4031 1759 
z
M 2881 2131 
Q 2881 2450 2695 2645 
Q 2509 2841 2209 2841 
Q 1884 2841 1681 2658 
Q 1478 2475 1428 2131 
L 2881 2131 
z
" transform="scale(0.015625)"/>
      <path id="DejaVuSans-Bold-6d" d="M 3781 2919 
Q 3994 3244 4286 3414 
Q 4578 3584 4928 3584 
Q 5531 3584 5847 3212 
Q 6163 2841 6163 2131 
L 6163 0 
L 5038 0 
L 5038 1825 
Q 5041 1866 5042 1909 
Q 5044 1953 5044 2034 
Q 5044 2406 4934 2573 
Q 4825 2741 4581 2741 
Q 4263 2741 4089 2478 
Q 3916 2216 3909 1719 
L 3909 0 
L 2784 0 
L 2784 1825 
Q 2784 2406 2684 2573 
Q 2584 2741 2328 2741 
Q 2006 2741 1831 2477 
Q 1656 2213 1656 1722 
L 1656 0 
L 531 0 
L 531 3500 
L 1656 3500 
L 1656 2988 
Q 1863 3284 2130 3434 
Q 2397 3584 2719 3584 
Q 3081 3584 3359 3409 
Q 3638 3234 3781 2919 
z
" transform="scale(0.015625)"/>
      <path id="DejaVuSans-Bold-69" d="M 538 3500 
L 1656 3500 
L 1656 0 
L 538 0 
L 538 3500 
z
M 538 4863 
L 1656 4863 
L 1656 3950 
L 538 3950 
L 538 4863 
z
" transform="scale(0.015625)"/>
      <path id="DejaVuSans-Bold-78" d="M 1422 1791 
L 159 3500 
L 1344 3500 
L 2059 2463 
L 2784 3500 
L 3969 3500 
L 2706 1797 
L 4031 0 
L 2847 0 
L 2059 1106 
L 1281 0 
L 97 0 
L 1422 1791 
z
" transform="scale(0.015625)"/>
      <path id="DejaVuSans-Bold-75" d="M 500 1363 
L 500 3500 
L 1625 3500 
L 1625 3150 
Q 1625 2866 1622 2436 
Q 1619 2006 1619 1863 
Q 1619 1441 1641 1255 
Q 1663 1069 1716 984 
Q 1784 875 1895 815 
Q 2006 756 2150 756 
Q 2500 756 2700 1025 
Q 2900 1294 2900 1772 
L 2900 3500 
L 4019 3500 
L 4019 0 
L 2900 0 
L 2900 506 
Q 2647 200 2364 54 
Q 2081 -91 1741 -91 
Q 1134 -91 817 281 
Q 500 653 500 1363 
z
" transform="scale(0.015625)"/>
      <path id="DejaVuSans-Bold-72" d="M 3138 2547 
Q 2991 2616 2845 2648 
Q 2700 2681 2553 2681 
Q 2122 2681 1889 2404 
Q 1656 2128 1656 1613 
L 1656 0 
L 538 0 
L 538 3500 
L 1656 3500 
L 1656 2925 
Q 1872 3269 2151 3426 
Q 2431 3584 2822 3584 
Q 2878 3584 2943 3579 
Q 3009 3575 3134 3559 
L 3138 2547 
z
" transform="scale(0.015625)"/>
      <path id="DejaVuSans-Bold-73" d="M 3272 3391 
L 3272 2541 
Q 2913 2691 2578 2766 
Q 2244 2841 1947 2841 
Q 1628 2841 1473 2761 
Q 1319 2681 1319 2516 
Q 1319 2381 1436 2309 
Q 1553 2238 1856 2203 
L 2053 2175 
Q 2913 2066 3209 1816 
Q 3506 1566 3506 1031 
Q 3506 472 3093 190 
Q 2681 -91 1863 -91 
Q 1516 -91 1145 -36 
Q 775 19 384 128 
L 384 978 
Q 719 816 1070 734 
Q 1422 653 1784 653 
Q 2113 653 2278 743 
Q 2444 834 2444 1013 
Q 2444 1163 2330 1236 
Q 2216 1309 1875 1350 
L 1678 1375 
Q 931 1469 631 1722 
Q 331 1975 331 2491 
Q 331 3047 712 3315 
Q 1094 3584 1881 3584 
Q 2191 3584 2531 3537 
Q 2872 3491 3272 3391 
z
" transform="scale(0.015625)"/>
      <path id="DejaVuSans-Bold-66" d="M 2841 4863 
L 2841 4128 
L 2222 4128 
Q 1984 4128 1890 4042 
Q 1797 3956 1797 3744 
L 1797 3500 
L 2753 3500 
L 2753 2700 
L 1797 2700 
L 1797 0 
L 678 0 
L 678 2700 
L 122 2700 
L 122 3500 
L 678 3500 
L 678 3744 
Q 678 4316 997 4589 
Q 1316 4863 1984 4863 
L 2841 4863 
z
" transform="scale(0.015625)"/>
     </defs>
     <use xlink:href="#DejaVuSans-Bold-48"/>
     <use xlink:href="#DejaVuSans-Bold-6f" x="83.691406"/>
     <use xlink:href="#DejaVuSans-Bold-77" x="152.392578"/>
     <use xlink:href="#DejaVuSans-Bold-20" x="244.775391"/>
     <use xlink:href="#DejaVuSans-Bold-74" x="279.589844"/>
     <use xlink:href="#DejaVuSans-Bold-68" x="327.392578"/>
     <use xlink:href="#DejaVuSans-Bold-65" x="398.583984"/>
     <use xlink:href="#DejaVuSans-Bold-20" x="466.40625"/>
     <use xlink:href="#DejaVuSans-Bold-6d" x="501.220703"/>
     <use xlink:href="#DejaVuSans-Bold-69" x="605.419922"/>
     <use xlink:href="#DejaVuSans-Bold-78" x="639.697266"/>
     <use xlink:href="#DejaVuSans-Bold-74" x="704.199219"/>
     <use xlink:href="#DejaVuSans-Bold-75" x="752.001953"/>
     <use xlink:href="#DejaVuSans-Bold-72" x="823.193359"/>
     <use xlink:href="#DejaVuSans-Bold-65" x="872.509766"/>
     <use xlink:href="#DejaVuSans-Bold-20" x="940.332031"/>
     <use xlink:href="#DejaVuSans-Bold-73" x="975.146484"/>
     <use xlink:href="#DejaVuSans-Bold-68" x="1034.667969"/>
     <use xlink:href="#DejaVuSans-Bold-69" x="1105.859375"/>
     <use xlink:href="#DejaVuSans-Bold-66" x="1140.136719"/>
     <use xlink:href="#DejaVuSans-Bold-74" x="1183.642578"/>
     <use xlink:href="#DejaVuSans-Bold-73" x="1231.445312"/>
    </g>
   </g>
   <g id="text_2">
    <!-- phases reweight the sources; only the ordering is claimed, not any share -->
    <g style="fill: #5c6773" transform="translate(20.592 34.047205) scale(0.1 -0.1)">
     <defs>
      <path id="DejaVuSans-Oblique-70" d="M 3175 2156 
Q 3175 2616 2975 2859 
Q 2775 3103 2400 3103 
Q 2144 3103 1911 2972 
Q 1678 2841 1497 2591 
Q 1319 2344 1212 1994 
Q 1106 1644 1106 1300 
Q 1106 863 1306 627 
Q 1506 391 1875 391 
Q 2147 391 2380 519 
Q 2613 647 2778 891 
Q 2956 1147 3065 1494 
Q 3175 1841 3175 2156 
z
M 1394 2969 
Q 1625 3272 1939 3428 
Q 2253 3584 2638 3584 
Q 3175 3584 3472 3232 
Q 3769 2881 3769 2247 
Q 3769 1728 3584 1258 
Q 3400 788 3053 416 
Q 2822 169 2531 39 
Q 2241 -91 1919 -91 
Q 1547 -91 1294 64 
Q 1041 219 916 525 
L 556 -1331 
L -19 -1331 
L 922 3500 
L 1497 3500 
L 1394 2969 
z
" transform="scale(0.015625)"/>
      <path id="DejaVuSans-Oblique-68" d="M 3566 2113 
L 3156 0 
L 2578 0 
L 2988 2091 
Q 3016 2238 3031 2350 
Q 3047 2463 3047 2528 
Q 3047 2791 2881 2937 
Q 2716 3084 2419 3084 
Q 1956 3084 1617 2771 
Q 1278 2459 1178 1941 
L 800 0 
L 225 0 
L 1172 4863 
L 1747 4863 
L 1375 2950 
Q 1594 3244 1934 3414 
Q 2275 3584 2650 3584 
Q 3113 3584 3367 3334 
Q 3622 3084 3622 2631 
Q 3622 2519 3608 2391 
Q 3594 2263 3566 2113 
z
" transform="scale(0.015625)"/>
      <path id="DejaVuSans-Oblique-61" d="M 3438 1997 
L 3047 0 
L 2472 0 
L 2578 531 
Q 2325 219 2001 64 
Q 1678 -91 1281 -91 
Q 834 -91 548 182 
Q 263 456 263 884 
Q 263 1497 752 1853 
Q 1241 2209 2100 2209 
L 2900 2209 
L 2931 2363 
Q 2938 2388 2941 2417 
Q 2944 2447 2944 2509 
Q 2944 2788 2717 2942 
Q 2491 3097 2081 3097 
Q 1800 3097 1504 3025 
Q 1209 2953 897 2809 
L 997 3341 
Q 1322 3463 1633 3523 
Q 1944 3584 2234 3584 
Q 2853 3584 3176 3315 
Q 3500 3047 3500 2534 
Q 3500 2431 3484 2292 
Q 3469 2153 3438 1997 
z
M 2816 1759 
L 2241 1759 
Q 1534 1759 1195 1570 
Q 856 1381 856 984 
Q 856 709 1029 553 
Q 1203 397 1509 397 
Q 1978 397 2328 733 
Q 2678 1069 2791 1631 
L 2816 1759 
z
" transform="scale(0.015625)"/>
      <path id="DejaVuSans-Oblique-73" d="M 3200 3397 
L 3091 2853 
Q 2863 2978 2609 3040 
Q 2356 3103 2088 3103 
Q 1634 3103 1373 2948 
Q 1113 2794 1113 2528 
Q 1113 2219 1719 2053 
Q 1766 2041 1788 2034 
L 1972 1978 
Q 2547 1819 2739 1644 
Q 2931 1469 2931 1166 
Q 2931 609 2489 259 
Q 2047 -91 1331 -91 
Q 1053 -91 747 -37 
Q 441 16 72 128 
L 184 722 
Q 500 559 806 475 
Q 1113 391 1394 391 
Q 1816 391 2080 572 
Q 2344 753 2344 1031 
Q 2344 1331 1650 1516 
L 1591 1531 
L 1394 1581 
Q 956 1697 753 1886 
Q 550 2075 550 2369 
Q 550 2928 970 3256 
Q 1391 3584 2113 3584 
Q 2397 3584 2667 3537 
Q 2938 3491 3200 3397 
z
" transform="scale(0.015625)"/>
      <path id="DejaVuSans-Oblique-65" d="M 3078 2063 
Q 3088 2113 3092 2166 
Q 3097 2219 3097 2272 
Q 3097 2653 2873 2875 
Q 2650 3097 2266 3097 
Q 1838 3097 1509 2826 
Q 1181 2556 1013 2059 
L 3078 2063 
z
M 3578 1613 
L 903 1613 
Q 884 1494 878 1425 
Q 872 1356 872 1306 
Q 872 872 1139 634 
Q 1406 397 1894 397 
Q 2269 397 2603 481 
Q 2938 566 3225 728 
L 3116 159 
Q 2806 34 2476 -28 
Q 2147 -91 1806 -91 
Q 1078 -91 686 257 
Q 294 606 294 1247 
Q 294 1794 489 2264 
Q 684 2734 1063 3103 
Q 1306 3334 1642 3459 
Q 1978 3584 2356 3584 
Q 2950 3584 3301 3228 
Q 3653 2872 3653 2272 
Q 3653 2128 3634 1964 
Q 3616 1800 3578 1613 
z
" transform="scale(0.015625)"/>
      <path id="DejaVuSans-Oblique-20" transform="scale(0.015625)"/>
      <path id="DejaVuSans-Oblique-72" d="M 2853 2969 
Q 2766 3016 2653 3041 
Q 2541 3066 2413 3066 
Q 1953 3066 1609 2717 
Q 1266 2369 1153 1784 
L 800 0 
L 225 0 
L 909 3500 
L 1484 3500 
L 1375 2956 
Q 1603 3259 1920 3421 
Q 2238 3584 2597 3584 
Q 2691 3584 2781 3573 
Q 2872 3563 2963 3538 
L 2853 2969 
z
" transform="scale(0.015625)"/>
      <path id="DejaVuSans-Oblique-77" d="M 544 3500 
L 1113 3500 
L 1259 684 
L 2566 3500 
L 3231 3500 
L 3425 684 
L 4666 3500 
L 5241 3500 
L 3641 0 
L 2969 0 
L 2797 2900 
L 1459 0 
L 781 0 
L 544 3500 
z
" transform="scale(0.015625)"/>
      <path id="DejaVuSans-Oblique-69" d="M 1172 4863 
L 1747 4863 
L 1606 4134 
L 1031 4134 
L 1172 4863 
z
M 909 3500 
L 1484 3500 
L 800 0 
L 225 0 
L 909 3500 
z
" transform="scale(0.015625)"/>
      <path id="DejaVuSans-Oblique-67" d="M 3816 3500 
L 3219 434 
Q 3047 -456 2561 -893 
Q 2075 -1331 1253 -1331 
Q 950 -1331 690 -1286 
Q 431 -1241 206 -1147 
L 313 -588 
Q 525 -725 762 -790 
Q 1000 -856 1269 -856 
Q 1816 -856 2167 -557 
Q 2519 -259 2631 300 
L 2681 563 
Q 2441 288 2122 144 
Q 1803 0 1434 0 
Q 903 0 598 351 
Q 294 703 294 1319 
Q 294 1803 478 2267 
Q 663 2731 997 3091 
Q 1219 3328 1514 3456 
Q 1809 3584 2131 3584 
Q 2484 3584 2746 3420 
Q 3009 3256 3138 2956 
L 3238 3500 
L 3816 3500 
z
M 2950 2216 
Q 2950 2641 2750 2872 
Q 2550 3103 2181 3103 
Q 1953 3103 1747 3012 
Q 1541 2922 1394 2759 
Q 1156 2491 1023 2127 
Q 891 1763 891 1375 
Q 891 944 1092 712 
Q 1294 481 1672 481 
Q 2219 481 2584 976 
Q 2950 1472 2950 2216 
z
" transform="scale(0.015625)"/>
      <path id="DejaVuSans-Oblique-74" d="M 2706 3500 
L 2619 3053 
L 1472 3053 
L 1100 1153 
Q 1081 1047 1072 975 
Q 1063 903 1063 863 
Q 1063 663 1183 572 
Q 1303 481 1569 481 
L 2150 481 
L 2053 0 
L 1503 0 
Q 991 0 739 200 
Q 488 400 488 806 
Q 488 878 497 964 
Q 506 1050 525 1153 
L 897 3053 
L 409 3053 
L 500 3500 
L 978 3500 
L 1172 4494 
L 1747 4494 
L 1556 3500 
L 2706 3500 
z
" transform="scale(0.015625)"/>
      <path id="DejaVuSans-Oblique-6f" d="M 1625 -91 
Q 1009 -91 651 289 
Q 294 669 294 1325 
Q 294 1706 417 2101 
Q 541 2497 738 2766 
Q 1047 3184 1428 3384 
Q 1809 3584 2291 3584 
Q 2888 3584 3255 3212 
Q 3622 2841 3622 2241 
Q 3622 1825 3500 1412 
Q 3378 1000 3181 728 
Q 2875 309 2494 109 
Q 2113 -91 1625 -91 
z
M 891 1344 
Q 891 869 1089 633 
Q 1288 397 1691 397 
Q 2269 397 2648 901 
Q 3028 1406 3028 2181 
Q 3028 2634 2825 2865 
Q 2622 3097 2228 3097 
Q 1903 3097 1650 2945 
Q 1397 2794 1197 2484 
Q 1050 2253 970 1956 
Q 891 1659 891 1344 
z
" transform="scale(0.015625)"/>
      <path id="DejaVuSans-Oblique-75" d="M 428 1388 
L 838 3500 
L 1416 3500 
L 1006 1409 
Q 975 1256 961 1147 
Q 947 1038 947 966 
Q 947 700 1109 554 
Q 1272 409 1569 409 
Q 2031 409 2368 721 
Q 2706 1034 2809 1563 
L 3194 3500 
L 3769 3500 
L 3091 0 
L 2516 0 
L 2631 550 
Q 2388 244 2052 76 
Q 1716 -91 1338 -91 
Q 878 -91 622 161 
Q 366 413 366 863 
Q 366 956 381 1097 
Q 397 1238 428 1388 
z
" transform="scale(0.015625)"/>
      <path id="DejaVuSans-Oblique-63" d="M 3431 3366 
L 3316 2797 
Q 3109 2947 2876 3022 
Q 2644 3097 2394 3097 
Q 2119 3097 1870 3000 
Q 1622 2903 1453 2725 
Q 1184 2453 1037 2087 
Q 891 1722 891 1331 
Q 891 859 1127 628 
Q 1363 397 1844 397 
Q 2081 397 2348 469 
Q 2616 541 2906 684 
L 2797 116 
Q 2547 13 2283 -39 
Q 2019 -91 1741 -91 
Q 1044 -91 669 257 
Q 294 606 294 1253 
Q 294 1797 489 2255 
Q 684 2713 1069 3078 
Q 1331 3328 1684 3456 
Q 2038 3584 2456 3584 
Q 2700 3584 2940 3529 
Q 3181 3475 3431 3366 
z
" transform="scale(0.015625)"/>
      <path id="DejaVuSans-Oblique-3b" d="M 563 794 
L 1222 794 
L 1113 256 
L 409 -744 
L 6 -744 
L 453 256 
L 563 794 
z
M 1050 3309 
L 1709 3309 
L 1556 2516 
L 897 2516 
L 1050 3309 
z
" transform="scale(0.015625)"/>
      <path id="DejaVuSans-Oblique-6e" d="M 3566 2113 
L 3156 0 
L 2578 0 
L 2988 2091 
Q 3016 2238 3031 2350 
Q 3047 2463 3047 2528 
Q 3047 2791 2881 2937 
Q 2716 3084 2419 3084 
Q 1956 3084 1622 2776 
Q 1288 2469 1184 1941 
L 800 0 
L 225 0 
L 903 3500 
L 1478 3500 
L 1363 2950 
Q 1603 3253 1940 3418 
Q 2278 3584 2650 3584 
Q 3113 3584 3367 3334 
Q 3622 3084 3622 2631 
Q 3622 2519 3608 2391 
Q 3594 2263 3566 2113 
z
" transform="scale(0.015625)"/>
      <path id="DejaVuSans-Oblique-6c" d="M 1172 4863 
L 1747 4863 
L 800 0 
L 225 0 
L 1172 4863 
z
" transform="scale(0.015625)"/>
      <path id="DejaVuSans-Oblique-79" d="M 1588 -325 
Q 1188 -997 936 -1164 
Q 684 -1331 294 -1331 
L -159 -1331 
L -63 -850 
L 269 -850 
Q 509 -850 678 -719 
Q 847 -588 1056 -206 
L 1234 128 
L 459 3500 
L 1069 3500 
L 1650 819 
L 3256 3500 
L 3859 3500 
L 1588 -325 
z
" transform="scale(0.015625)"/>
      <path id="DejaVuSans-Oblique-64" d="M 2675 525 
Q 2444 222 2128 65 
Q 1813 -91 1428 -91 
Q 903 -91 598 267 
Q 294 625 294 1247 
Q 294 1766 478 2236 
Q 663 2706 1013 3078 
Q 1244 3325 1534 3454 
Q 1825 3584 2144 3584 
Q 2481 3584 2739 3421 
Q 2997 3259 3138 2956 
L 3513 4863 
L 4091 4863 
L 3144 0 
L 2566 0 
L 2675 525 
z
M 891 1350 
Q 891 897 1095 644 
Q 1300 391 1663 391 
Q 1931 391 2161 520 
Q 2391 650 2566 903 
Q 2750 1166 2856 1509 
Q 2963 1853 2963 2188 
Q 2963 2622 2758 2865 
Q 2553 3109 2194 3109 
Q 1922 3109 1687 2981 
Q 1453 2853 1288 2613 
Q 1106 2353 998 2009 
Q 891 1666 891 1350 
z
" transform="scale(0.015625)"/>
      <path id="DejaVuSans-Oblique-6d" d="M 5747 2113 
L 5338 0 
L 4763 0 
L 5166 2094 
Q 5191 2228 5203 2325 
Q 5216 2422 5216 2491 
Q 5216 2772 5059 2928 
Q 4903 3084 4622 3084 
Q 4203 3084 3875 2770 
Q 3547 2456 3450 1953 
L 3066 0 
L 2491 0 
L 2900 2094 
Q 2925 2209 2937 2307 
Q 2950 2406 2950 2484 
Q 2950 2769 2794 2926 
Q 2638 3084 2363 3084 
Q 1938 3084 1609 2770 
Q 1281 2456 1184 1953 
L 800 0 
L 225 0 
L 909 3500 
L 1484 3500 
L 1375 2956 
Q 1609 3263 1923 3423 
Q 2238 3584 2597 3584 
Q 2978 3584 3223 3384 
Q 3469 3184 3519 2828 
Q 3781 3197 4126 3390 
Q 4472 3584 4856 3584 
Q 5306 3584 5551 3325 
Q 5797 3066 5797 2591 
Q 5797 2488 5784 2364 
Q 5772 2241 5747 2113 
z
" transform="scale(0.015625)"/>
      <path id="DejaVuSans-Oblique-2c" d="M 575 794 
L 1234 794 
L 1131 256 
L 422 -744 
L 19 -744 
L 469 256 
L 575 794 
z
" transform="scale(0.015625)"/>
     </defs>
     <use xlink:href="#DejaVuSans-Oblique-70"/>
     <use xlink:href="#DejaVuSans-Oblique-68" x="63.476562"/>
     <use xlink:href="#DejaVuSans-Oblique-61" x="126.855469"/>
     <use xlink:href="#DejaVuSans-Oblique-73" x="188.134766"/>
     <use xlink:href="#DejaVuSans-Oblique-65" x="240.234375"/>
     <use xlink:href="#DejaVuSans-Oblique-73" x="301.757812"/>
     <use xlink:href="#DejaVuSans-Oblique-20" x="353.857422"/>
     <use xlink:href="#DejaVuSans-Oblique-72" x="385.644531"/>
     <use xlink:href="#DejaVuSans-Oblique-65" x="426.757812"/>
     <use xlink:href="#DejaVuSans-Oblique-77" x="488.28125"/>
     <use xlink:href="#DejaVuSans-Oblique-65" x="570.068359"/>
     <use xlink:href="#DejaVuSans-Oblique-69" x="631.591797"/>
     <use xlink:href="#DejaVuSans-Oblique-67" x="659.375"/>
     <use xlink:href="#DejaVuSans-Oblique-68" x="722.851562"/>
     <use xlink:href="#DejaVuSans-Oblique-74" x="786.230469"/>
     <use xlink:href="#DejaVuSans-Oblique-20" x="825.439453"/>
     <use xlink:href="#DejaVuSans-Oblique-74" x="857.226562"/>
     <use xlink:href="#DejaVuSans-Oblique-68" x="896.435547"/>
     <use xlink:href="#DejaVuSans-Oblique-65" x="959.814453"/>
     <use xlink:href="#DejaVuSans-Oblique-20" x="1021.337891"/>
     <use xlink:href="#DejaVuSans-Oblique-73" x="1053.125"/>
     <use xlink:href="#DejaVuSans-Oblique-6f" x="1105.224609"/>
     <use xlink:href="#DejaVuSans-Oblique-75" x="1166.40625"/>
     <use xlink:href="#DejaVuSans-Oblique-72" x="1229.785156"/>
     <use xlink:href="#DejaVuSans-Oblique-63" x="1270.898438"/>
     <use xlink:href="#DejaVuSans-Oblique-65" x="1325.878906"/>
     <use xlink:href="#DejaVuSans-Oblique-73" x="1387.402344"/>
     <use xlink:href="#DejaVuSans-Oblique-3b" x="1439.501953"/>
     <use xlink:href="#DejaVuSans-Oblique-20" x="1473.193359"/>
     <use xlink:href="#DejaVuSans-Oblique-6f" x="1504.980469"/>
     <use xlink:href="#DejaVuSans-Oblique-6e" x="1566.162109"/>
     <use xlink:href="#DejaVuSans-Oblique-6c" x="1629.541016"/>
     <use xlink:href="#DejaVuSans-Oblique-79" x="1657.324219"/>
     <use xlink:href="#DejaVuSans-Oblique-20" x="1716.503906"/>
     <use xlink:href="#DejaVuSans-Oblique-74" x="1748.291016"/>
     <use xlink:href="#DejaVuSans-Oblique-68" x="1787.5"/>
     <use xlink:href="#DejaVuSans-Oblique-65" x="1850.878906"/>
     <use xlink:href="#DejaVuSans-Oblique-20" x="1912.402344"/>
     <use xlink:href="#DejaVuSans-Oblique-6f" x="1944.189453"/>
     <use xlink:href="#DejaVuSans-Oblique-72" x="2005.371094"/>
     <use xlink:href="#DejaVuSans-Oblique-64" x="2046.484375"/>
     <use xlink:href="#DejaVuSans-Oblique-65" x="2109.960938"/>
     <use xlink:href="#DejaVuSans-Oblique-72" x="2171.484375"/>
     <use xlink:href="#DejaVuSans-Oblique-69" x="2212.597656"/>
     <use xlink:href="#DejaVuSans-Oblique-6e" x="2240.380859"/>
     <use xlink:href="#DejaVuSans-Oblique-67" x="2303.759766"/>
     <use xlink:href="#DejaVuSans-Oblique-20" x="2367.236328"/>
     <use xlink:href="#DejaVuSans-Oblique-69" x="2399.023438"/>
     <use xlink:href="#DejaVuSans-Oblique-73" x="2426.806641"/>
     <use xlink:href="#DejaVuSans-Oblique-20" x="2478.90625"/>
     <use xlink:href="#DejaVuSans-Oblique-63" x="2510.693359"/>
     <use xlink:href="#DejaVuSans-Oblique-6c" x="2565.673828"/>
     <use xlink:href="#DejaVuSans-Oblique-61" x="2593.457031"/>
     <use xlink:href="#DejaVuSans-Oblique-69" x="2654.736328"/>
     <use xlink:href="#DejaVuSans-Oblique-6d" x="2682.519531"/>
     <use xlink:href="#DejaVuSans-Oblique-65" x="2779.931641"/>
     <use xlink:href="#DejaVuSans-Oblique-64" x="2841.455078"/>
     <use xlink:href="#DejaVuSans-Oblique-2c" x="2904.931641"/>
     <use xlink:href="#DejaVuSans-Oblique-20" x="2936.71875"/>
     <use xlink:href="#DejaVuSans-Oblique-6e" x="2968.505859"/>
     <use xlink:href="#DejaVuSans-Oblique-6f" x="3031.884766"/>
     <use xlink:href="#DejaVuSans-Oblique-74" x="3093.066406"/>
     <use xlink:href="#DejaVuSans-Oblique-20" x="3132.275391"/>
     <use xlink:href="#DejaVuSans-Oblique-61" x="3164.0625"/>
     <use xlink:href="#DejaVuSans-Oblique-6e" x="3225.341797"/>
     <use xlink:href="#DejaVuSans-Oblique-79" x="3288.720703"/>
     <use xlink:href="#DejaVuSans-Oblique-20" x="3347.900391"/>
     <use xlink:href="#DejaVuSans-Oblique-73" x="3379.6875"/>
     <use xlink:href="#DejaVuSans-Oblique-68" x="3431.787109"/>
     <use xlink:href="#DejaVuSans-Oblique-61" x="3495.166016"/>
     <use xlink:href="#DejaVuSans-Oblique-72" x="3556.445312"/>
     <use xlink:href="#DejaVuSans-Oblique-65" x="3597.558594"/>
    </g>
   </g>
   <g id="patch_2">
    <path d="M 181.296 125.17632 
L 266.3352 125.17632 
L 266.3352 83.26368 
L 181.296 83.26368 
z
" clip-path="url(#pce6aa1c605)" style="fill: #6b8e5a; opacity: 0.85; stroke: #b8c0ca; stroke-width: 0.8; stroke-linejoin: miter"/>
   </g>
   <g id="patch_3">
    <path d="M 271.692 125.17632 
L 356.7312 125.17632 
L 356.7312 83.26368 
L 271.692 83.26368 
z
" clip-path="url(#pce6aa1c605)" style="fill: #6b8e5a; opacity: 0.85; stroke: #b8c0ca; stroke-width: 0.8; stroke-linejoin: miter"/>
   </g>
   <g id="patch_4">
    <path d="M 362.088 125.17632 
L 447.1272 125.17632 
L 447.1272 83.26368 
L 362.088 83.26368 
z
" clip-path="url(#pce6aa1c605)" style="fill: #6b8e5a; opacity: 0.5; stroke: #b8c0ca; stroke-width: 0.8; stroke-linejoin: miter"/>
   </g>
   <g id="patch_5">
    <path d="M 452.484 125.17632 
L 537.5232 125.17632 
L 537.5232 83.26368 
L 452.484 83.26368 
z
" clip-path="url(#pce6aa1c605)" style="fill: #6b8e5a; opacity: 0.5; stroke: #b8c0ca; stroke-width: 0.8; stroke-linejoin: miter"/>
   </g>
   <g id="patch_6">
    <path d="M 542.88 125.17632 
L 627.9192 125.17632 
L 627.9192 83.26368 
L 542.88 83.26368 
z
" clip-path="url(#pce6aa1c605)" style="fill: #6b8e5a; opacity: 0.5; stroke: #b8c0ca; stroke-width: 0.8; stroke-linejoin: miter"/>
   </g>
   <g id="patch_7">
    <path d="M 181.296 176.40288 
L 266.3352 176.40288 
L 266.3352 134.49024 
L 181.296 134.49024 
z
" clip-path="url(#pce6aa1c605)" style="fill: #6b8e5a; opacity: 0.25; stroke: #b8c0ca; stroke-width: 0.8; stroke-linejoin: miter"/>
   </g>
   <g id="patch_8">
    <path d="M 271.692 176.40288 
L 356.7312 176.40288 
L 356.7312 134.49024 
L 271.692 134.49024 
z
" clip-path="url(#pce6aa1c605)" style="fill: #6b8e5a; opacity: 0.85; stroke: #b8c0ca; stroke-width: 0.8; stroke-linejoin: miter"/>
   </g>
   <g id="patch_9">
    <path d="M 362.088 176.40288 
L 447.1272 176.40288 
L 447.1272 134.49024 
L 362.088 134.49024 
z
" clip-path="url(#pce6aa1c605)" style="fill: #6b8e5a; opacity: 0.85; stroke: #b8c0ca; stroke-width: 0.8; stroke-linejoin: miter"/>
   </g>
   <g id="patch_10">
    <path d="M 452.484 176.40288 
L 537.5232 176.40288 
L 537.5232 134.49024 
L 452.484 134.49024 
z
" clip-path="url(#pce6aa1c605)" style="fill: #6b8e5a; opacity: 0.5; stroke: #b8c0ca; stroke-width: 0.8; stroke-linejoin: miter"/>
   </g>
   <g id="patch_11">
    <path d="M 542.88 176.40288 
L 627.9192 176.40288 
L 627.9192 134.49024 
L 542.88 134.49024 
z
" clip-path="url(#pce6aa1c605)" style="fill: #6b8e5a; opacity: 0.5; stroke: #b8c0ca; stroke-width: 0.8; stroke-linejoin: miter"/>
   </g>
   <g id="patch_12">
    <path d="M 181.296 227.62944 
L 266.3352 227.62944 
L 266.3352 185.7168 
L 181.296 185.7168 
z
" clip-path="url(#pce6aa1c605)" style="fill: #6b8e5a; opacity: 0.06; stroke: #b8c0ca; stroke-width: 0.8; stroke-linejoin: miter"/>
   </g>
   <g id="patch_13">
    <path d="M 271.692 227.62944 
L 356.7312 227.62944 
L 356.7312 185.7168 
L 271.692 185.7168 
z
" clip-path="url(#pce6aa1c605)" style="fill: #6b8e5a; opacity: 0.06; stroke: #b8c0ca; stroke-width: 0.8; stroke-linejoin: miter"/>
   </g>
   <g id="patch_14">
    <path d="M 362.088 227.62944 
L 447.1272 227.62944 
L 447.1272 185.7168 
L 362.088 185.7168 
z
" clip-path="url(#pce6aa1c605)" style="fill: #6b8e5a; opacity: 0.25; stroke: #b8c0ca; stroke-width: 0.8; stroke-linejoin: miter"/>
   </g>
   <g id="patch_15">
    <path d="M 452.484 227.62944 
L 537.5232 227.62944 
L 537.5232 185.7168 
L 452.484 185.7168 
z
" clip-path="url(#pce6aa1c605)" style="fill: #6b8e5a; opacity: 0.5; stroke: #b8c0ca; stroke-width: 0.8; stroke-linejoin: miter"/>
   </g>
   <g id="patch_16">
    <path d="M 542.88 227.62944 
L 627.9192 227.62944 
L 627.9192 185.7168 
L 542.88 185.7168 
z
" clip-path="url(#pce6aa1c605)" style="fill: #6b8e5a; opacity: 0.85; stroke: #b8c0ca; stroke-width: 0.8; stroke-linejoin: miter"/>
   </g>
   <g id="text_3">
    <!-- primary -->
    <g style="fill: #ffffff" transform="translate(208.943944 106.317125) scale(0.076 -0.076)">
     <defs>
      <path id="DejaVuSans-70" d="M 1159 525 
L 1159 -1331 
L 581 -1331 
L 581 3500 
L 1159 3500 
L 1159 2969 
Q 1341 3281 1617 3432 
Q 1894 3584 2278 3584 
Q 2916 3584 3314 3078 
Q 3713 2572 3713 1747 
Q 3713 922 3314 415 
Q 2916 -91 2278 -91 
Q 1894 -91 1617 61 
Q 1341 213 1159 525 
z
M 3116 1747 
Q 3116 2381 2855 2742 
Q 2594 3103 2138 3103 
Q 1681 3103 1420 2742 
Q 1159 2381 1159 1747 
Q 1159 1113 1420 752 
Q 1681 391 2138 391 
Q 2594 391 2855 752 
Q 3116 1113 3116 1747 
z
" transform="scale(0.015625)"/>
      <path id="DejaVuSans-72" d="M 2631 2963 
Q 2534 3019 2420 3045 
Q 2306 3072 2169 3072 
Q 1681 3072 1420 2755 
Q 1159 2438 1159 1844 
L 1159 0 
L 581 0 
L 581 3500 
L 1159 3500 
L 1159 2956 
Q 1341 3275 1631 3429 
Q 1922 3584 2338 3584 
Q 2397 3584 2469 3576 
Q 2541 3569 2628 3553 
L 2631 2963 
z
" transform="scale(0.015625)"/>
      <path id="DejaVuSans-69" d="M 603 3500 
L 1178 3500 
L 1178 0 
L 603 0 
L 603 3500 
z
M 603 4863 
L 1178 4863 
L 1178 4134 
L 603 4134 
L 603 4863 
z
" transform="scale(0.015625)"/>
      <path id="DejaVuSans-6d" d="M 3328 2828 
Q 3544 3216 3844 3400 
Q 4144 3584 4550 3584 
Q 5097 3584 5394 3201 
Q 5691 2819 5691 2113 
L 5691 0 
L 5113 0 
L 5113 2094 
Q 5113 2597 4934 2840 
Q 4756 3084 4391 3084 
Q 3944 3084 3684 2787 
Q 3425 2491 3425 1978 
L 3425 0 
L 2847 0 
L 2847 2094 
Q 2847 2600 2669 2842 
Q 2491 3084 2119 3084 
Q 1678 3084 1418 2786 
Q 1159 2488 1159 1978 
L 1159 0 
L 581 0 
L 581 3500 
L 1159 3500 
L 1159 2956 
Q 1356 3278 1631 3431 
Q 1906 3584 2284 3584 
Q 2666 3584 2933 3390 
Q 3200 3197 3328 2828 
z
" transform="scale(0.015625)"/>
      <path id="DejaVuSans-61" d="M 2194 1759 
Q 1497 1759 1228 1600 
Q 959 1441 959 1056 
Q 959 750 1161 570 
Q 1363 391 1709 391 
Q 2188 391 2477 730 
Q 2766 1069 2766 1631 
L 2766 1759 
L 2194 1759 
z
M 3341 1997 
L 3341 0 
L 2766 0 
L 2766 531 
Q 2569 213 2275 61 
Q 1981 -91 1556 -91 
Q 1019 -91 701 211 
Q 384 513 384 1019 
Q 384 1609 779 1909 
Q 1175 2209 1959 2209 
L 2766 2209 
L 2766 2266 
Q 2766 2663 2505 2880 
Q 2244 3097 1772 3097 
Q 1472 3097 1187 3025 
Q 903 2953 641 2809 
L 641 3341 
Q 956 3463 1253 3523 
Q 1550 3584 1831 3584 
Q 2591 3584 2966 3190 
Q 3341 2797 3341 1997 
z
" transform="scale(0.015625)"/>
      <path id="DejaVuSans-79" d="M 2059 -325 
Q 1816 -950 1584 -1140 
Q 1353 -1331 966 -1331 
L 506 -1331 
L 506 -850 
L 844 -850 
Q 1081 -850 1212 -737 
Q 1344 -625 1503 -206 
L 1606 56 
L 191 3500 
L 800 3500 
L 1894 763 
L 2988 3500 
L 3597 3500 
L 2059 -325 
z
" transform="scale(0.015625)"/>
     </defs>
     <use xlink:href="#DejaVuSans-70"/>
     <use xlink:href="#DejaVuSans-72" x="63.476562"/>
     <use xlink:href="#DejaVuSans-69" x="104.589844"/>
     <use xlink:href="#DejaVuSans-6d" x="132.373047"/>
     <use xlink:href="#DejaVuSans-61" x="229.785156"/>
     <use xlink:href="#DejaVuSans-72" x="291.064453"/>
     <use xlink:href="#DejaVuSans-79" x="332.177734"/>
    </g>
   </g>
   <g id="text_4">
    <!-- primary -->
    <g style="fill: #ffffff" transform="translate(299.339944 106.317125) scale(0.076 -0.076)">
     <use xlink:href="#DejaVuSans-70"/>
     <use xlink:href="#DejaVuSans-72" x="63.476562"/>
     <use xlink:href="#DejaVuSans-69" x="104.589844"/>
     <use xlink:href="#DejaVuSans-6d" x="132.373047"/>
     <use xlink:href="#DejaVuSans-61" x="229.785156"/>
     <use xlink:href="#DejaVuSans-72" x="291.064453"/>
     <use xlink:href="#DejaVuSans-79" x="332.177734"/>
    </g>
   </g>
   <g id="text_5">
    <!-- contributing -->
    <g style="fill: #14181d" transform="translate(381.490538 106.317125) scale(0.076 -0.076)">
     <defs>
      <path id="DejaVuSans-63" d="M 3122 3366 
L 3122 2828 
Q 2878 2963 2633 3030 
Q 2388 3097 2138 3097 
Q 1578 3097 1268 2742 
Q 959 2388 959 1747 
Q 959 1106 1268 751 
Q 1578 397 2138 397 
Q 2388 397 2633 464 
Q 2878 531 3122 666 
L 3122 134 
Q 2881 22 2623 -34 
Q 2366 -91 2075 -91 
Q 1284 -91 818 406 
Q 353 903 353 1747 
Q 353 2603 823 3093 
Q 1294 3584 2113 3584 
Q 2378 3584 2631 3529 
Q 2884 3475 3122 3366 
z
" transform="scale(0.015625)"/>
      <path id="DejaVuSans-6f" d="M 1959 3097 
Q 1497 3097 1228 2736 
Q 959 2375 959 1747 
Q 959 1119 1226 758 
Q 1494 397 1959 397 
Q 2419 397 2687 759 
Q 2956 1122 2956 1747 
Q 2956 2369 2687 2733 
Q 2419 3097 1959 3097 
z
M 1959 3584 
Q 2709 3584 3137 3096 
Q 3566 2609 3566 1747 
Q 3566 888 3137 398 
Q 2709 -91 1959 -91 
Q 1206 -91 779 398 
Q 353 888 353 1747 
Q 353 2609 779 3096 
Q 1206 3584 1959 3584 
z
" transform="scale(0.015625)"/>
      <path id="DejaVuSans-6e" d="M 3513 2113 
L 3513 0 
L 2938 0 
L 2938 2094 
Q 2938 2591 2744 2837 
Q 2550 3084 2163 3084 
Q 1697 3084 1428 2787 
Q 1159 2491 1159 1978 
L 1159 0 
L 581 0 
L 581 3500 
L 1159 3500 
L 1159 2956 
Q 1366 3272 1645 3428 
Q 1925 3584 2291 3584 
Q 2894 3584 3203 3211 
Q 3513 2838 3513 2113 
z
" transform="scale(0.015625)"/>
      <path id="DejaVuSans-74" d="M 1172 4494 
L 1172 3500 
L 2356 3500 
L 2356 3053 
L 1172 3053 
L 1172 1153 
Q 1172 725 1289 603 
Q 1406 481 1766 481 
L 2356 481 
L 2356 0 
L 1766 0 
Q 1100 0 847 248 
Q 594 497 594 1153 
L 594 3053 
L 172 3053 
L 172 3500 
L 594 3500 
L 594 4494 
L 1172 4494 
z
" transform="scale(0.015625)"/>
      <path id="DejaVuSans-62" d="M 3116 1747 
Q 3116 2381 2855 2742 
Q 2594 3103 2138 3103 
Q 1681 3103 1420 2742 
Q 1159 2381 1159 1747 
Q 1159 1113 1420 752 
Q 1681 391 2138 391 
Q 2594 391 2855 752 
Q 3116 1113 3116 1747 
z
M 1159 2969 
Q 1341 3281 1617 3432 
Q 1894 3584 2278 3584 
Q 2916 3584 3314 3078 
Q 3713 2572 3713 1747 
Q 3713 922 3314 415 
Q 2916 -91 2278 -91 
Q 1894 -91 1617 61 
Q 1341 213 1159 525 
L 1159 0 
L 581 0 
L 581 4863 
L 1159 4863 
L 1159 2969 
z
" transform="scale(0.015625)"/>
      <path id="DejaVuSans-75" d="M 544 1381 
L 544 3500 
L 1119 3500 
L 1119 1403 
Q 1119 906 1312 657 
Q 1506 409 1894 409 
Q 2359 409 2629 706 
Q 2900 1003 2900 1516 
L 2900 3500 
L 3475 3500 
L 3475 0 
L 2900 0 
L 2900 538 
Q 2691 219 2414 64 
Q 2138 -91 1772 -91 
Q 1169 -91 856 284 
Q 544 659 544 1381 
z
M 1991 3584 
L 1991 3584 
z
" transform="scale(0.015625)"/>
      <path id="DejaVuSans-67" d="M 2906 1791 
Q 2906 2416 2648 2759 
Q 2391 3103 1925 3103 
Q 1463 3103 1205 2759 
Q 947 2416 947 1791 
Q 947 1169 1205 825 
Q 1463 481 1925 481 
Q 2391 481 2648 825 
Q 2906 1169 2906 1791 
z
M 3481 434 
Q 3481 -459 3084 -895 
Q 2688 -1331 1869 -1331 
Q 1566 -1331 1297 -1286 
Q 1028 -1241 775 -1147 
L 775 -588 
Q 1028 -725 1275 -790 
Q 1522 -856 1778 -856 
Q 2344 -856 2625 -561 
Q 2906 -266 2906 331 
L 2906 616 
Q 2728 306 2450 153 
Q 2172 0 1784 0 
Q 1141 0 747 490 
Q 353 981 353 1791 
Q 353 2603 747 3093 
Q 1141 3584 1784 3584 
Q 2172 3584 2450 3431 
Q 2728 3278 2906 2969 
L 2906 3500 
L 3481 3500 
L 3481 434 
z
" transform="scale(0.015625)"/>
     </defs>
     <use xlink:href="#DejaVuSans-63"/>
     <use xlink:href="#DejaVuSans-6f" x="54.980469"/>
     <use xlink:href="#DejaVuSans-6e" x="116.162109"/>
     <use xlink:href="#DejaVuSans-74" x="179.541016"/>
     <use xlink:href="#DejaVuSans-72" x="218.75"/>
     <use xlink:href="#DejaVuSans-69" x="259.863281"/>
     <use xlink:href="#DejaVuSans-62" x="287.646484"/>
     <use xlink:href="#DejaVuSans-75" x="351.123047"/>
     <use xlink:href="#DejaVuSans-74" x="414.501953"/>
     <use xlink:href="#DejaVuSans-69" x="453.710938"/>
     <use xlink:href="#DejaVuSans-6e" x="481.494141"/>
     <use xlink:href="#DejaVuSans-67" x="544.873047"/>
    </g>
   </g>
   <g id="text_6">
    <!-- contributing -->
    <g style="fill: #14181d" transform="translate(471.886538 106.317125) scale(0.076 -0.076)">
     <use xlink:href="#DejaVuSans-63"/>
     <use xlink:href="#DejaVuSans-6f" x="54.980469"/>
     <use xlink:href="#DejaVuSans-6e" x="116.162109"/>
     <use xlink:href="#DejaVuSans-74" x="179.541016"/>
     <use xlink:href="#DejaVuSans-72" x="218.75"/>
     <use xlink:href="#DejaVuSans-69" x="259.863281"/>
     <use xlink:href="#DejaVuSans-62" x="287.646484"/>
     <use xlink:href="#DejaVuSans-75" x="351.123047"/>
     <use xlink:href="#DejaVuSans-74" x="414.501953"/>
     <use xlink:href="#DejaVuSans-69" x="453.710938"/>
     <use xlink:href="#DejaVuSans-6e" x="481.494141"/>
     <use xlink:href="#DejaVuSans-67" x="544.873047"/>
    </g>
   </g>
   <g id="text_7">
    <!-- contributing -->
    <g style="fill: #14181d" transform="translate(562.282538 106.317125) scale(0.076 -0.076)">
     <use xlink:href="#DejaVuSans-63"/>
     <use xlink:href="#DejaVuSans-6f" x="54.980469"/>
     <use xlink:href="#DejaVuSans-6e" x="116.162109"/>
     <use xlink:href="#DejaVuSans-74" x="179.541016"/>
     <use xlink:href="#DejaVuSans-72" x="218.75"/>
     <use xlink:href="#DejaVuSans-69" x="259.863281"/>
     <use xlink:href="#DejaVuSans-62" x="287.646484"/>
     <use xlink:href="#DejaVuSans-75" x="351.123047"/>
     <use xlink:href="#DejaVuSans-74" x="414.501953"/>
     <use xlink:href="#DejaVuSans-69" x="453.710938"/>
     <use xlink:href="#DejaVuSans-6e" x="481.494141"/>
     <use xlink:href="#DejaVuSans-67" x="544.873047"/>
    </g>
   </g>
   <g id="text_8">
    <!-- light -->
    <g style="fill: #14181d" transform="translate(215.39385 157.543685) scale(0.076 -0.076)">
     <defs>
      <path id="DejaVuSans-6c" d="M 603 4863 
L 1178 4863 
L 1178 0 
L 603 0 
L 603 4863 
z
" transform="scale(0.015625)"/>
      <path id="DejaVuSans-68" d="M 3513 2113 
L 3513 0 
L 2938 0 
L 2938 2094 
Q 2938 2591 2744 2837 
Q 2550 3084 2163 3084 
Q 1697 3084 1428 2787 
Q 1159 2491 1159 1978 
L 1159 0 
L 581 0 
L 581 4863 
L 1159 4863 
L 1159 2956 
Q 1366 3272 1645 3428 
Q 1925 3584 2291 3584 
Q 2894 3584 3203 3211 
Q 3513 2838 3513 2113 
z
" transform="scale(0.015625)"/>
     </defs>
     <use xlink:href="#DejaVuSans-6c"/>
     <use xlink:href="#DejaVuSans-69" x="27.783203"/>
     <use xlink:href="#DejaVuSans-67" x="55.566406"/>
     <use xlink:href="#DejaVuSans-68" x="119.042969"/>
     <use xlink:href="#DejaVuSans-74" x="182.421875"/>
    </g>
   </g>
   <g id="text_9">
    <!-- primary -->
    <g style="fill: #ffffff" transform="translate(299.339944 157.543685) scale(0.076 -0.076)">
     <use xlink:href="#DejaVuSans-70"/>
     <use xlink:href="#DejaVuSans-72" x="63.476562"/>
     <use xlink:href="#DejaVuSans-69" x="104.589844"/>
     <use xlink:href="#DejaVuSans-6d" x="132.373047"/>
     <use xlink:href="#DejaVuSans-61" x="229.785156"/>
     <use xlink:href="#DejaVuSans-72" x="291.064453"/>
     <use xlink:href="#DejaVuSans-79" x="332.177734"/>
    </g>
   </g>
   <g id="text_10">
    <!-- primary -->
    <g style="fill: #ffffff" transform="translate(389.735944 157.543685) scale(0.076 -0.076)">
     <use xlink:href="#DejaVuSans-70"/>
     <use xlink:href="#DejaVuSans-72" x="63.476562"/>
     <use xlink:href="#DejaVuSans-69" x="104.589844"/>
     <use xlink:href="#DejaVuSans-6d" x="132.373047"/>
     <use xlink:href="#DejaVuSans-61" x="229.785156"/>
     <use xlink:href="#DejaVuSans-72" x="291.064453"/>
     <use xlink:href="#DejaVuSans-79" x="332.177734"/>
    </g>
   </g>
   <g id="text_11">
    <!-- contributing -->
    <g style="fill: #14181d" transform="translate(471.886538 157.543685) scale(0.076 -0.076)">
     <use xlink:href="#DejaVuSans-63"/>
     <use xlink:href="#DejaVuSans-6f" x="54.980469"/>
     <use xlink:href="#DejaVuSans-6e" x="116.162109"/>
     <use xlink:href="#DejaVuSans-74" x="179.541016"/>
     <use xlink:href="#DejaVuSans-72" x="218.75"/>
     <use xlink:href="#DejaVuSans-69" x="259.863281"/>
     <use xlink:href="#DejaVuSans-62" x="287.646484"/>
     <use xlink:href="#DejaVuSans-75" x="351.123047"/>
     <use xlink:href="#DejaVuSans-74" x="414.501953"/>
     <use xlink:href="#DejaVuSans-69" x="453.710938"/>
     <use xlink:href="#DejaVuSans-6e" x="481.494141"/>
     <use xlink:href="#DejaVuSans-67" x="544.873047"/>
    </g>
   </g>
   <g id="text_12">
    <!-- contributing -->
    <g style="fill: #14181d" transform="translate(562.282538 157.543685) scale(0.076 -0.076)">
     <use xlink:href="#DejaVuSans-63"/>
     <use xlink:href="#DejaVuSans-6f" x="54.980469"/>
     <use xlink:href="#DejaVuSans-6e" x="116.162109"/>
     <use xlink:href="#DejaVuSans-74" x="179.541016"/>
     <use xlink:href="#DejaVuSans-72" x="218.75"/>
     <use xlink:href="#DejaVuSans-69" x="259.863281"/>
     <use xlink:href="#DejaVuSans-62" x="287.646484"/>
     <use xlink:href="#DejaVuSans-75" x="351.123047"/>
     <use xlink:href="#DejaVuSans-74" x="414.501953"/>
     <use xlink:href="#DejaVuSans-69" x="453.710938"/>
     <use xlink:href="#DejaVuSans-6e" x="481.494141"/>
     <use xlink:href="#DejaVuSans-67" x="544.873047"/>
    </g>
   </g>
   <g id="text_13">
    <!-- unused -->
    <g style="fill: #14181d" transform="translate(209.860694 208.770245) scale(0.076 -0.076)">
     <defs>
      <path id="DejaVuSans-73" d="M 2834 3397 
L 2834 2853 
Q 2591 2978 2328 3040 
Q 2066 3103 1784 3103 
Q 1356 3103 1142 2972 
Q 928 2841 928 2578 
Q 928 2378 1081 2264 
Q 1234 2150 1697 2047 
L 1894 2003 
Q 2506 1872 2764 1633 
Q 3022 1394 3022 966 
Q 3022 478 2636 193 
Q 2250 -91 1575 -91 
Q 1294 -91 989 -36 
Q 684 19 347 128 
L 347 722 
Q 666 556 975 473 
Q 1284 391 1588 391 
Q 1994 391 2212 530 
Q 2431 669 2431 922 
Q 2431 1156 2273 1281 
Q 2116 1406 1581 1522 
L 1381 1569 
Q 847 1681 609 1914 
Q 372 2147 372 2553 
Q 372 3047 722 3315 
Q 1072 3584 1716 3584 
Q 2034 3584 2315 3537 
Q 2597 3491 2834 3397 
z
" transform="scale(0.015625)"/>
      <path id="DejaVuSans-65" d="M 3597 1894 
L 3597 1613 
L 953 1613 
Q 991 1019 1311 708 
Q 1631 397 2203 397 
Q 2534 397 2845 478 
Q 3156 559 3463 722 
L 3463 178 
Q 3153 47 2828 -22 
Q 2503 -91 2169 -91 
Q 1331 -91 842 396 
Q 353 884 353 1716 
Q 353 2575 817 3079 
Q 1281 3584 2069 3584 
Q 2775 3584 3186 3129 
Q 3597 2675 3597 1894 
z
M 3022 2063 
Q 3016 2534 2758 2815 
Q 2500 3097 2075 3097 
Q 1594 3097 1305 2825 
Q 1016 2553 972 2059 
L 3022 2063 
z
" transform="scale(0.015625)"/>
      <path id="DejaVuSans-64" d="M 2906 2969 
L 2906 4863 
L 3481 4863 
L 3481 0 
L 2906 0 
L 2906 525 
Q 2725 213 2448 61 
Q 2172 -91 1784 -91 
Q 1150 -91 751 415 
Q 353 922 353 1747 
Q 353 2572 751 3078 
Q 1150 3584 1784 3584 
Q 2172 3584 2448 3432 
Q 2725 3281 2906 2969 
z
M 947 1747 
Q 947 1113 1208 752 
Q 1469 391 1925 391 
Q 2381 391 2643 752 
Q 2906 1113 2906 1747 
Q 2906 2381 2643 2742 
Q 2381 3103 1925 3103 
Q 1469 3103 1208 2742 
Q 947 2381 947 1747 
z
" transform="scale(0.015625)"/>
     </defs>
     <use xlink:href="#DejaVuSans-75"/>
     <use xlink:href="#DejaVuSans-6e" x="63.378906"/>
     <use xlink:href="#DejaVuSans-75" x="126.757812"/>
     <use xlink:href="#DejaVuSans-73" x="190.136719"/>
     <use xlink:href="#DejaVuSans-65" x="242.236328"/>
     <use xlink:href="#DejaVuSans-64" x="303.759766"/>
    </g>
   </g>
   <g id="text_14">
    <!-- unused -->
    <g style="fill: #14181d" transform="translate(300.256694 208.770245) scale(0.076 -0.076)">
     <use xlink:href="#DejaVuSans-75"/>
     <use xlink:href="#DejaVuSans-6e" x="63.378906"/>
     <use xlink:href="#DejaVuSans-75" x="126.757812"/>
     <use xlink:href="#DejaVuSans-73" x="190.136719"/>
     <use xlink:href="#DejaVuSans-65" x="242.236328"/>
     <use xlink:href="#DejaVuSans-64" x="303.759766"/>
    </g>
   </g>
   <g id="text_15">
    <!-- light -->
    <g style="fill: #14181d" transform="translate(396.18585 208.770245) scale(0.076 -0.076)">
     <use xlink:href="#DejaVuSans-6c"/>
     <use xlink:href="#DejaVuSans-69" x="27.783203"/>
     <use xlink:href="#DejaVuSans-67" x="55.566406"/>
     <use xlink:href="#DejaVuSans-68" x="119.042969"/>
     <use xlink:href="#DejaVuSans-74" x="182.421875"/>
    </g>
   </g>
   <g id="text_16">
    <!-- contributing -->
    <g style="fill: #14181d" transform="translate(471.886538 208.770245) scale(0.076 -0.076)">
     <use xlink:href="#DejaVuSans-63"/>
     <use xlink:href="#DejaVuSans-6f" x="54.980469"/>
     <use xlink:href="#DejaVuSans-6e" x="116.162109"/>
     <use xlink:href="#DejaVuSans-74" x="179.541016"/>
     <use xlink:href="#DejaVuSans-72" x="218.75"/>
     <use xlink:href="#DejaVuSans-69" x="259.863281"/>
     <use xlink:href="#DejaVuSans-62" x="287.646484"/>
     <use xlink:href="#DejaVuSans-75" x="351.123047"/>
     <use xlink:href="#DejaVuSans-74" x="414.501953"/>
     <use xlink:href="#DejaVuSans-69" x="453.710938"/>
     <use xlink:href="#DejaVuSans-6e" x="481.494141"/>
     <use xlink:href="#DejaVuSans-67" x="544.873047"/>
    </g>
   </g>
   <g id="text_17">
    <!-- primary -->
    <g style="fill: #ffffff" transform="translate(570.527944 208.770245) scale(0.076 -0.076)">
     <use xlink:href="#DejaVuSans-70"/>
     <use xlink:href="#DejaVuSans-72" x="63.476562"/>
     <use xlink:href="#DejaVuSans-69" x="104.589844"/>
     <use xlink:href="#DejaVuSans-6d" x="132.373047"/>
     <use xlink:href="#DejaVuSans-61" x="229.785156"/>
     <use xlink:href="#DejaVuSans-72" x="291.064453"/>
     <use xlink:href="#DejaVuSans-79" x="332.177734"/>
    </g>
   </g>
   <g id="text_18">
    <!-- P0 -->
    <g style="fill: #14181d" transform="translate(220.473688 72.078737) scale(0.1 -0.1)">
     <defs>
      <path id="DejaVuSansMono-50" d="M 1247 4147 
L 1247 2394 
L 1978 2394 
Q 2416 2394 2661 2625 
Q 2906 2856 2906 3272 
Q 2906 3688 2662 3917 
Q 2419 4147 1978 4147 
L 1247 4147 
z
M 616 4666 
L 1978 4666 
Q 2759 4666 3162 4311 
Q 3566 3956 3566 3272 
Q 3566 2581 3164 2228 
Q 2763 1875 1978 1875 
L 1247 1875 
L 1247 0 
L 616 0 
L 616 4666 
z
" transform="scale(0.015625)"/>
      <path id="DejaVuSansMono-30" d="M 1509 2344 
Q 1509 2516 1629 2641 
Q 1750 2766 1919 2766 
Q 2094 2766 2219 2641 
Q 2344 2516 2344 2344 
Q 2344 2169 2220 2047 
Q 2097 1925 1919 1925 
Q 1744 1925 1626 2044 
Q 1509 2163 1509 2344 
z
M 1925 4250 
Q 1484 4250 1267 3775 
Q 1050 3300 1050 2328 
Q 1050 1359 1267 884 
Q 1484 409 1925 409 
Q 2369 409 2586 884 
Q 2803 1359 2803 2328 
Q 2803 3300 2586 3775 
Q 2369 4250 1925 4250 
z
M 1925 4750 
Q 2672 4750 3055 4137 
Q 3438 3525 3438 2328 
Q 3438 1134 3055 521 
Q 2672 -91 1925 -91 
Q 1178 -91 797 521 
Q 416 1134 416 2328 
Q 416 3525 797 4137 
Q 1178 4750 1925 4750 
z
" transform="scale(0.015625)"/>
     </defs>
     <use xlink:href="#DejaVuSansMono-50"/>
     <use xlink:href="#DejaVuSansMono-30" x="60.205078"/>
    </g>
   </g>
   <g id="text_19">
    <!-- P1 -->
    <g style="fill: #14181d" transform="translate(310.869687 72.078737) scale(0.1 -0.1)">
     <defs>
      <path id="DejaVuSansMono-31" d="M 844 531 
L 1825 531 
L 1825 4097 
L 769 3859 
L 769 4434 
L 1819 4666 
L 2450 4666 
L 2450 531 
L 3419 531 
L 3419 0 
L 844 0 
L 844 531 
z
" transform="scale(0.015625)"/>
     </defs>
     <use xlink:href="#DejaVuSansMono-50"/>
     <use xlink:href="#DejaVuSansMono-31" x="60.205078"/>
    </g>
   </g>
   <g id="text_20">
    <!-- P2 -->
    <g style="fill: #14181d" transform="translate(401.265688 72.078737) scale(0.1 -0.1)">
     <defs>
      <path id="DejaVuSansMono-32" d="M 1166 531 
L 3309 531 
L 3309 0 
L 475 0 
L 475 531 
Q 1059 1147 1496 1619 
Q 1934 2091 2100 2284 
Q 2413 2666 2522 2902 
Q 2631 3138 2631 3384 
Q 2631 3775 2401 3997 
Q 2172 4219 1772 4219 
Q 1488 4219 1175 4116 
Q 863 4013 513 3803 
L 513 4441 
Q 834 4594 1145 4672 
Q 1456 4750 1759 4750 
Q 2444 4750 2861 4386 
Q 3278 4022 3278 3431 
Q 3278 3131 3139 2831 
Q 3000 2531 2688 2169 
Q 2513 1966 2180 1606 
Q 1847 1247 1166 531 
z
" transform="scale(0.015625)"/>
     </defs>
     <use xlink:href="#DejaVuSansMono-50"/>
     <use xlink:href="#DejaVuSansMono-32" x="60.205078"/>
    </g>
   </g>
   <g id="text_21">
    <!-- P3 -->
    <g style="fill: #14181d" transform="translate(491.661688 72.078737) scale(0.1 -0.1)">
     <defs>
      <path id="DejaVuSansMono-33" d="M 2425 2497 
Q 2884 2375 3128 2064 
Q 3372 1753 3372 1288 
Q 3372 644 2939 276 
Q 2506 -91 1741 -91 
Q 1419 -91 1084 -31 
Q 750 28 428 141 
L 428 769 
Q 747 603 1056 522 
Q 1366 441 1672 441 
Q 2191 441 2469 675 
Q 2747 909 2747 1350 
Q 2747 1756 2469 1995 
Q 2191 2234 1716 2234 
L 1234 2234 
L 1234 2753 
L 1716 2753 
Q 2150 2753 2394 2943 
Q 2638 3134 2638 3475 
Q 2638 3834 2411 4026 
Q 2184 4219 1766 4219 
Q 1488 4219 1191 4156 
Q 894 4094 569 3969 
L 569 4550 
Q 947 4650 1242 4700 
Q 1538 4750 1766 4750 
Q 2447 4750 2855 4408 
Q 3263 4066 3263 3500 
Q 3263 3116 3048 2859 
Q 2834 2603 2425 2497 
z
" transform="scale(0.015625)"/>
     </defs>
     <use xlink:href="#DejaVuSansMono-50"/>
     <use xlink:href="#DejaVuSansMono-33" x="60.205078"/>
    </g>
   </g>
   <g id="text_22">
    <!-- P4 -->
    <g style="fill: #14181d" transform="translate(582.057688 72.078737) scale(0.1 -0.1)">
     <defs>
      <path id="DejaVuSansMono-34" d="M 2297 4091 
L 825 1625 
L 2297 1625 
L 2297 4091 
z
M 2194 4666 
L 2925 4666 
L 2925 1625 
L 3547 1625 
L 3547 1113 
L 2925 1113 
L 2925 0 
L 2297 0 
L 2297 1113 
L 319 1113 
L 319 1709 
L 2194 4666 
z
" transform="scale(0.015625)"/>
     </defs>
     <use xlink:href="#DejaVuSansMono-50"/>
     <use xlink:href="#DejaVuSansMono-34" x="60.205078"/>
    </g>
   </g>
   <g id="text_23">
    <!-- public + human-sourced -->
    <g style="fill: #14181d" transform="translate(46.052875 106.783062) scale(0.092 -0.092)">
     <defs>
      <path id="DejaVuSansMono-70" d="M 1172 441 
L 1172 -1331 
L 594 -1331 
L 594 3500 
L 1172 3500 
L 1172 3053 
Q 1316 3313 1555 3448 
Q 1794 3584 2106 3584 
Q 2741 3584 3102 3093 
Q 3463 2603 3463 1734 
Q 3463 881 3100 395 
Q 2738 -91 2106 -91 
Q 1788 -91 1548 45 
Q 1309 181 1172 441 
z
M 2859 1747 
Q 2859 2416 2648 2756 
Q 2438 3097 2022 3097 
Q 1603 3097 1387 2755 
Q 1172 2413 1172 1747 
Q 1172 1084 1387 740 
Q 1603 397 2022 397 
Q 2438 397 2648 737 
Q 2859 1078 2859 1747 
z
" transform="scale(0.015625)"/>
      <path id="DejaVuSansMono-75" d="M 609 1325 
L 609 3494 
L 1184 3494 
L 1184 1325 
Q 1184 853 1351 631 
Q 1519 409 1869 409 
Q 2275 409 2490 695 
Q 2706 981 2706 1516 
L 2706 3494 
L 3284 3494 
L 3284 0 
L 2706 0 
L 2706 525 
Q 2553 222 2289 65 
Q 2025 -91 1672 -91 
Q 1134 -91 871 261 
Q 609 613 609 1325 
z
" transform="scale(0.015625)"/>
      <path id="DejaVuSansMono-62" d="M 2869 1747 
Q 2869 2416 2656 2756 
Q 2444 3097 2028 3097 
Q 1609 3097 1393 2755 
Q 1178 2413 1178 1747 
Q 1178 1084 1393 740 
Q 1609 397 2028 397 
Q 2444 397 2656 737 
Q 2869 1078 2869 1747 
z
M 1178 3053 
Q 1316 3309 1558 3446 
Q 1800 3584 2119 3584 
Q 2750 3584 3112 3098 
Q 3475 2613 3475 1759 
Q 3475 894 3111 401 
Q 2747 -91 2113 -91 
Q 1800 -91 1561 45 
Q 1322 181 1178 441 
L 1178 0 
L 603 0 
L 603 4863 
L 1178 4863 
L 1178 3053 
z
" transform="scale(0.015625)"/>
      <path id="DejaVuSansMono-6c" d="M 1997 1269 
Q 1997 881 2139 684 
Q 2281 488 2559 488 
L 3231 488 
L 3231 0 
L 2503 0 
Q 1988 0 1705 331 
Q 1422 663 1422 1269 
L 1422 4447 
L 500 4447 
L 500 4897 
L 1997 4897 
L 1997 1269 
z
" transform="scale(0.015625)"/>
      <path id="DejaVuSansMono-69" d="M 800 3500 
L 2272 3500 
L 2272 447 
L 3413 447 
L 3413 0 
L 556 0 
L 556 447 
L 1697 447 
L 1697 3053 
L 800 3053 
L 800 3500 
z
M 1697 4863 
L 2272 4863 
L 2272 4134 
L 1697 4134 
L 1697 4863 
z
" transform="scale(0.015625)"/>
      <path id="DejaVuSansMono-63" d="M 3316 178 
Q 3084 44 2839 -23 
Q 2594 -91 2338 -91 
Q 1525 -91 1067 396 
Q 609 884 609 1747 
Q 609 2609 1067 3096 
Q 1525 3584 2338 3584 
Q 2591 3584 2831 3518 
Q 3072 3453 3316 3316 
L 3316 2713 
Q 3088 2916 2858 3006 
Q 2628 3097 2338 3097 
Q 1797 3097 1506 2747 
Q 1216 2397 1216 1747 
Q 1216 1100 1508 748 
Q 1800 397 2338 397 
Q 2638 397 2875 489 
Q 3113 581 3316 775 
L 3316 178 
z
" transform="scale(0.015625)"/>
      <path id="DejaVuSansMono-20" transform="scale(0.015625)"/>
      <path id="DejaVuSansMono-2b" d="M 2188 3659 
L 2188 2272 
L 3578 2272 
L 3578 1741 
L 2188 1741 
L 2188 353 
L 1663 353 
L 1663 1741 
L 275 1741 
L 275 2272 
L 1663 2272 
L 1663 3659 
L 2188 3659 
z
" transform="scale(0.015625)"/>
      <path id="DejaVuSansMono-68" d="M 3284 2169 
L 3284 0 
L 2706 0 
L 2706 2169 
Q 2706 2641 2540 2862 
Q 2375 3084 2022 3084 
Q 1619 3084 1401 2798 
Q 1184 2513 1184 1978 
L 1184 0 
L 609 0 
L 609 4863 
L 1184 4863 
L 1184 2975 
Q 1338 3275 1600 3429 
Q 1863 3584 2222 3584 
Q 2756 3584 3020 3232 
Q 3284 2881 3284 2169 
z
" transform="scale(0.015625)"/>
      <path id="DejaVuSansMono-6d" d="M 2113 3144 
Q 2219 3369 2383 3476 
Q 2547 3584 2778 3584 
Q 3200 3584 3373 3257 
Q 3547 2931 3547 2028 
L 3547 0 
L 3022 0 
L 3022 2003 
Q 3022 2744 2939 2923 
Q 2856 3103 2638 3103 
Q 2388 3103 2295 2911 
Q 2203 2719 2203 2003 
L 2203 0 
L 1678 0 
L 1678 2003 
Q 1678 2753 1589 2928 
Q 1500 3103 1269 3103 
Q 1041 3103 952 2911 
Q 863 2719 863 2003 
L 863 0 
L 341 0 
L 341 3500 
L 863 3500 
L 863 3200 
Q 966 3388 1120 3486 
Q 1275 3584 1472 3584 
Q 1709 3584 1867 3475 
Q 2025 3366 2113 3144 
z
" transform="scale(0.015625)"/>
      <path id="DejaVuSansMono-61" d="M 2194 1759 
L 2003 1759 
Q 1500 1759 1245 1582 
Q 991 1406 991 1056 
Q 991 741 1181 566 
Q 1372 391 1709 391 
Q 2184 391 2456 720 
Q 2728 1050 2731 1631 
L 2731 1759 
L 2194 1759 
z
M 3309 1997 
L 3309 0 
L 2731 0 
L 2731 519 
Q 2547 206 2267 57 
Q 1988 -91 1588 -91 
Q 1053 -91 734 211 
Q 416 513 416 1019 
Q 416 1603 808 1906 
Q 1200 2209 1959 2209 
L 2731 2209 
L 2731 2300 
Q 2728 2719 2518 2908 
Q 2309 3097 1850 3097 
Q 1556 3097 1256 3012 
Q 956 2928 672 2766 
L 672 3341 
Q 991 3463 1283 3523 
Q 1575 3584 1850 3584 
Q 2284 3584 2592 3456 
Q 2900 3328 3091 3072 
Q 3209 2916 3259 2686 
Q 3309 2456 3309 1997 
z
" transform="scale(0.015625)"/>
      <path id="DejaVuSansMono-6e" d="M 3284 2169 
L 3284 0 
L 2706 0 
L 2706 2169 
Q 2706 2641 2540 2862 
Q 2375 3084 2022 3084 
Q 1619 3084 1401 2798 
Q 1184 2513 1184 1978 
L 1184 0 
L 609 0 
L 609 3500 
L 1184 3500 
L 1184 2975 
Q 1338 3275 1600 3429 
Q 1863 3584 2222 3584 
Q 2756 3584 3020 3232 
Q 3284 2881 3284 2169 
z
" transform="scale(0.015625)"/>
      <path id="DejaVuSansMono-2d" d="M 1113 2009 
L 2741 2009 
L 2741 1497 
L 1113 1497 
L 1113 2009 
z
" transform="scale(0.015625)"/>
      <path id="DejaVuSansMono-73" d="M 3041 3378 
L 3041 2816 
Q 2794 2959 2544 3031 
Q 2294 3103 2034 3103 
Q 1644 3103 1451 2976 
Q 1259 2850 1259 2591 
Q 1259 2356 1403 2240 
Q 1547 2125 2119 2016 
L 2350 1972 
Q 2778 1891 2998 1647 
Q 3219 1403 3219 1013 
Q 3219 494 2850 201 
Q 2481 -91 1825 -91 
Q 1566 -91 1281 -36 
Q 997 19 666 128 
L 666 722 
Q 988 556 1281 473 
Q 1575 391 1838 391 
Q 2219 391 2428 545 
Q 2638 700 2638 978 
Q 2638 1378 1872 1531 
L 1847 1538 
L 1631 1581 
Q 1134 1678 906 1908 
Q 678 2138 678 2534 
Q 678 3038 1018 3311 
Q 1359 3584 1991 3584 
Q 2272 3584 2531 3532 
Q 2791 3481 3041 3378 
z
" transform="scale(0.015625)"/>
      <path id="DejaVuSansMono-6f" d="M 1925 3097 
Q 1488 3097 1263 2756 
Q 1038 2416 1038 1747 
Q 1038 1081 1263 739 
Q 1488 397 1925 397 
Q 2366 397 2591 739 
Q 2816 1081 2816 1747 
Q 2816 2416 2591 2756 
Q 2366 3097 1925 3097 
z
M 1925 3584 
Q 2653 3584 3039 3112 
Q 3425 2641 3425 1747 
Q 3425 850 3040 379 
Q 2656 -91 1925 -91 
Q 1197 -91 812 379 
Q 428 850 428 1747 
Q 428 2641 812 3112 
Q 1197 3584 1925 3584 
z
" transform="scale(0.015625)"/>
      <path id="DejaVuSansMono-72" d="M 3609 2778 
Q 3425 2922 3234 2987 
Q 3044 3053 2816 3053 
Q 2278 3053 1993 2715 
Q 1709 2378 1709 1741 
L 1709 0 
L 1131 0 
L 1131 3500 
L 1709 3500 
L 1709 2816 
Q 1853 3188 2151 3386 
Q 2450 3584 2859 3584 
Q 3072 3584 3256 3531 
Q 3441 3478 3609 3366 
L 3609 2778 
z
" transform="scale(0.015625)"/>
      <path id="DejaVuSansMono-65" d="M 3475 1894 
L 3475 1613 
L 984 1613 
L 984 1594 
Q 984 1022 1282 709 
Q 1581 397 2125 397 
Q 2400 397 2700 484 
Q 3000 572 3341 750 
L 3341 178 
Q 3013 44 2708 -23 
Q 2403 -91 2119 -91 
Q 1303 -91 843 398 
Q 384 888 384 1747 
Q 384 2584 834 3084 
Q 1284 3584 2034 3584 
Q 2703 3584 3089 3131 
Q 3475 2678 3475 1894 
z
M 2900 2063 
Q 2888 2569 2661 2833 
Q 2434 3097 2009 3097 
Q 1594 3097 1325 2822 
Q 1056 2547 1006 2059 
L 2900 2063 
z
" transform="scale(0.015625)"/>
      <path id="DejaVuSansMono-64" d="M 2681 3053 
L 2681 4863 
L 3256 4863 
L 3256 0 
L 2681 0 
L 2681 441 
Q 2538 181 2298 45 
Q 2059 -91 1747 -91 
Q 1113 -91 748 401 
Q 384 894 384 1759 
Q 384 2613 750 3098 
Q 1116 3584 1747 3584 
Q 2063 3584 2303 3448 
Q 2544 3313 2681 3053 
z
M 991 1747 
Q 991 1078 1203 737 
Q 1416 397 1831 397 
Q 2247 397 2464 740 
Q 2681 1084 2681 1747 
Q 2681 2413 2464 2755 
Q 2247 3097 1831 3097 
Q 1416 3097 1203 2756 
Q 991 2416 991 1747 
z
" transform="scale(0.015625)"/>
     </defs>
     <use xlink:href="#DejaVuSansMono-70"/>
     <use xlink:href="#DejaVuSansMono-75" x="60.205078"/>
     <use xlink:href="#DejaVuSansMono-62" x="120.410156"/>
     <use xlink:href="#DejaVuSansMono-6c" x="180.615234"/>
     <use xlink:href="#DejaVuSansMono-69" x="240.820312"/>
     <use xlink:href="#DejaVuSansMono-63" x="301.025391"/>
     <use xlink:href="#DejaVuSansMono-20" x="361.230469"/>
     <use xlink:href="#DejaVuSansMono-2b" x="421.435547"/>
     <use xlink:href="#DejaVuSansMono-20" x="481.640625"/>
     <use xlink:href="#DejaVuSansMono-68" x="541.845703"/>
     <use xlink:href="#DejaVuSansMono-75" x="602.050781"/>
     <use xlink:href="#DejaVuSansMono-6d" x="662.255859"/>
     <use xlink:href="#DejaVuSansMono-61" x="722.460938"/>
     <use xlink:href="#DejaVuSansMono-6e" x="782.666016"/>
     <use xlink:href="#DejaVuSansMono-2d" x="842.871094"/>
     <use xlink:href="#DejaVuSansMono-73" x="903.076172"/>
     <use xlink:href="#DejaVuSansMono-6f" x="963.28125"/>
     <use xlink:href="#DejaVuSansMono-75" x="1023.486328"/>
     <use xlink:href="#DejaVuSansMono-72" x="1083.691406"/>
     <use xlink:href="#DejaVuSansMono-63" x="1143.896484"/>
     <use xlink:href="#DejaVuSansMono-65" x="1204.101562"/>
     <use xlink:href="#DejaVuSansMono-64" x="1264.306641"/>
    </g>
   </g>
   <g id="text_24">
    <!-- our teleoperation -->
    <g style="fill: #14181d" transform="translate(73.746313 158.009622) scale(0.092 -0.092)">
     <defs>
      <path id="DejaVuSansMono-74" d="M 1919 4494 
L 1919 3500 
L 3225 3500 
L 3225 3053 
L 1919 3053 
L 1919 1153 
Q 1919 766 2066 612 
Q 2213 459 2578 459 
L 3225 459 
L 3225 0 
L 2522 0 
Q 1875 0 1609 259 
Q 1344 519 1344 1153 
L 1344 3053 
L 409 3053 
L 409 3500 
L 1344 3500 
L 1344 4494 
L 1919 4494 
z
" transform="scale(0.015625)"/>
     </defs>
     <use xlink:href="#DejaVuSansMono-6f"/>
     <use xlink:href="#DejaVuSansMono-75" x="60.205078"/>
     <use xlink:href="#DejaVuSansMono-72" x="120.410156"/>
     <use xlink:href="#DejaVuSansMono-20" x="180.615234"/>
     <use xlink:href="#DejaVuSansMono-74" x="240.820312"/>
     <use xlink:href="#DejaVuSansMono-65" x="301.025391"/>
     <use xlink:href="#DejaVuSansMono-6c" x="361.230469"/>
     <use xlink:href="#DejaVuSansMono-65" x="421.435547"/>
     <use xlink:href="#DejaVuSansMono-6f" x="481.640625"/>
     <use xlink:href="#DejaVuSansMono-70" x="541.845703"/>
     <use xlink:href="#DejaVuSansMono-65" x="602.050781"/>
     <use xlink:href="#DejaVuSansMono-72" x="662.255859"/>
     <use xlink:href="#DejaVuSansMono-61" x="722.460938"/>
     <use xlink:href="#DejaVuSansMono-74" x="782.666016"/>
     <use xlink:href="#DejaVuSansMono-69" x="842.871094"/>
     <use xlink:href="#DejaVuSansMono-6f" x="903.076172"/>
     <use xlink:href="#DejaVuSansMono-6e" x="963.28125"/>
    </g>
   </g>
   <g id="text_25">
    <!-- our on-policy rollouts -->
    <g style="fill: #14181d" transform="translate(46.052875 209.236182) scale(0.092 -0.092)">
     <defs>
      <path id="DejaVuSansMono-79" d="M 2681 1125 
Q 2538 759 2316 163 
Q 2006 -663 1900 -844 
Q 1756 -1088 1540 -1209 
Q 1325 -1331 1038 -1331 
L 575 -1331 
L 575 -850 
L 916 -850 
Q 1169 -850 1312 -703 
Q 1456 -556 1678 56 
L 325 3500 
L 934 3500 
L 1972 763 
L 2994 3500 
L 3603 3500 
L 2681 1125 
z
" transform="scale(0.015625)"/>
     </defs>
     <use xlink:href="#DejaVuSansMono-6f"/>
     <use xlink:href="#DejaVuSansMono-75" x="60.205078"/>
     <use xlink:href="#DejaVuSansMono-72" x="120.410156"/>
     <use xlink:href="#DejaVuSansMono-20" x="180.615234"/>
     <use xlink:href="#DejaVuSansMono-6f" x="240.820312"/>
     <use xlink:href="#DejaVuSansMono-6e" x="301.025391"/>
     <use xlink:href="#DejaVuSansMono-2d" x="361.230469"/>
     <use xlink:href="#DejaVuSansMono-70" x="421.435547"/>
     <use xlink:href="#DejaVuSansMono-6f" x="481.640625"/>
     <use xlink:href="#DejaVuSansMono-6c" x="541.845703"/>
     <use xlink:href="#DejaVuSansMono-69" x="602.050781"/>
     <use xlink:href="#DejaVuSansMono-63" x="662.255859"/>
     <use xlink:href="#DejaVuSansMono-79" x="722.460938"/>
     <use xlink:href="#DejaVuSansMono-20" x="782.666016"/>
     <use xlink:href="#DejaVuSansMono-72" x="842.871094"/>
     <use xlink:href="#DejaVuSansMono-6f" x="903.076172"/>
     <use xlink:href="#DejaVuSansMono-6c" x="963.28125"/>
     <use xlink:href="#DejaVuSansMono-6c" x="1023.486328"/>
     <use xlink:href="#DejaVuSansMono-6f" x="1083.691406"/>
     <use xlink:href="#DejaVuSansMono-75" x="1143.896484"/>
     <use xlink:href="#DejaVuSansMono-74" x="1204.101562"/>
     <use xlink:href="#DejaVuSansMono-73" x="1264.306641"/>
    </g>
   </g>
   <g id="text_26">
    <!-- the two zeros are structural, not planned: no autonomous policy runs before P2, so on-policy rollouts -->
    <g style="fill: #b3453c" transform="translate(27.288 273.921039) scale(0.084 -0.084)">
     <defs>
      <path id="DejaVuSansMono-77" d="M 0 3500 
L 569 3500 
L 1178 672 
L 1678 2478 
L 2169 2478 
L 2675 672 
L 3284 3500 
L 3853 3500 
L 3034 0 
L 2484 0 
L 1925 1919 
L 1369 0 
L 819 0 
L 0 3500 
z
" transform="scale(0.015625)"/>
      <path id="DejaVuSansMono-7a" d="M 709 3506 
L 3250 3506 
L 3250 2981 
L 1241 469 
L 3250 469 
L 3250 0 
L 634 0 
L 634 531 
L 2644 3047 
L 709 3047 
L 709 3506 
z
" transform="scale(0.015625)"/>
      <path id="DejaVuSansMono-2c" d="M 1569 947 
L 2356 947 
L 2356 300 
L 1741 -897 
L 1259 -897 
L 1569 300 
L 1569 947 
z
" transform="scale(0.015625)"/>
      <path id="DejaVuSansMono-3a" d="M 1528 3322 
L 2316 3322 
L 2316 2375 
L 1528 2375 
L 1528 3322 
z
M 1528 953 
L 2316 953 
L 2316 0 
L 1528 0 
L 1528 953 
z
" transform="scale(0.015625)"/>
      <path id="DejaVuSansMono-66" d="M 3322 4863 
L 3322 4384 
L 2669 4384 
Q 2359 4384 2239 4257 
Q 2119 4131 2119 3809 
L 2119 3500 
L 3322 3500 
L 3322 3053 
L 2119 3053 
L 2119 0 
L 1544 0 
L 1544 3053 
L 609 3053 
L 609 3500 
L 1544 3500 
L 1544 3744 
Q 1544 4319 1808 4591 
Q 2072 4863 2631 4863 
L 3322 4863 
z
" transform="scale(0.015625)"/>
     </defs>
     <use xlink:href="#DejaVuSansMono-74"/>
     <use xlink:href="#DejaVuSansMono-68" x="60.205078"/>
     <use xlink:href="#DejaVuSansMono-65" x="120.410156"/>
     <use xlink:href="#DejaVuSansMono-20" x="180.615234"/>
     <use xlink:href="#DejaVuSansMono-74" x="240.820312"/>
     <use xlink:href="#DejaVuSansMono-77" x="301.025391"/>
     <use xlink:href="#DejaVuSansMono-6f" x="361.230469"/>
     <use xlink:href="#DejaVuSansMono-20" x="421.435547"/>
     <use xlink:href="#DejaVuSansMono-7a" x="481.640625"/>
     <use xlink:href="#DejaVuSansMono-65" x="541.845703"/>
     <use xlink:href="#DejaVuSansMono-72" x="602.050781"/>
     <use xlink:href="#DejaVuSansMono-6f" x="662.255859"/>
     <use xlink:href="#DejaVuSansMono-73" x="722.460938"/>
     <use xlink:href="#DejaVuSansMono-20" x="782.666016"/>
     <use xlink:href="#DejaVuSansMono-61" x="842.871094"/>
     <use xlink:href="#DejaVuSansMono-72" x="903.076172"/>
     <use xlink:href="#DejaVuSansMono-65" x="963.28125"/>
     <use xlink:href="#DejaVuSansMono-20" x="1023.486328"/>
     <use xlink:href="#DejaVuSansMono-73" x="1083.691406"/>
     <use xlink:href="#DejaVuSansMono-74" x="1143.896484"/>
     <use xlink:href="#DejaVuSansMono-72" x="1204.101562"/>
     <use xlink:href="#DejaVuSansMono-75" x="1264.306641"/>
     <use xlink:href="#DejaVuSansMono-63" x="1324.511719"/>
     <use xlink:href="#DejaVuSansMono-74" x="1384.716797"/>
     <use xlink:href="#DejaVuSansMono-75" x="1444.921875"/>
     <use xlink:href="#DejaVuSansMono-72" x="1505.126953"/>
     <use xlink:href="#DejaVuSansMono-61" x="1565.332031"/>
     <use xlink:href="#DejaVuSansMono-6c" x="1625.537109"/>
     <use xlink:href="#DejaVuSansMono-2c" x="1685.742188"/>
     <use xlink:href="#DejaVuSansMono-20" x="1745.947266"/>
     <use xlink:href="#DejaVuSansMono-6e" x="1806.152344"/>
     <use xlink:href="#DejaVuSansMono-6f" x="1866.357422"/>
     <use xlink:href="#DejaVuSansMono-74" x="1926.5625"/>
     <use xlink:href="#DejaVuSansMono-20" x="1986.767578"/>
     <use xlink:href="#DejaVuSansMono-70" x="2046.972656"/>
     <use xlink:href="#DejaVuSansMono-6c" x="2107.177734"/>
     <use xlink:href="#DejaVuSansMono-61" x="2167.382812"/>
     <use xlink:href="#DejaVuSansMono-6e" x="2227.587891"/>
     <use xlink:href="#DejaVuSansMono-6e" x="2287.792969"/>
     <use xlink:href="#DejaVuSansMono-65" x="2347.998047"/>
     <use xlink:href="#DejaVuSansMono-64" x="2408.203125"/>
     <use xlink:href="#DejaVuSansMono-3a" x="2468.408203"/>
     <use xlink:href="#DejaVuSansMono-20" x="2528.613281"/>
     <use xlink:href="#DejaVuSansMono-6e" x="2588.818359"/>
     <use xlink:href="#DejaVuSansMono-6f" x="2649.023438"/>
     <use xlink:href="#DejaVuSansMono-20" x="2709.228516"/>
     <use xlink:href="#DejaVuSansMono-61" x="2769.433594"/>
     <use xlink:href="#DejaVuSansMono-75" x="2829.638672"/>
     <use xlink:href="#DejaVuSansMono-74" x="2889.84375"/>
     <use xlink:href="#DejaVuSansMono-6f" x="2950.048828"/>
     <use xlink:href="#DejaVuSansMono-6e" x="3010.253906"/>
     <use xlink:href="#DejaVuSansMono-6f" x="3070.458984"/>
     <use xlink:href="#DejaVuSansMono-6d" x="3130.664062"/>
     <use xlink:href="#DejaVuSansMono-6f" x="3190.869141"/>
     <use xlink:href="#DejaVuSansMono-75" x="3251.074219"/>
     <use xlink:href="#DejaVuSansMono-73" x="3311.279297"/>
     <use xlink:href="#DejaVuSansMono-20" x="3371.484375"/>
     <use xlink:href="#DejaVuSansMono-70" x="3431.689453"/>
     <use xlink:href="#DejaVuSansMono-6f" x="3491.894531"/>
     <use xlink:href="#DejaVuSansMono-6c" x="3552.099609"/>
     <use xlink:href="#DejaVuSansMono-69" x="3612.304688"/>
     <use xlink:href="#DejaVuSansMono-63" x="3672.509766"/>
     <use xlink:href="#DejaVuSansMono-79" x="3732.714844"/>
     <use xlink:href="#DejaVuSansMono-20" x="3792.919922"/>
     <use xlink:href="#DejaVuSansMono-72" x="3853.125"/>
     <use xlink:href="#DejaVuSansMono-75" x="3913.330078"/>
     <use xlink:href="#DejaVuSansMono-6e" x="3973.535156"/>
     <use xlink:href="#DejaVuSansMono-73" x="4033.740234"/>
     <use xlink:href="#DejaVuSansMono-20" x="4093.945312"/>
     <use xlink:href="#DejaVuSansMono-62" x="4154.150391"/>
     <use xlink:href="#DejaVuSansMono-65" x="4214.355469"/>
     <use xlink:href="#DejaVuSansMono-66" x="4274.560547"/>
     <use xlink:href="#DejaVuSansMono-6f" x="4334.765625"/>
     <use xlink:href="#DejaVuSansMono-72" x="4394.970703"/>
     <use xlink:href="#DejaVuSansMono-65" x="4455.175781"/>
     <use xlink:href="#DejaVuSansMono-20" x="4515.380859"/>
     <use xlink:href="#DejaVuSansMono-50" x="4575.585938"/>
     <use xlink:href="#DejaVuSansMono-32" x="4635.791016"/>
     <use xlink:href="#DejaVuSansMono-2c" x="4695.996094"/>
     <use xlink:href="#DejaVuSansMono-20" x="4756.201172"/>
     <use xlink:href="#DejaVuSansMono-73" x="4816.40625"/>
     <use xlink:href="#DejaVuSansMono-6f" x="4876.611328"/>
     <use xlink:href="#DejaVuSansMono-20" x="4936.816406"/>
     <use xlink:href="#DejaVuSansMono-6f" x="4997.021484"/>
     <use xlink:href="#DejaVuSansMono-6e" x="5057.226562"/>
     <use xlink:href="#DejaVuSansMono-2d" x="5117.431641"/>
     <use xlink:href="#DejaVuSansMono-70" x="5177.636719"/>
     <use xlink:href="#DejaVuSansMono-6f" x="5237.841797"/>
     <use xlink:href="#DejaVuSansMono-6c" x="5298.046875"/>
     <use xlink:href="#DejaVuSansMono-69" x="5358.251953"/>
     <use xlink:href="#DejaVuSansMono-63" x="5418.457031"/>
     <use xlink:href="#DejaVuSansMono-79" x="5478.662109"/>
     <use xlink:href="#DejaVuSansMono-20" x="5538.867188"/>
     <use xlink:href="#DejaVuSansMono-72" x="5599.072266"/>
     <use xlink:href="#DejaVuSansMono-6f" x="5659.277344"/>
     <use xlink:href="#DejaVuSansMono-6c" x="5719.482422"/>
     <use xlink:href="#DejaVuSansMono-6c" x="5779.6875"/>
     <use xlink:href="#DejaVuSansMono-6f" x="5839.892578"/>
     <use xlink:href="#DejaVuSansMono-75" x="5900.097656"/>
     <use xlink:href="#DejaVuSansMono-74" x="5960.302734"/>
     <use xlink:href="#DejaVuSansMono-73" x="6020.507812"/>
    </g>
    <!-- cannot exist. everything to the right of them is a design intent we steer toward, and have not measured. -->
    <g style="fill: #b3453c" transform="translate(27.288 285.308946) scale(0.084 -0.084)">
     <defs>
      <path id="DejaVuSansMono-78" d="M 3494 3500 
L 2241 1825 
L 3616 0 
L 2950 0 
L 1925 1403 
L 903 0 
L 238 0 
L 1613 1825 
L 359 3500 
L 997 3500 
L 1925 2234 
L 2847 3500 
L 3494 3500 
z
" transform="scale(0.015625)"/>
      <path id="DejaVuSansMono-2e" d="M 1528 953 
L 2316 953 
L 2316 0 
L 1528 0 
L 1528 953 
z
" transform="scale(0.015625)"/>
      <path id="DejaVuSansMono-76" d="M 313 3500 
L 909 3500 
L 1925 563 
L 2944 3500 
L 3541 3500 
L 2297 0 
L 1556 0 
L 313 3500 
z
" transform="scale(0.015625)"/>
      <path id="DejaVuSansMono-67" d="M 2681 1778 
Q 2681 2425 2470 2761 
Q 2259 3097 1856 3097 
Q 1434 3097 1212 2761 
Q 991 2425 991 1778 
Q 991 1131 1214 792 
Q 1438 453 1863 453 
Q 2259 453 2470 793 
Q 2681 1134 2681 1778 
z
M 3256 225 
Q 3256 -563 2884 -969 
Q 2513 -1375 1791 -1375 
Q 1553 -1375 1293 -1331 
Q 1034 -1288 775 -1203 
L 775 -634 
Q 1081 -778 1331 -847 
Q 1581 -916 1791 -916 
Q 2256 -916 2468 -662 
Q 2681 -409 2681 141 
L 2681 166 
L 2681 556 
Q 2544 263 2306 119 
Q 2069 -25 1728 -25 
Q 1116 -25 750 465 
Q 384 956 384 1778 
Q 384 2603 750 3093 
Q 1116 3584 1728 3584 
Q 2066 3584 2300 3450 
Q 2534 3316 2681 3034 
L 2681 3488 
L 3256 3488 
L 3256 225 
z
" transform="scale(0.015625)"/>
     </defs>
     <use xlink:href="#DejaVuSansMono-63"/>
     <use xlink:href="#DejaVuSansMono-61" x="60.205078"/>
     <use xlink:href="#DejaVuSansMono-6e" x="120.410156"/>
     <use xlink:href="#DejaVuSansMono-6e" x="180.615234"/>
     <use xlink:href="#DejaVuSansMono-6f" x="240.820312"/>
     <use xlink:href="#DejaVuSansMono-74" x="301.025391"/>
     <use xlink:href="#DejaVuSansMono-20" x="361.230469"/>
     <use xlink:href="#DejaVuSansMono-65" x="421.435547"/>
     <use xlink:href="#DejaVuSansMono-78" x="481.640625"/>
     <use xlink:href="#DejaVuSansMono-69" x="541.845703"/>
     <use xlink:href="#DejaVuSansMono-73" x="602.050781"/>
     <use xlink:href="#DejaVuSansMono-74" x="662.255859"/>
     <use xlink:href="#DejaVuSansMono-2e" x="722.460938"/>
     <use xlink:href="#DejaVuSansMono-20" x="782.666016"/>
     <use xlink:href="#DejaVuSansMono-65" x="842.871094"/>
     <use xlink:href="#DejaVuSansMono-76" x="903.076172"/>
     <use xlink:href="#DejaVuSansMono-65" x="963.28125"/>
     <use xlink:href="#DejaVuSansMono-72" x="1023.486328"/>
     <use xlink:href="#DejaVuSansMono-79" x="1083.691406"/>
     <use xlink:href="#DejaVuSansMono-74" x="1143.896484"/>
     <use xlink:href="#DejaVuSansMono-68" x="1204.101562"/>
     <use xlink:href="#DejaVuSansMono-69" x="1264.306641"/>
     <use xlink:href="#DejaVuSansMono-6e" x="1324.511719"/>
     <use xlink:href="#DejaVuSansMono-67" x="1384.716797"/>
     <use xlink:href="#DejaVuSansMono-20" x="1444.921875"/>
     <use xlink:href="#DejaVuSansMono-74" x="1505.126953"/>
     <use xlink:href="#DejaVuSansMono-6f" x="1565.332031"/>
     <use xlink:href="#DejaVuSansMono-20" x="1625.537109"/>
     <use xlink:href="#DejaVuSansMono-74" x="1685.742188"/>
     <use xlink:href="#DejaVuSansMono-68" x="1745.947266"/>
     <use xlink:href="#DejaVuSansMono-65" x="1806.152344"/>
     <use xlink:href="#DejaVuSansMono-20" x="1866.357422"/>
     <use xlink:href="#DejaVuSansMono-72" x="1926.5625"/>
     <use xlink:href="#DejaVuSansMono-69" x="1986.767578"/>
     <use xlink:href="#DejaVuSansMono-67" x="2046.972656"/>
     <use xlink:href="#DejaVuSansMono-68" x="2107.177734"/>
     <use xlink:href="#DejaVuSansMono-74" x="2167.382812"/>
     <use xlink:href="#DejaVuSansMono-20" x="2227.587891"/>
     <use xlink:href="#DejaVuSansMono-6f" x="2287.792969"/>
     <use xlink:href="#DejaVuSansMono-66" x="2347.998047"/>
     <use xlink:href="#DejaVuSansMono-20" x="2408.203125"/>
     <use xlink:href="#DejaVuSansMono-74" x="2468.408203"/>
     <use xlink:href="#DejaVuSansMono-68" x="2528.613281"/>
     <use xlink:href="#DejaVuSansMono-65" x="2588.818359"/>
     <use xlink:href="#DejaVuSansMono-6d" x="2649.023438"/>
     <use xlink:href="#DejaVuSansMono-20" x="2709.228516"/>
     <use xlink:href="#DejaVuSansMono-69" x="2769.433594"/>
     <use xlink:href="#DejaVuSansMono-73" x="2829.638672"/>
     <use xlink:href="#DejaVuSansMono-20" x="2889.84375"/>
     <use xlink:href="#DejaVuSansMono-61" x="2950.048828"/>
     <use xlink:href="#DejaVuSansMono-20" x="3010.253906"/>
     <use xlink:href="#DejaVuSansMono-64" x="3070.458984"/>
     <use xlink:href="#DejaVuSansMono-65" x="3130.664062"/>
     <use xlink:href="#DejaVuSansMono-73" x="3190.869141"/>
     <use xlink:href="#DejaVuSansMono-69" x="3251.074219"/>
     <use xlink:href="#DejaVuSansMono-67" x="3311.279297"/>
     <use xlink:href="#DejaVuSansMono-6e" x="3371.484375"/>
     <use xlink:href="#DejaVuSansMono-20" x="3431.689453"/>
     <use xlink:href="#DejaVuSansMono-69" x="3491.894531"/>
     <use xlink:href="#DejaVuSansMono-6e" x="3552.099609"/>
     <use xlink:href="#DejaVuSansMono-74" x="3612.304688"/>
     <use xlink:href="#DejaVuSansMono-65" x="3672.509766"/>
     <use xlink:href="#DejaVuSansMono-6e" x="3732.714844"/>
     <use xlink:href="#DejaVuSansMono-74" x="3792.919922"/>
     <use xlink:href="#DejaVuSansMono-20" x="3853.125"/>
     <use xlink:href="#DejaVuSansMono-77" x="3913.330078"/>
     <use xlink:href="#DejaVuSansMono-65" x="3973.535156"/>
     <use xlink:href="#DejaVuSansMono-20" x="4033.740234"/>
     <use xlink:href="#DejaVuSansMono-73" x="4093.945312"/>
     <use xlink:href="#DejaVuSansMono-74" x="4154.150391"/>
     <use xlink:href="#DejaVuSansMono-65" x="4214.355469"/>
     <use xlink:href="#DejaVuSansMono-65" x="4274.560547"/>
     <use xlink:href="#DejaVuSansMono-72" x="4334.765625"/>
     <use xlink:href="#DejaVuSansMono-20" x="4394.970703"/>
     <use xlink:href="#DejaVuSansMono-74" x="4455.175781"/>
     <use xlink:href="#DejaVuSansMono-6f" x="4515.380859"/>
     <use xlink:href="#DejaVuSansMono-77" x="4575.585938"/>
     <use xlink:href="#DejaVuSansMono-61" x="4635.791016"/>
     <use xlink:href="#DejaVuSansMono-72" x="4695.996094"/>
     <use xlink:href="#DejaVuSansMono-64" x="4756.201172"/>
     <use xlink:href="#DejaVuSansMono-2c" x="4816.40625"/>
     <use xlink:href="#DejaVuSansMono-20" x="4876.611328"/>
     <use xlink:href="#DejaVuSansMono-61" x="4936.816406"/>
     <use xlink:href="#DejaVuSansMono-6e" x="4997.021484"/>
     <use xlink:href="#DejaVuSansMono-64" x="5057.226562"/>
     <use xlink:href="#DejaVuSansMono-20" x="5117.431641"/>
     <use xlink:href="#DejaVuSansMono-68" x="5177.636719"/>
     <use xlink:href="#DejaVuSansMono-61" x="5237.841797"/>
     <use xlink:href="#DejaVuSansMono-76" x="5298.046875"/>
     <use xlink:href="#DejaVuSansMono-65" x="5358.251953"/>
     <use xlink:href="#DejaVuSansMono-20" x="5418.457031"/>
     <use xlink:href="#DejaVuSansMono-6e" x="5478.662109"/>
     <use xlink:href="#DejaVuSansMono-6f" x="5538.867188"/>
     <use xlink:href="#DejaVuSansMono-74" x="5599.072266"/>
     <use xlink:href="#DejaVuSansMono-20" x="5659.277344"/>
     <use xlink:href="#DejaVuSansMono-6d" x="5719.482422"/>
     <use xlink:href="#DejaVuSansMono-65" x="5779.6875"/>
     <use xlink:href="#DejaVuSansMono-61" x="5839.892578"/>
     <use xlink:href="#DejaVuSansMono-73" x="5900.097656"/>
     <use xlink:href="#DejaVuSansMono-75" x="5960.302734"/>
     <use xlink:href="#DejaVuSansMono-72" x="6020.507812"/>
     <use xlink:href="#DejaVuSansMono-65" x="6080.712891"/>
     <use xlink:href="#DejaVuSansMono-64" x="6140.917969"/>
     <use xlink:href="#DejaVuSansMono-2e" x="6201.123047"/>
    </g>
   </g>
  </g>
 </g>
 <defs>
  <clipPath id="pce6aa1c605">
   <rect x="7.2" y="7.2" width="669.6" height="310.464"/>
  </clipPath>
 </defs>
</svg>
