<?xml version="1.0" encoding="utf-8" standalone="no"?>
<!DOCTYPE svg PUBLIC "-//W3C//DTD SVG 1.1//EN"
  "http://www.w3.org/Graphics/SVG/1.1/DTD/svg11.dtd">
<svg xmlns:xlink="http://www.w3.org/1999/xlink" width="684pt" height="380.304pt" viewBox="0 0 684 380.304" xmlns="http://www.w3.org/2000/svg" version="1.1">
 <metadata>
  <rdf:RDF xmlns:dc="http://purl.org/dc/elements/1.1/" xmlns:cc="http://creativecommons.org/ns#" xmlns:rdf="http://www.w3.org/1999/02/22-rdf-syntax-ns#">
   <cc:Work>
    <dc:type rdf:resource="http://purl.org/dc/dcmitype/StillImage"/>
    <dc:date>2026-08-15T20:04:20.019997</dc:date>
    <dc:format>image/svg+xml</dc:format>
    <dc:creator>
     <cc:Agent>
      <dc:title>Matplotlib v3.9.4, https://matplotlib.org/</dc:title>
     </cc:Agent>
    </dc:creator>
   </cc:Work>
  </rdf:RDF>
 </metadata>
 <defs>
  <style type="text/css">*{stroke-linejoin: round; stroke-linecap: butt}</style>
 </defs>
 <g id="figure_1">
  <g id="patch_1">
   <path d="M 0 380.304 
L 684 380.304 
L 684 0 
L 0 0 
z
" style="fill: #ffffff"/>
  </g>
  <g id="axes_1">
   <g id="patch_2">
    <path d="M 226.818501 72.696816 
Q 241.55816 72.696816 254.844376 72.696816 
" clip-path="url(#p0b42dc4517)" style="fill: none; stroke: #b8c0ca; stroke-width: 1.3; stroke-linecap: round"/>
    <path d="M 249.644376 70.096816 
L 254.844376 72.696816 
L 249.644376 75.296816 
z
" clip-path="url(#p0b42dc4517)" style="fill: #b8c0ca; stroke: #b8c0ca; stroke-width: 1.3; stroke-linecap: round"/>
   </g>
   <g id="patch_3">
    <path d="M 226.818501 111.116736 
Q 241.55816 111.116736 254.844376 111.116736 
" clip-path="url(#p0b42dc4517)" style="fill: none; stroke: #b8c0ca; stroke-width: 1.3; stroke-linecap: round"/>
    <path d="M 249.644376 108.516736 
L 254.844376 111.116736 
L 249.644376 113.716736 
z
" clip-path="url(#p0b42dc4517)" style="fill: #b8c0ca; stroke: #b8c0ca; stroke-width: 1.3; stroke-linecap: round"/>
   </g>
   <g id="patch_4">
    <path d="M 226.818501 149.536656 
Q 241.55816 149.536656 254.844376 149.536656 
" clip-path="url(#p0b42dc4517)" style="fill: none; stroke: #b8c0ca; stroke-width: 1.3; stroke-linecap: round"/>
    <path d="M 249.644376 146.936656 
L 254.844376 149.536656 
L 249.644376 152.136656 
z
" clip-path="url(#p0b42dc4517)" style="fill: #b8c0ca; stroke: #b8c0ca; stroke-width: 1.3; stroke-linecap: round"/>
   </g>
   <g id="patch_5">
    <path d="M 226.818501 187.956576 
Q 241.55816 187.956576 254.844376 187.956576 
" clip-path="url(#p0b42dc4517)" style="fill: none; stroke: #b8c0ca; stroke-width: 1.3; stroke-linecap: round"/>
    <path d="M 249.644376 185.356576 
L 254.844376 187.956576 
L 249.644376 190.556576 
z
" clip-path="url(#p0b42dc4517)" style="fill: #b8c0ca; stroke: #b8c0ca; stroke-width: 1.3; stroke-linecap: round"/>
   </g>
   <g id="patch_6">
    <path d="M 226.818501 226.376496 
Q 241.55816 226.376496 254.844376 226.376496 
" clip-path="url(#p0b42dc4517)" style="fill: none; stroke: #b8c0ca; stroke-width: 1.3; stroke-linecap: round"/>
    <path d="M 249.644376 223.776496 
L 254.844376 226.376496 
L 249.644376 228.976496 
z
" clip-path="url(#p0b42dc4517)" style="fill: #b8c0ca; stroke: #b8c0ca; stroke-width: 1.3; stroke-linecap: round"/>
   </g>
   <g id="patch_7">
    <path d="M 226.818501 264.796416 
Q 241.55816 264.796416 254.844376 264.796416 
" clip-path="url(#p0b42dc4517)" style="fill: none; stroke: #b8c0ca; stroke-width: 1.3; stroke-linecap: round"/>
    <path d="M 249.644376 262.196416 
L 254.844376 264.796416 
L 249.644376 267.396416 
z
" clip-path="url(#p0b42dc4517)" style="fill: #b8c0ca; stroke: #b8c0ca; stroke-width: 1.3; stroke-linecap: round"/>
   </g>
   <g id="patch_8">
    <path d="M 226.818501 303.216336 
Q 241.55816 303.216336 254.844376 303.216336 
" clip-path="url(#p0b42dc4517)" style="fill: none; stroke: #b8c0ca; stroke-width: 1.3; stroke-linecap: round"/>
    <path d="M 249.644376 300.616336 
L 254.844376 303.216336 
L 249.644376 305.816336 
z
" clip-path="url(#p0b42dc4517)" style="fill: #b8c0ca; stroke: #b8c0ca; stroke-width: 1.3; stroke-linecap: round"/>
   </g>
   <g id="text_1">
    <!-- Which data feeds which stage -->
    <g style="fill: #14181d" transform="translate(20.592 28.5051) scale(0.16 -0.16)">
     <defs>
      <path id="DejaVuSans-Bold-57" d="M 191 4666 
L 1344 4666 
L 2150 1275 
L 2950 4666 
L 4109 4666 
L 4909 1275 
L 5716 4666 
L 6859 4666 
L 5759 0 
L 4372 0 
L 3525 3547 
L 2688 0 
L 1300 0 
L 191 4666 
z
" transform="scale(0.015625)"/>
      <path id="DejaVuSans-Bold-68" d="M 4056 2131 
L 4056 0 
L 2931 0 
L 2931 347 
L 2931 1625 
Q 2931 2084 2911 2256 
Q 2891 2428 2841 2509 
Q 2775 2619 2662 2680 
Q 2550 2741 2406 2741 
Q 2056 2741 1856 2470 
Q 1656 2200 1656 1722 
L 1656 0 
L 538 0 
L 538 4863 
L 1656 4863 
L 1656 2988 
Q 1909 3294 2193 3439 
Q 2478 3584 2822 3584 
Q 3428 3584 3742 3212 
Q 4056 2841 4056 2131 
z
" transform="scale(0.015625)"/>
      <path id="DejaVuSans-Bold-69" d="M 538 3500 
L 1656 3500 
L 1656 0 
L 538 0 
L 538 3500 
z
M 538 4863 
L 1656 4863 
L 1656 3950 
L 538 3950 
L 538 4863 
z
" transform="scale(0.015625)"/>
      <path id="DejaVuSans-Bold-63" d="M 3366 3391 
L 3366 2478 
Q 3138 2634 2908 2709 
Q 2678 2784 2431 2784 
Q 1963 2784 1702 2511 
Q 1441 2238 1441 1747 
Q 1441 1256 1702 982 
Q 1963 709 2431 709 
Q 2694 709 2930 787 
Q 3166 866 3366 1019 
L 3366 103 
Q 3103 6 2833 -42 
Q 2563 -91 2291 -91 
Q 1344 -91 809 395 
Q 275 881 275 1747 
Q 275 2613 809 3098 
Q 1344 3584 2291 3584 
Q 2566 3584 2833 3536 
Q 3100 3488 3366 3391 
z
" transform="scale(0.015625)"/>
      <path id="DejaVuSans-Bold-20" transform="scale(0.015625)"/>
      <path id="DejaVuSans-Bold-64" d="M 2919 2988 
L 2919 4863 
L 4044 4863 
L 4044 0 
L 2919 0 
L 2919 506 
Q 2688 197 2409 53 
Q 2131 -91 1766 -91 
Q 1119 -91 703 423 
Q 288 938 288 1747 
Q 288 2556 703 3070 
Q 1119 3584 1766 3584 
Q 2128 3584 2408 3439 
Q 2688 3294 2919 2988 
z
M 2181 722 
Q 2541 722 2730 984 
Q 2919 1247 2919 1747 
Q 2919 2247 2730 2509 
Q 2541 2772 2181 2772 
Q 1825 2772 1636 2509 
Q 1447 2247 1447 1747 
Q 1447 1247 1636 984 
Q 1825 722 2181 722 
z
" transform="scale(0.015625)"/>
      <path id="DejaVuSans-Bold-61" d="M 2106 1575 
Q 1756 1575 1579 1456 
Q 1403 1338 1403 1106 
Q 1403 894 1545 773 
Q 1688 653 1941 653 
Q 2256 653 2472 879 
Q 2688 1106 2688 1447 
L 2688 1575 
L 2106 1575 
z
M 3816 1997 
L 3816 0 
L 2688 0 
L 2688 519 
Q 2463 200 2181 54 
Q 1900 -91 1497 -91 
Q 953 -91 614 226 
Q 275 544 275 1050 
Q 275 1666 698 1953 
Q 1122 2241 2028 2241 
L 2688 2241 
L 2688 2328 
Q 2688 2594 2478 2717 
Q 2269 2841 1825 2841 
Q 1466 2841 1156 2769 
Q 847 2697 581 2553 
L 581 3406 
Q 941 3494 1303 3539 
Q 1666 3584 2028 3584 
Q 2975 3584 3395 3211 
Q 3816 2838 3816 1997 
z
" transform="scale(0.015625)"/>
      <path id="DejaVuSans-Bold-74" d="M 1759 4494 
L 1759 3500 
L 2913 3500 
L 2913 2700 
L 1759 2700 
L 1759 1216 
Q 1759 972 1856 886 
Q 1953 800 2241 800 
L 2816 800 
L 2816 0 
L 1856 0 
Q 1194 0 917 276 
Q 641 553 641 1216 
L 641 2700 
L 84 2700 
L 84 3500 
L 641 3500 
L 641 4494 
L 1759 4494 
z
" transform="scale(0.015625)"/>
      <path id="DejaVuSans-Bold-66" d="M 2841 4863 
L 2841 4128 
L 2222 4128 
Q 1984 4128 1890 4042 
Q 1797 3956 1797 3744 
L 1797 3500 
L 2753 3500 
L 2753 2700 
L 1797 2700 
L 1797 0 
L 678 0 
L 678 2700 
L 122 2700 
L 122 3500 
L 678 3500 
L 678 3744 
Q 678 4316 997 4589 
Q 1316 4863 1984 4863 
L 2841 4863 
z
" transform="scale(0.015625)"/>
      <path id="DejaVuSans-Bold-65" d="M 4031 1759 
L 4031 1441 
L 1416 1441 
Q 1456 1047 1700 850 
Q 1944 653 2381 653 
Q 2734 653 3104 758 
Q 3475 863 3866 1075 
L 3866 213 
Q 3469 63 3072 -14 
Q 2675 -91 2278 -91 
Q 1328 -91 801 392 
Q 275 875 275 1747 
Q 275 2603 792 3093 
Q 1309 3584 2216 3584 
Q 3041 3584 3536 3087 
Q 4031 2591 4031 1759 
z
M 2881 2131 
Q 2881 2450 2695 2645 
Q 2509 2841 2209 2841 
Q 1884 2841 1681 2658 
Q 1478 2475 1428 2131 
L 2881 2131 
z
" transform="scale(0.015625)"/>
      <path id="DejaVuSans-Bold-73" d="M 3272 3391 
L 3272 2541 
Q 2913 2691 2578 2766 
Q 2244 2841 1947 2841 
Q 1628 2841 1473 2761 
Q 1319 2681 1319 2516 
Q 1319 2381 1436 2309 
Q 1553 2238 1856 2203 
L 2053 2175 
Q 2913 2066 3209 1816 
Q 3506 1566 3506 1031 
Q 3506 472 3093 190 
Q 2681 -91 1863 -91 
Q 1516 -91 1145 -36 
Q 775 19 384 128 
L 384 978 
Q 719 816 1070 734 
Q 1422 653 1784 653 
Q 2113 653 2278 743 
Q 2444 834 2444 1013 
Q 2444 1163 2330 1236 
Q 2216 1309 1875 1350 
L 1678 1375 
Q 931 1469 631 1722 
Q 331 1975 331 2491 
Q 331 3047 712 3315 
Q 1094 3584 1881 3584 
Q 2191 3584 2531 3537 
Q 2872 3491 3272 3391 
z
" transform="scale(0.015625)"/>
      <path id="DejaVuSans-Bold-77" d="M 225 3500 
L 1313 3500 
L 1900 1088 
L 2491 3500 
L 3425 3500 
L 4013 1113 
L 4603 3500 
L 5691 3500 
L 4769 0 
L 3547 0 
L 2956 2406 
L 2369 0 
L 1147 0 
L 225 3500 
z
" transform="scale(0.015625)"/>
      <path id="DejaVuSans-Bold-67" d="M 2919 594 
Q 2688 288 2409 144 
Q 2131 0 1766 0 
Q 1125 0 706 504 
Q 288 1009 288 1791 
Q 288 2575 706 3076 
Q 1125 3578 1766 3578 
Q 2131 3578 2409 3434 
Q 2688 3291 2919 2981 
L 2919 3500 
L 4044 3500 
L 4044 353 
Q 4044 -491 3511 -936 
Q 2978 -1381 1966 -1381 
Q 1638 -1381 1331 -1331 
Q 1025 -1281 716 -1178 
L 716 -306 
Q 1009 -475 1290 -558 
Q 1572 -641 1856 -641 
Q 2406 -641 2662 -400 
Q 2919 -159 2919 353 
L 2919 594 
z
M 2181 2772 
Q 1834 2772 1640 2515 
Q 1447 2259 1447 1791 
Q 1447 1309 1634 1061 
Q 1822 813 2181 813 
Q 2531 813 2725 1069 
Q 2919 1325 2919 1791 
Q 2919 2259 2725 2515 
Q 2531 2772 2181 2772 
z
" transform="scale(0.015625)"/>
     </defs>
     <use xlink:href="#DejaVuSans-Bold-57"/>
     <use xlink:href="#DejaVuSans-Bold-68" x="110.302734"/>
     <use xlink:href="#DejaVuSans-Bold-69" x="181.494141"/>
     <use xlink:href="#DejaVuSans-Bold-63" x="215.771484"/>
     <use xlink:href="#DejaVuSans-Bold-68" x="275.048828"/>
     <use xlink:href="#DejaVuSans-Bold-20" x="346.240234"/>
     <use xlink:href="#DejaVuSans-Bold-64" x="381.054688"/>
     <use xlink:href="#DejaVuSans-Bold-61" x="452.636719"/>
     <use xlink:href="#DejaVuSans-Bold-74" x="520.117188"/>
     <use xlink:href="#DejaVuSans-Bold-61" x="567.919922"/>
     <use xlink:href="#DejaVuSans-Bold-20" x="635.400391"/>
     <use xlink:href="#DejaVuSans-Bold-66" x="670.214844"/>
     <use xlink:href="#DejaVuSans-Bold-65" x="713.720703"/>
     <use xlink:href="#DejaVuSans-Bold-65" x="781.542969"/>
     <use xlink:href="#DejaVuSans-Bold-64" x="849.365234"/>
     <use xlink:href="#DejaVuSans-Bold-73" x="920.947266"/>
     <use xlink:href="#DejaVuSans-Bold-20" x="980.46875"/>
     <use xlink:href="#DejaVuSans-Bold-77" x="1015.283203"/>
     <use xlink:href="#DejaVuSans-Bold-68" x="1107.666016"/>
     <use xlink:href="#DejaVuSans-Bold-69" x="1178.857422"/>
     <use xlink:href="#DejaVuSans-Bold-63" x="1213.134766"/>
     <use xlink:href="#DejaVuSans-Bold-68" x="1272.412109"/>
     <use xlink:href="#DejaVuSans-Bold-20" x="1343.603516"/>
     <use xlink:href="#DejaVuSans-Bold-73" x="1378.417969"/>
     <use xlink:href="#DejaVuSans-Bold-74" x="1437.939453"/>
     <use xlink:href="#DejaVuSans-Bold-61" x="1485.742188"/>
     <use xlink:href="#DejaVuSans-Bold-67" x="1553.222656"/>
     <use xlink:href="#DejaVuSans-Bold-65" x="1624.804688"/>
    </g>
   </g>
   <g id="text_2">
    <!-- the map's regions, projected onto the Model Factory's pipeline -->
    <g style="fill: #5c6773" transform="translate(20.592 37.484486) scale(0.1 -0.1)">
     <defs>
      <path id="DejaVuSans-Oblique-74" d="M 2706 3500 
L 2619 3053 
L 1472 3053 
L 1100 1153 
Q 1081 1047 1072 975 
Q 1063 903 1063 863 
Q 1063 663 1183 572 
Q 1303 481 1569 481 
L 2150 481 
L 2053 0 
L 1503 0 
Q 991 0 739 200 
Q 488 400 488 806 
Q 488 878 497 964 
Q 506 1050 525 1153 
L 897 3053 
L 409 3053 
L 500 3500 
L 978 3500 
L 1172 4494 
L 1747 4494 
L 1556 3500 
L 2706 3500 
z
" transform="scale(0.015625)"/>
      <path id="DejaVuSans-Oblique-68" d="M 3566 2113 
L 3156 0 
L 2578 0 
L 2988 2091 
Q 3016 2238 3031 2350 
Q 3047 2463 3047 2528 
Q 3047 2791 2881 2937 
Q 2716 3084 2419 3084 
Q 1956 3084 1617 2771 
Q 1278 2459 1178 1941 
L 800 0 
L 225 0 
L 1172 4863 
L 1747 4863 
L 1375 2950 
Q 1594 3244 1934 3414 
Q 2275 3584 2650 3584 
Q 3113 3584 3367 3334 
Q 3622 3084 3622 2631 
Q 3622 2519 3608 2391 
Q 3594 2263 3566 2113 
z
" transform="scale(0.015625)"/>
      <path id="DejaVuSans-Oblique-65" d="M 3078 2063 
Q 3088 2113 3092 2166 
Q 3097 2219 3097 2272 
Q 3097 2653 2873 2875 
Q 2650 3097 2266 3097 
Q 1838 3097 1509 2826 
Q 1181 2556 1013 2059 
L 3078 2063 
z
M 3578 1613 
L 903 1613 
Q 884 1494 878 1425 
Q 872 1356 872 1306 
Q 872 872 1139 634 
Q 1406 397 1894 397 
Q 2269 397 2603 481 
Q 2938 566 3225 728 
L 3116 159 
Q 2806 34 2476 -28 
Q 2147 -91 1806 -91 
Q 1078 -91 686 257 
Q 294 606 294 1247 
Q 294 1794 489 2264 
Q 684 2734 1063 3103 
Q 1306 3334 1642 3459 
Q 1978 3584 2356 3584 
Q 2950 3584 3301 3228 
Q 3653 2872 3653 2272 
Q 3653 2128 3634 1964 
Q 3616 1800 3578 1613 
z
" transform="scale(0.015625)"/>
      <path id="DejaVuSans-Oblique-20" transform="scale(0.015625)"/>
      <path id="DejaVuSans-Oblique-6d" d="M 5747 2113 
L 5338 0 
L 4763 0 
L 5166 2094 
Q 5191 2228 5203 2325 
Q 5216 2422 5216 2491 
Q 5216 2772 5059 2928 
Q 4903 3084 4622 3084 
Q 4203 3084 3875 2770 
Q 3547 2456 3450 1953 
L 3066 0 
L 2491 0 
L 2900 2094 
Q 2925 2209 2937 2307 
Q 2950 2406 2950 2484 
Q 2950 2769 2794 2926 
Q 2638 3084 2363 3084 
Q 1938 3084 1609 2770 
Q 1281 2456 1184 1953 
L 800 0 
L 225 0 
L 909 3500 
L 1484 3500 
L 1375 2956 
Q 1609 3263 1923 3423 
Q 2238 3584 2597 3584 
Q 2978 3584 3223 3384 
Q 3469 3184 3519 2828 
Q 3781 3197 4126 3390 
Q 4472 3584 4856 3584 
Q 5306 3584 5551 3325 
Q 5797 3066 5797 2591 
Q 5797 2488 5784 2364 
Q 5772 2241 5747 2113 
z
" transform="scale(0.015625)"/>
      <path id="DejaVuSans-Oblique-61" d="M 3438 1997 
L 3047 0 
L 2472 0 
L 2578 531 
Q 2325 219 2001 64 
Q 1678 -91 1281 -91 
Q 834 -91 548 182 
Q 263 456 263 884 
Q 263 1497 752 1853 
Q 1241 2209 2100 2209 
L 2900 2209 
L 2931 2363 
Q 2938 2388 2941 2417 
Q 2944 2447 2944 2509 
Q 2944 2788 2717 2942 
Q 2491 3097 2081 3097 
Q 1800 3097 1504 3025 
Q 1209 2953 897 2809 
L 997 3341 
Q 1322 3463 1633 3523 
Q 1944 3584 2234 3584 
Q 2853 3584 3176 3315 
Q 3500 3047 3500 2534 
Q 3500 2431 3484 2292 
Q 3469 2153 3438 1997 
z
M 2816 1759 
L 2241 1759 
Q 1534 1759 1195 1570 
Q 856 1381 856 984 
Q 856 709 1029 553 
Q 1203 397 1509 397 
Q 1978 397 2328 733 
Q 2678 1069 2791 1631 
L 2816 1759 
z
" transform="scale(0.015625)"/>
      <path id="DejaVuSans-Oblique-70" d="M 3175 2156 
Q 3175 2616 2975 2859 
Q 2775 3103 2400 3103 
Q 2144 3103 1911 2972 
Q 1678 2841 1497 2591 
Q 1319 2344 1212 1994 
Q 1106 1644 1106 1300 
Q 1106 863 1306 627 
Q 1506 391 1875 391 
Q 2147 391 2380 519 
Q 2613 647 2778 891 
Q 2956 1147 3065 1494 
Q 3175 1841 3175 2156 
z
M 1394 2969 
Q 1625 3272 1939 3428 
Q 2253 3584 2638 3584 
Q 3175 3584 3472 3232 
Q 3769 2881 3769 2247 
Q 3769 1728 3584 1258 
Q 3400 788 3053 416 
Q 2822 169 2531 39 
Q 2241 -91 1919 -91 
Q 1547 -91 1294 64 
Q 1041 219 916 525 
L 556 -1331 
L -19 -1331 
L 922 3500 
L 1497 3500 
L 1394 2969 
z
" transform="scale(0.015625)"/>
      <path id="DejaVuSans-Oblique-27" d="M 1147 4666 
L 1147 2931 
L 616 2931 
L 616 4666 
L 1147 4666 
z
" transform="scale(0.015625)"/>
      <path id="DejaVuSans-Oblique-73" d="M 3200 3397 
L 3091 2853 
Q 2863 2978 2609 3040 
Q 2356 3103 2088 3103 
Q 1634 3103 1373 2948 
Q 1113 2794 1113 2528 
Q 1113 2219 1719 2053 
Q 1766 2041 1788 2034 
L 1972 1978 
Q 2547 1819 2739 1644 
Q 2931 1469 2931 1166 
Q 2931 609 2489 259 
Q 2047 -91 1331 -91 
Q 1053 -91 747 -37 
Q 441 16 72 128 
L 184 722 
Q 500 559 806 475 
Q 1113 391 1394 391 
Q 1816 391 2080 572 
Q 2344 753 2344 1031 
Q 2344 1331 1650 1516 
L 1591 1531 
L 1394 1581 
Q 956 1697 753 1886 
Q 550 2075 550 2369 
Q 550 2928 970 3256 
Q 1391 3584 2113 3584 
Q 2397 3584 2667 3537 
Q 2938 3491 3200 3397 
z
" transform="scale(0.015625)"/>
      <path id="DejaVuSans-Oblique-72" d="M 2853 2969 
Q 2766 3016 2653 3041 
Q 2541 3066 2413 3066 
Q 1953 3066 1609 2717 
Q 1266 2369 1153 1784 
L 800 0 
L 225 0 
L 909 3500 
L 1484 3500 
L 1375 2956 
Q 1603 3259 1920 3421 
Q 2238 3584 2597 3584 
Q 2691 3584 2781 3573 
Q 2872 3563 2963 3538 
L 2853 2969 
z
" transform="scale(0.015625)"/>
      <path id="DejaVuSans-Oblique-67" d="M 3816 3500 
L 3219 434 
Q 3047 -456 2561 -893 
Q 2075 -1331 1253 -1331 
Q 950 -1331 690 -1286 
Q 431 -1241 206 -1147 
L 313 -588 
Q 525 -725 762 -790 
Q 1000 -856 1269 -856 
Q 1816 -856 2167 -557 
Q 2519 -259 2631 300 
L 2681 563 
Q 2441 288 2122 144 
Q 1803 0 1434 0 
Q 903 0 598 351 
Q 294 703 294 1319 
Q 294 1803 478 2267 
Q 663 2731 997 3091 
Q 1219 3328 1514 3456 
Q 1809 3584 2131 3584 
Q 2484 3584 2746 3420 
Q 3009 3256 3138 2956 
L 3238 3500 
L 3816 3500 
z
M 2950 2216 
Q 2950 2641 2750 2872 
Q 2550 3103 2181 3103 
Q 1953 3103 1747 3012 
Q 1541 2922 1394 2759 
Q 1156 2491 1023 2127 
Q 891 1763 891 1375 
Q 891 944 1092 712 
Q 1294 481 1672 481 
Q 2219 481 2584 976 
Q 2950 1472 2950 2216 
z
" transform="scale(0.015625)"/>
      <path id="DejaVuSans-Oblique-69" d="M 1172 4863 
L 1747 4863 
L 1606 4134 
L 1031 4134 
L 1172 4863 
z
M 909 3500 
L 1484 3500 
L 800 0 
L 225 0 
L 909 3500 
z
" transform="scale(0.015625)"/>
      <path id="DejaVuSans-Oblique-6f" d="M 1625 -91 
Q 1009 -91 651 289 
Q 294 669 294 1325 
Q 294 1706 417 2101 
Q 541 2497 738 2766 
Q 1047 3184 1428 3384 
Q 1809 3584 2291 3584 
Q 2888 3584 3255 3212 
Q 3622 2841 3622 2241 
Q 3622 1825 3500 1412 
Q 3378 1000 3181 728 
Q 2875 309 2494 109 
Q 2113 -91 1625 -91 
z
M 891 1344 
Q 891 869 1089 633 
Q 1288 397 1691 397 
Q 2269 397 2648 901 
Q 3028 1406 3028 2181 
Q 3028 2634 2825 2865 
Q 2622 3097 2228 3097 
Q 1903 3097 1650 2945 
Q 1397 2794 1197 2484 
Q 1050 2253 970 1956 
Q 891 1659 891 1344 
z
" transform="scale(0.015625)"/>
      <path id="DejaVuSans-Oblique-6e" d="M 3566 2113 
L 3156 0 
L 2578 0 
L 2988 2091 
Q 3016 2238 3031 2350 
Q 3047 2463 3047 2528 
Q 3047 2791 2881 2937 
Q 2716 3084 2419 3084 
Q 1956 3084 1622 2776 
Q 1288 2469 1184 1941 
L 800 0 
L 225 0 
L 903 3500 
L 1478 3500 
L 1363 2950 
Q 1603 3253 1940 3418 
Q 2278 3584 2650 3584 
Q 3113 3584 3367 3334 
Q 3622 3084 3622 2631 
Q 3622 2519 3608 2391 
Q 3594 2263 3566 2113 
z
" transform="scale(0.015625)"/>
      <path id="DejaVuSans-Oblique-2c" d="M 575 794 
L 1234 794 
L 1131 256 
L 422 -744 
L 19 -744 
L 469 256 
L 575 794 
z
" transform="scale(0.015625)"/>
      <path id="DejaVuSans-Oblique-6a" d="M 928 3500 
L 1503 3500 
L 813 -63 
L 809 -78 
Q 694 -675 544 -897 
Q 403 -1106 132 -1218 
Q -138 -1331 -506 -1331 
L -722 -1331 
L -628 -844 
L -481 -844 
Q -144 -844 -1 -703 
Q 141 -563 238 -63 
L 928 3500 
z
M 1197 4863 
L 1772 4863 
L 1631 4134 
L 1056 4134 
L 1197 4863 
z
" transform="scale(0.015625)"/>
      <path id="DejaVuSans-Oblique-63" d="M 3431 3366 
L 3316 2797 
Q 3109 2947 2876 3022 
Q 2644 3097 2394 3097 
Q 2119 3097 1870 3000 
Q 1622 2903 1453 2725 
Q 1184 2453 1037 2087 
Q 891 1722 891 1331 
Q 891 859 1127 628 
Q 1363 397 1844 397 
Q 2081 397 2348 469 
Q 2616 541 2906 684 
L 2797 116 
Q 2547 13 2283 -39 
Q 2019 -91 1741 -91 
Q 1044 -91 669 257 
Q 294 606 294 1253 
Q 294 1797 489 2255 
Q 684 2713 1069 3078 
Q 1331 3328 1684 3456 
Q 2038 3584 2456 3584 
Q 2700 3584 2940 3529 
Q 3181 3475 3431 3366 
z
" transform="scale(0.015625)"/>
      <path id="DejaVuSans-Oblique-64" d="M 2675 525 
Q 2444 222 2128 65 
Q 1813 -91 1428 -91 
Q 903 -91 598 267 
Q 294 625 294 1247 
Q 294 1766 478 2236 
Q 663 2706 1013 3078 
Q 1244 3325 1534 3454 
Q 1825 3584 2144 3584 
Q 2481 3584 2739 3421 
Q 2997 3259 3138 2956 
L 3513 4863 
L 4091 4863 
L 3144 0 
L 2566 0 
L 2675 525 
z
M 891 1350 
Q 891 897 1095 644 
Q 1300 391 1663 391 
Q 1931 391 2161 520 
Q 2391 650 2566 903 
Q 2750 1166 2856 1509 
Q 2963 1853 2963 2188 
Q 2963 2622 2758 2865 
Q 2553 3109 2194 3109 
Q 1922 3109 1687 2981 
Q 1453 2853 1288 2613 
Q 1106 2353 998 2009 
Q 891 1666 891 1350 
z
" transform="scale(0.015625)"/>
      <path id="DejaVuSans-Oblique-4d" d="M 1081 4666 
L 2028 4666 
L 2572 1522 
L 4378 4666 
L 5350 4666 
L 4441 0 
L 3828 0 
L 4622 4091 
L 2791 897 
L 2175 897 
L 1581 4103 
L 788 0 
L 172 0 
L 1081 4666 
z
" transform="scale(0.015625)"/>
      <path id="DejaVuSans-Oblique-6c" d="M 1172 4863 
L 1747 4863 
L 800 0 
L 225 0 
L 1172 4863 
z
" transform="scale(0.015625)"/>
      <path id="DejaVuSans-Oblique-46" d="M 1081 4666 
L 3756 4666 
L 3653 4134 
L 1606 4134 
L 1338 2759 
L 3188 2759 
L 3084 2228 
L 1234 2228 
L 800 0 
L 172 0 
L 1081 4666 
z
" transform="scale(0.015625)"/>
      <path id="DejaVuSans-Oblique-79" d="M 1588 -325 
Q 1188 -997 936 -1164 
Q 684 -1331 294 -1331 
L -159 -1331 
L -63 -850 
L 269 -850 
Q 509 -850 678 -719 
Q 847 -588 1056 -206 
L 1234 128 
L 459 3500 
L 1069 3500 
L 1650 819 
L 3256 3500 
L 3859 3500 
L 1588 -325 
z
" transform="scale(0.015625)"/>
     </defs>
     <use xlink:href="#DejaVuSans-Oblique-74"/>
     <use xlink:href="#DejaVuSans-Oblique-68" x="39.208984"/>
     <use xlink:href="#DejaVuSans-Oblique-65" x="102.587891"/>
     <use xlink:href="#DejaVuSans-Oblique-20" x="164.111328"/>
     <use xlink:href="#DejaVuSans-Oblique-6d" x="195.898438"/>
     <use xlink:href="#DejaVuSans-Oblique-61" x="293.310547"/>
     <use xlink:href="#DejaVuSans-Oblique-70" x="354.589844"/>
     <use xlink:href="#DejaVuSans-Oblique-27" x="418.066406"/>
     <use xlink:href="#DejaVuSans-Oblique-73" x="445.556641"/>
     <use xlink:href="#DejaVuSans-Oblique-20" x="497.65625"/>
     <use xlink:href="#DejaVuSans-Oblique-72" x="529.443359"/>
     <use xlink:href="#DejaVuSans-Oblique-65" x="570.556641"/>
     <use xlink:href="#DejaVuSans-Oblique-67" x="632.080078"/>
     <use xlink:href="#DejaVuSans-Oblique-69" x="695.556641"/>
     <use xlink:href="#DejaVuSans-Oblique-6f" x="723.339844"/>
     <use xlink:href="#DejaVuSans-Oblique-6e" x="784.521484"/>
     <use xlink:href="#DejaVuSans-Oblique-73" x="847.900391"/>
     <use xlink:href="#DejaVuSans-Oblique-2c" x="900"/>
     <use xlink:href="#DejaVuSans-Oblique-20" x="931.787109"/>
     <use xlink:href="#DejaVuSans-Oblique-70" x="963.574219"/>
     <use xlink:href="#DejaVuSans-Oblique-72" x="1027.050781"/>
     <use xlink:href="#DejaVuSans-Oblique-6f" x="1068.164062"/>
     <use xlink:href="#DejaVuSans-Oblique-6a" x="1129.345703"/>
     <use xlink:href="#DejaVuSans-Oblique-65" x="1157.128906"/>
     <use xlink:href="#DejaVuSans-Oblique-63" x="1218.652344"/>
     <use xlink:href="#DejaVuSans-Oblique-74" x="1273.632812"/>
     <use xlink:href="#DejaVuSans-Oblique-65" x="1312.841797"/>
     <use xlink:href="#DejaVuSans-Oblique-64" x="1374.365234"/>
     <use xlink:href="#DejaVuSans-Oblique-20" x="1437.841797"/>
     <use xlink:href="#DejaVuSans-Oblique-6f" x="1469.628906"/>
     <use xlink:href="#DejaVuSans-Oblique-6e" x="1530.810547"/>
     <use xlink:href="#DejaVuSans-Oblique-74" x="1594.189453"/>
     <use xlink:href="#DejaVuSans-Oblique-6f" x="1633.398438"/>
     <use xlink:href="#DejaVuSans-Oblique-20" x="1694.580078"/>
     <use xlink:href="#DejaVuSans-Oblique-74" x="1726.367188"/>
     <use xlink:href="#DejaVuSans-Oblique-68" x="1765.576172"/>
     <use xlink:href="#DejaVuSans-Oblique-65" x="1828.955078"/>
     <use xlink:href="#DejaVuSans-Oblique-20" x="1890.478516"/>
     <use xlink:href="#DejaVuSans-Oblique-4d" x="1922.265625"/>
     <use xlink:href="#DejaVuSans-Oblique-6f" x="2008.544922"/>
     <use xlink:href="#DejaVuSans-Oblique-64" x="2069.726562"/>
     <use xlink:href="#DejaVuSans-Oblique-65" x="2133.203125"/>
     <use xlink:href="#DejaVuSans-Oblique-6c" x="2194.726562"/>
     <use xlink:href="#DejaVuSans-Oblique-20" x="2222.509766"/>
     <use xlink:href="#DejaVuSans-Oblique-46" x="2254.296875"/>
     <use xlink:href="#DejaVuSans-Oblique-61" x="2311.816406"/>
     <use xlink:href="#DejaVuSans-Oblique-63" x="2373.095703"/>
     <use xlink:href="#DejaVuSans-Oblique-74" x="2428.076172"/>
     <use xlink:href="#DejaVuSans-Oblique-6f" x="2467.285156"/>
     <use xlink:href="#DejaVuSans-Oblique-72" x="2528.466797"/>
     <use xlink:href="#DejaVuSans-Oblique-79" x="2569.580078"/>
     <use xlink:href="#DejaVuSans-Oblique-27" x="2628.759766"/>
     <use xlink:href="#DejaVuSans-Oblique-73" x="2656.25"/>
     <use xlink:href="#DejaVuSans-Oblique-20" x="2708.349609"/>
     <use xlink:href="#DejaVuSans-Oblique-70" x="2740.136719"/>
     <use xlink:href="#DejaVuSans-Oblique-69" x="2803.613281"/>
     <use xlink:href="#DejaVuSans-Oblique-70" x="2831.396484"/>
     <use xlink:href="#DejaVuSans-Oblique-65" x="2894.873047"/>
     <use xlink:href="#DejaVuSans-Oblique-6c" x="2956.396484"/>
     <use xlink:href="#DejaVuSans-Oblique-69" x="2984.179688"/>
     <use xlink:href="#DejaVuSans-Oblique-6e" x="3011.962891"/>
     <use xlink:href="#DejaVuSans-Oblique-65" x="3075.341797"/>
    </g>
   </g>
   <g id="patch_9">
    <path d="M 25.2792 90.626112 
L 216.7848 90.626112 
Q 226.8288 90.626112 226.8288 85.137552 
L 226.8288 60.25608 
Q 226.8288 54.76752 216.7848 54.76752 
L 25.2792 54.76752 
Q 15.2352 54.76752 15.2352 60.25608 
L 15.2352 85.137552 
Q 15.2352 90.626112 25.2792 90.626112 
z
" clip-path="url(#p0b42dc4517)" style="fill: #f4f6f8; stroke: #3e7c8c; stroke-width: 1.4; stroke-linejoin: miter"/>
   </g>
   <g id="patch_10">
    <path d="M 266.3352 90.626112 
L 421.0128 90.626112 
Q 431.0568 90.626112 431.0568 85.137552 
L 431.0568 60.25608 
Q 431.0568 54.76752 421.0128 54.76752 
L 266.3352 54.76752 
Q 256.2912 54.76752 256.2912 60.25608 
L 256.2912 85.137552 
Q 256.2912 90.626112 266.3352 90.626112 
z
" clip-path="url(#p0b42dc4517)" style="fill: #f4f6f8; stroke: #c6752a; stroke-width: 1.4; stroke-linejoin: miter"/>
   </g>
   <g id="patch_11">
    <path d="M 25.2792 129.046032 
L 216.7848 129.046032 
Q 226.8288 129.046032 226.8288 123.557472 
L 226.8288 98.676 
Q 226.8288 93.18744 216.7848 93.18744 
L 25.2792 93.18744 
Q 15.2352 93.18744 15.2352 98.676 
L 15.2352 123.557472 
Q 15.2352 129.046032 25.2792 129.046032 
z
" clip-path="url(#p0b42dc4517)" style="fill: #f4f6f8; stroke: #3e7c8c; stroke-width: 1.4; stroke-linejoin: miter"/>
   </g>
   <g id="patch_12">
    <path d="M 266.3352 129.046032 
L 421.0128 129.046032 
Q 431.0568 129.046032 431.0568 123.557472 
L 431.0568 98.676 
Q 431.0568 93.18744 421.0128 93.18744 
L 266.3352 93.18744 
Q 256.2912 93.18744 256.2912 98.676 
L 256.2912 123.557472 
Q 256.2912 129.046032 266.3352 129.046032 
z
" clip-path="url(#p0b42dc4517)" style="fill: #f4f6f8; stroke: #c6752a; stroke-width: 1.4; stroke-linejoin: miter"/>
   </g>
   <g id="patch_13">
    <path d="M 25.2792 167.465952 
L 216.7848 167.465952 
Q 226.8288 167.465952 226.8288 161.977392 
L 226.8288 137.09592 
Q 226.8288 131.60736 216.7848 131.60736 
L 25.2792 131.60736 
Q 15.2352 131.60736 15.2352 137.09592 
L 15.2352 161.977392 
Q 15.2352 167.465952 25.2792 167.465952 
z
" clip-path="url(#p0b42dc4517)" style="fill: #f4f6f8; stroke: #3e7c8c; stroke-width: 1.4; stroke-linejoin: miter"/>
   </g>
   <g id="patch_14">
    <path d="M 266.3352 167.465952 
L 421.0128 167.465952 
Q 431.0568 167.465952 431.0568 161.977392 
L 431.0568 137.09592 
Q 431.0568 131.60736 421.0128 131.60736 
L 266.3352 131.60736 
Q 256.2912 131.60736 256.2912 137.09592 
L 256.2912 161.977392 
Q 256.2912 167.465952 266.3352 167.465952 
z
" clip-path="url(#p0b42dc4517)" style="fill: #f4f6f8; stroke: #c6752a; stroke-width: 1.4; stroke-linejoin: miter"/>
   </g>
   <g id="patch_15">
    <path d="M 25.2792 205.885872 
L 216.7848 205.885872 
Q 226.8288 205.885872 226.8288 200.397312 
L 226.8288 175.51584 
Q 226.8288 170.02728 216.7848 170.02728 
L 25.2792 170.02728 
Q 15.2352 170.02728 15.2352 175.51584 
L 15.2352 200.397312 
Q 15.2352 205.885872 25.2792 205.885872 
z
" clip-path="url(#p0b42dc4517)" style="fill: #f4f6f8; stroke: #3e7c8c; stroke-width: 1.4; stroke-linejoin: miter"/>
   </g>
   <g id="patch_16">
    <path d="M 266.3352 205.885872 
L 421.0128 205.885872 
Q 431.0568 205.885872 431.0568 200.397312 
L 431.0568 175.51584 
Q 431.0568 170.02728 421.0128 170.02728 
L 266.3352 170.02728 
Q 256.2912 170.02728 256.2912 175.51584 
L 256.2912 200.397312 
Q 256.2912 205.885872 266.3352 205.885872 
z
" clip-path="url(#p0b42dc4517)" style="fill: #f4f6f8; stroke: #c6752a; stroke-width: 1.4; stroke-linejoin: miter"/>
   </g>
   <g id="patch_17">
    <path d="M 25.2792 244.305792 
L 216.7848 244.305792 
Q 226.8288 244.305792 226.8288 238.817232 
L 226.8288 213.93576 
Q 226.8288 208.4472 216.7848 208.4472 
L 25.2792 208.4472 
Q 15.2352 208.4472 15.2352 213.93576 
L 15.2352 238.817232 
Q 15.2352 244.305792 25.2792 244.305792 
z
" clip-path="url(#p0b42dc4517)" style="fill: #f4f6f8; stroke: #3e7c8c; stroke-width: 1.4; stroke-linejoin: miter"/>
   </g>
   <g id="patch_18">
    <path d="M 266.3352 244.305792 
L 421.0128 244.305792 
Q 431.0568 244.305792 431.0568 238.817232 
L 431.0568 213.93576 
Q 431.0568 208.4472 421.0128 208.4472 
L 266.3352 208.4472 
Q 256.2912 208.4472 256.2912 213.93576 
L 256.2912 238.817232 
Q 256.2912 244.305792 266.3352 244.305792 
z
" clip-path="url(#p0b42dc4517)" style="fill: #f4f6f8; stroke: #c6752a; stroke-width: 1.4; stroke-linejoin: miter"/>
   </g>
   <g id="patch_19">
    <path d="M 25.2792 282.725712 
L 216.7848 282.725712 
Q 226.8288 282.725712 226.8288 277.237152 
L 226.8288 252.35568 
Q 226.8288 246.86712 216.7848 246.86712 
L 25.2792 246.86712 
Q 15.2352 246.86712 15.2352 252.35568 
L 15.2352 277.237152 
Q 15.2352 282.725712 25.2792 282.725712 
z
" clip-path="url(#p0b42dc4517)" style="fill: #f4f6f8; stroke: #3e7c8c; stroke-width: 1.4; stroke-linejoin: miter"/>
   </g>
   <g id="patch_20">
    <path d="M 266.3352 282.725712 
L 421.0128 282.725712 
Q 431.0568 282.725712 431.0568 277.237152 
L 431.0568 252.35568 
Q 431.0568 246.86712 421.0128 246.86712 
L 266.3352 246.86712 
Q 256.2912 246.86712 256.2912 252.35568 
L 256.2912 277.237152 
Q 256.2912 282.725712 266.3352 282.725712 
z
" clip-path="url(#p0b42dc4517)" style="fill: #f4f6f8; stroke: #c6752a; stroke-width: 1.4; stroke-linejoin: miter"/>
   </g>
   <g id="patch_21">
    <path d="M 25.2792 321.145632 
L 216.7848 321.145632 
Q 226.8288 321.145632 226.8288 315.657072 
L 226.8288 290.7756 
Q 226.8288 285.28704 216.7848 285.28704 
L 25.2792 285.28704 
Q 15.2352 285.28704 15.2352 290.7756 
L 15.2352 315.657072 
Q 15.2352 321.145632 25.2792 321.145632 
z
" clip-path="url(#p0b42dc4517)" style="fill: #f4f6f8; stroke: #3e7c8c; stroke-width: 1.4; stroke-linejoin: miter"/>
   </g>
   <g id="patch_22">
    <path d="M 266.3352 321.145632 
L 421.0128 321.145632 
Q 431.0568 321.145632 431.0568 315.657072 
L 431.0568 290.7756 
Q 431.0568 285.28704 421.0128 285.28704 
L 266.3352 285.28704 
Q 256.2912 285.28704 256.2912 290.7756 
L 256.2912 315.657072 
Q 256.2912 321.145632 266.3352 321.145632 
z
" clip-path="url(#p0b42dc4517)" style="fill: #f4f6f8; stroke: #c6752a; stroke-width: 1.4; stroke-linejoin: miter"/>
   </g>
   <g id="patch_23">
    <path d="M 20.592 87.69888 
L 24.6096 87.69888 
L 24.6096 57.694752 
L 20.592 57.694752 
z
" clip-path="url(#p0b42dc4517)" style="fill: #3e7c8c; stroke: #3e7c8c; stroke-linejoin: miter"/>
   </g>
   <g id="patch_24">
    <path d="M 261.648 87.69888 
L 265.6656 87.69888 
L 265.6656 57.694752 
L 261.648 57.694752 
z
" clip-path="url(#p0b42dc4517)" style="fill: #c6752a; stroke: #c6752a; stroke-linejoin: miter"/>
   </g>
   <g id="patch_25">
    <path d="M 20.592 126.1188 
L 24.6096 126.1188 
L 24.6096 96.114672 
L 20.592 96.114672 
z
" clip-path="url(#p0b42dc4517)" style="fill: #3e7c8c; stroke: #3e7c8c; stroke-linejoin: miter"/>
   </g>
   <g id="patch_26">
    <path d="M 261.648 126.1188 
L 265.6656 126.1188 
L 265.6656 96.114672 
L 261.648 96.114672 
z
" clip-path="url(#p0b42dc4517)" style="fill: #c6752a; stroke: #c6752a; stroke-linejoin: miter"/>
   </g>
   <g id="patch_27">
    <path d="M 20.592 164.53872 
L 24.6096 164.53872 
L 24.6096 134.534592 
L 20.592 134.534592 
z
" clip-path="url(#p0b42dc4517)" style="fill: #3e7c8c; stroke: #3e7c8c; stroke-linejoin: miter"/>
   </g>
   <g id="patch_28">
    <path d="M 261.648 164.53872 
L 265.6656 164.53872 
L 265.6656 134.534592 
L 261.648 134.534592 
z
" clip-path="url(#p0b42dc4517)" style="fill: #c6752a; stroke: #c6752a; stroke-linejoin: miter"/>
   </g>
   <g id="patch_29">
    <path d="M 20.592 202.95864 
L 24.6096 202.95864 
L 24.6096 172.954512 
L 20.592 172.954512 
z
" clip-path="url(#p0b42dc4517)" style="fill: #3e7c8c; stroke: #3e7c8c; stroke-linejoin: miter"/>
   </g>
   <g id="patch_30">
    <path d="M 261.648 202.95864 
L 265.6656 202.95864 
L 265.6656 172.954512 
L 261.648 172.954512 
z
" clip-path="url(#p0b42dc4517)" style="fill: #c6752a; stroke: #c6752a; stroke-linejoin: miter"/>
   </g>
   <g id="patch_31">
    <path d="M 20.592 241.37856 
L 24.6096 241.37856 
L 24.6096 211.374432 
L 20.592 211.374432 
z
" clip-path="url(#p0b42dc4517)" style="fill: #3e7c8c; stroke: #3e7c8c; stroke-linejoin: miter"/>
   </g>
   <g id="patch_32">
    <path d="M 261.648 241.37856 
L 265.6656 241.37856 
L 265.6656 211.374432 
L 261.648 211.374432 
z
" clip-path="url(#p0b42dc4517)" style="fill: #c6752a; stroke: #c6752a; stroke-linejoin: miter"/>
   </g>
   <g id="patch_33">
    <path d="M 20.592 279.79848 
L 24.6096 279.79848 
L 24.6096 249.794352 
L 20.592 249.794352 
z
" clip-path="url(#p0b42dc4517)" style="fill: #3e7c8c; stroke: #3e7c8c; stroke-linejoin: miter"/>
   </g>
   <g id="patch_34">
    <path d="M 261.648 279.79848 
L 265.6656 279.79848 
L 265.6656 249.794352 
L 261.648 249.794352 
z
" clip-path="url(#p0b42dc4517)" style="fill: #c6752a; stroke: #c6752a; stroke-linejoin: miter"/>
   </g>
   <g id="patch_35">
    <path d="M 20.592 318.2184 
L 24.6096 318.2184 
L 24.6096 288.214272 
L 20.592 288.214272 
z
" clip-path="url(#p0b42dc4517)" style="fill: #3e7c8c; stroke: #3e7c8c; stroke-linejoin: miter"/>
   </g>
   <g id="patch_36">
    <path d="M 261.648 318.2184 
L 265.6656 318.2184 
L 265.6656 288.214272 
L 261.648 288.214272 
z
" clip-path="url(#p0b42dc4517)" style="fill: #c6752a; stroke: #c6752a; stroke-linejoin: miter"/>
   </g>
   <g id="text_3">
    <!-- web image-text - human video -->
    <g style="fill: #14181d" transform="translate(35.3232 75.68916) scale(0.11 -0.11)">
     <defs>
      <path id="DejaVuSans-Bold-62" d="M 2400 722 
Q 2759 722 2948 984 
Q 3138 1247 3138 1747 
Q 3138 2247 2948 2509 
Q 2759 2772 2400 2772 
Q 2041 2772 1848 2508 
Q 1656 2244 1656 1747 
Q 1656 1250 1848 986 
Q 2041 722 2400 722 
z
M 1656 2988 
Q 1888 3294 2169 3439 
Q 2450 3584 2816 3584 
Q 3463 3584 3878 3070 
Q 4294 2556 4294 1747 
Q 4294 938 3878 423 
Q 3463 -91 2816 -91 
Q 2450 -91 2169 54 
Q 1888 200 1656 506 
L 1656 0 
L 538 0 
L 538 4863 
L 1656 4863 
L 1656 2988 
z
" transform="scale(0.015625)"/>
      <path id="DejaVuSans-Bold-6d" d="M 3781 2919 
Q 3994 3244 4286 3414 
Q 4578 3584 4928 3584 
Q 5531 3584 5847 3212 
Q 6163 2841 6163 2131 
L 6163 0 
L 5038 0 
L 5038 1825 
Q 5041 1866 5042 1909 
Q 5044 1953 5044 2034 
Q 5044 2406 4934 2573 
Q 4825 2741 4581 2741 
Q 4263 2741 4089 2478 
Q 3916 2216 3909 1719 
L 3909 0 
L 2784 0 
L 2784 1825 
Q 2784 2406 2684 2573 
Q 2584 2741 2328 2741 
Q 2006 2741 1831 2477 
Q 1656 2213 1656 1722 
L 1656 0 
L 531 0 
L 531 3500 
L 1656 3500 
L 1656 2988 
Q 1863 3284 2130 3434 
Q 2397 3584 2719 3584 
Q 3081 3584 3359 3409 
Q 3638 3234 3781 2919 
z
" transform="scale(0.015625)"/>
      <path id="DejaVuSans-Bold-2d" d="M 347 2297 
L 2309 2297 
L 2309 1388 
L 347 1388 
L 347 2297 
z
" transform="scale(0.015625)"/>
      <path id="DejaVuSans-Bold-78" d="M 1422 1791 
L 159 3500 
L 1344 3500 
L 2059 2463 
L 2784 3500 
L 3969 3500 
L 2706 1797 
L 4031 0 
L 2847 0 
L 2059 1106 
L 1281 0 
L 97 0 
L 1422 1791 
z
" transform="scale(0.015625)"/>
      <path id="DejaVuSans-Bold-75" d="M 500 1363 
L 500 3500 
L 1625 3500 
L 1625 3150 
Q 1625 2866 1622 2436 
Q 1619 2006 1619 1863 
Q 1619 1441 1641 1255 
Q 1663 1069 1716 984 
Q 1784 875 1895 815 
Q 2006 756 2150 756 
Q 2500 756 2700 1025 
Q 2900 1294 2900 1772 
L 2900 3500 
L 4019 3500 
L 4019 0 
L 2900 0 
L 2900 506 
Q 2647 200 2364 54 
Q 2081 -91 1741 -91 
Q 1134 -91 817 281 
Q 500 653 500 1363 
z
" transform="scale(0.015625)"/>
      <path id="DejaVuSans-Bold-6e" d="M 4056 2131 
L 4056 0 
L 2931 0 
L 2931 347 
L 2931 1631 
Q 2931 2084 2911 2256 
Q 2891 2428 2841 2509 
Q 2775 2619 2662 2680 
Q 2550 2741 2406 2741 
Q 2056 2741 1856 2470 
Q 1656 2200 1656 1722 
L 1656 0 
L 538 0 
L 538 3500 
L 1656 3500 
L 1656 2988 
Q 1909 3294 2193 3439 
Q 2478 3584 2822 3584 
Q 3428 3584 3742 3212 
Q 4056 2841 4056 2131 
z
" transform="scale(0.015625)"/>
      <path id="DejaVuSans-Bold-76" d="M 97 3500 
L 1216 3500 
L 2088 1081 
L 2956 3500 
L 4078 3500 
L 2700 0 
L 1472 0 
L 97 3500 
z
" transform="scale(0.015625)"/>
      <path id="DejaVuSans-Bold-6f" d="M 2203 2784 
Q 1831 2784 1636 2517 
Q 1441 2250 1441 1747 
Q 1441 1244 1636 976 
Q 1831 709 2203 709 
Q 2569 709 2762 976 
Q 2956 1244 2956 1747 
Q 2956 2250 2762 2517 
Q 2569 2784 2203 2784 
z
M 2203 3584 
Q 3106 3584 3614 3096 
Q 4122 2609 4122 1747 
Q 4122 884 3614 396 
Q 3106 -91 2203 -91 
Q 1297 -91 786 396 
Q 275 884 275 1747 
Q 275 2609 786 3096 
Q 1297 3584 2203 3584 
z
" transform="scale(0.015625)"/>
     </defs>
     <use xlink:href="#DejaVuSans-Bold-77"/>
     <use xlink:href="#DejaVuSans-Bold-65" x="92.382812"/>
     <use xlink:href="#DejaVuSans-Bold-62" x="160.205078"/>
     <use xlink:href="#DejaVuSans-Bold-20" x="231.787109"/>
     <use xlink:href="#DejaVuSans-Bold-69" x="266.601562"/>
     <use xlink:href="#DejaVuSans-Bold-6d" x="300.878906"/>
     <use xlink:href="#DejaVuSans-Bold-61" x="405.078125"/>
     <use xlink:href="#DejaVuSans-Bold-67" x="472.558594"/>
     <use xlink:href="#DejaVuSans-Bold-65" x="544.140625"/>
     <use xlink:href="#DejaVuSans-Bold-2d" x="611.962891"/>
     <use xlink:href="#DejaVuSans-Bold-74" x="653.466797"/>
     <use xlink:href="#DejaVuSans-Bold-65" x="701.269531"/>
     <use xlink:href="#DejaVuSans-Bold-78" x="769.091797"/>
     <use xlink:href="#DejaVuSans-Bold-74" x="833.59375"/>
     <use xlink:href="#DejaVuSans-Bold-20" x="881.396484"/>
     <use xlink:href="#DejaVuSans-Bold-2d" x="916.210938"/>
     <use xlink:href="#DejaVuSans-Bold-20" x="957.714844"/>
     <use xlink:href="#DejaVuSans-Bold-68" x="992.529297"/>
     <use xlink:href="#DejaVuSans-Bold-75" x="1063.720703"/>
     <use xlink:href="#DejaVuSans-Bold-6d" x="1134.912109"/>
     <use xlink:href="#DejaVuSans-Bold-61" x="1239.111328"/>
     <use xlink:href="#DejaVuSans-Bold-6e" x="1306.591797"/>
     <use xlink:href="#DejaVuSans-Bold-20" x="1377.783203"/>
     <use xlink:href="#DejaVuSans-Bold-76" x="1412.597656"/>
     <use xlink:href="#DejaVuSans-Bold-69" x="1477.783203"/>
     <use xlink:href="#DejaVuSans-Bold-64" x="1512.060547"/>
     <use xlink:href="#DejaVuSans-Bold-65" x="1583.642578"/>
     <use xlink:href="#DejaVuSans-Bold-6f" x="1651.464844"/>
    </g>
   </g>
   <g id="text_4">
    <!-- pretrain -->
    <g style="fill: #14181d" transform="translate(276.3792 75.732128) scale(0.11 -0.11)">
     <defs>
      <path id="DejaVuSans-Bold-70" d="M 1656 506 
L 1656 -1331 
L 538 -1331 
L 538 3500 
L 1656 3500 
L 1656 2988 
Q 1888 3294 2169 3439 
Q 2450 3584 2816 3584 
Q 3463 3584 3878 3070 
Q 4294 2556 4294 1747 
Q 4294 938 3878 423 
Q 3463 -91 2816 -91 
Q 2450 -91 2169 54 
Q 1888 200 1656 506 
z
M 2400 2772 
Q 2041 2772 1848 2508 
Q 1656 2244 1656 1747 
Q 1656 1250 1848 986 
Q 2041 722 2400 722 
Q 2759 722 2948 984 
Q 3138 1247 3138 1747 
Q 3138 2247 2948 2509 
Q 2759 2772 2400 2772 
z
" transform="scale(0.015625)"/>
      <path id="DejaVuSans-Bold-72" d="M 3138 2547 
Q 2991 2616 2845 2648 
Q 2700 2681 2553 2681 
Q 2122 2681 1889 2404 
Q 1656 2128 1656 1613 
L 1656 0 
L 538 0 
L 538 3500 
L 1656 3500 
L 1656 2925 
Q 1872 3269 2151 3426 
Q 2431 3584 2822 3584 
Q 2878 3584 2943 3579 
Q 3009 3575 3134 3559 
L 3138 2547 
z
" transform="scale(0.015625)"/>
     </defs>
     <use xlink:href="#DejaVuSans-Bold-70"/>
     <use xlink:href="#DejaVuSans-Bold-72" x="71.582031"/>
     <use xlink:href="#DejaVuSans-Bold-65" x="120.898438"/>
     <use xlink:href="#DejaVuSans-Bold-74" x="188.720703"/>
     <use xlink:href="#DejaVuSans-Bold-72" x="236.523438"/>
     <use xlink:href="#DejaVuSans-Bold-61" x="285.839844"/>
     <use xlink:href="#DejaVuSans-Bold-69" x="353.320312"/>
     <use xlink:href="#DejaVuSans-Bold-6e" x="387.597656"/>
    </g>
   </g>
   <g id="text_5">
    <!-- representation, semantics, task structure -->
    <g style="fill: #5c6773" transform="translate(439.092 75.037003) scale(0.084 -0.084)">
     <defs>
      <path id="DejaVuSansMono-72" d="M 3609 2778 
Q 3425 2922 3234 2987 
Q 3044 3053 2816 3053 
Q 2278 3053 1993 2715 
Q 1709 2378 1709 1741 
L 1709 0 
L 1131 0 
L 1131 3500 
L 1709 3500 
L 1709 2816 
Q 1853 3188 2151 3386 
Q 2450 3584 2859 3584 
Q 3072 3584 3256 3531 
Q 3441 3478 3609 3366 
L 3609 2778 
z
" transform="scale(0.015625)"/>
      <path id="DejaVuSansMono-65" d="M 3475 1894 
L 3475 1613 
L 984 1613 
L 984 1594 
Q 984 1022 1282 709 
Q 1581 397 2125 397 
Q 2400 397 2700 484 
Q 3000 572 3341 750 
L 3341 178 
Q 3013 44 2708 -23 
Q 2403 -91 2119 -91 
Q 1303 -91 843 398 
Q 384 888 384 1747 
Q 384 2584 834 3084 
Q 1284 3584 2034 3584 
Q 2703 3584 3089 3131 
Q 3475 2678 3475 1894 
z
M 2900 2063 
Q 2888 2569 2661 2833 
Q 2434 3097 2009 3097 
Q 1594 3097 1325 2822 
Q 1056 2547 1006 2059 
L 2900 2063 
z
" transform="scale(0.015625)"/>
      <path id="DejaVuSansMono-70" d="M 1172 441 
L 1172 -1331 
L 594 -1331 
L 594 3500 
L 1172 3500 
L 1172 3053 
Q 1316 3313 1555 3448 
Q 1794 3584 2106 3584 
Q 2741 3584 3102 3093 
Q 3463 2603 3463 1734 
Q 3463 881 3100 395 
Q 2738 -91 2106 -91 
Q 1788 -91 1548 45 
Q 1309 181 1172 441 
z
M 2859 1747 
Q 2859 2416 2648 2756 
Q 2438 3097 2022 3097 
Q 1603 3097 1387 2755 
Q 1172 2413 1172 1747 
Q 1172 1084 1387 740 
Q 1603 397 2022 397 
Q 2438 397 2648 737 
Q 2859 1078 2859 1747 
z
" transform="scale(0.015625)"/>
      <path id="DejaVuSansMono-73" d="M 3041 3378 
L 3041 2816 
Q 2794 2959 2544 3031 
Q 2294 3103 2034 3103 
Q 1644 3103 1451 2976 
Q 1259 2850 1259 2591 
Q 1259 2356 1403 2240 
Q 1547 2125 2119 2016 
L 2350 1972 
Q 2778 1891 2998 1647 
Q 3219 1403 3219 1013 
Q 3219 494 2850 201 
Q 2481 -91 1825 -91 
Q 1566 -91 1281 -36 
Q 997 19 666 128 
L 666 722 
Q 988 556 1281 473 
Q 1575 391 1838 391 
Q 2219 391 2428 545 
Q 2638 700 2638 978 
Q 2638 1378 1872 1531 
L 1847 1538 
L 1631 1581 
Q 1134 1678 906 1908 
Q 678 2138 678 2534 
Q 678 3038 1018 3311 
Q 1359 3584 1991 3584 
Q 2272 3584 2531 3532 
Q 2791 3481 3041 3378 
z
" transform="scale(0.015625)"/>
      <path id="DejaVuSansMono-6e" d="M 3284 2169 
L 3284 0 
L 2706 0 
L 2706 2169 
Q 2706 2641 2540 2862 
Q 2375 3084 2022 3084 
Q 1619 3084 1401 2798 
Q 1184 2513 1184 1978 
L 1184 0 
L 609 0 
L 609 3500 
L 1184 3500 
L 1184 2975 
Q 1338 3275 1600 3429 
Q 1863 3584 2222 3584 
Q 2756 3584 3020 3232 
Q 3284 2881 3284 2169 
z
" transform="scale(0.015625)"/>
      <path id="DejaVuSansMono-74" d="M 1919 4494 
L 1919 3500 
L 3225 3500 
L 3225 3053 
L 1919 3053 
L 1919 1153 
Q 1919 766 2066 612 
Q 2213 459 2578 459 
L 3225 459 
L 3225 0 
L 2522 0 
Q 1875 0 1609 259 
Q 1344 519 1344 1153 
L 1344 3053 
L 409 3053 
L 409 3500 
L 1344 3500 
L 1344 4494 
L 1919 4494 
z
" transform="scale(0.015625)"/>
      <path id="DejaVuSansMono-61" d="M 2194 1759 
L 2003 1759 
Q 1500 1759 1245 1582 
Q 991 1406 991 1056 
Q 991 741 1181 566 
Q 1372 391 1709 391 
Q 2184 391 2456 720 
Q 2728 1050 2731 1631 
L 2731 1759 
L 2194 1759 
z
M 3309 1997 
L 3309 0 
L 2731 0 
L 2731 519 
Q 2547 206 2267 57 
Q 1988 -91 1588 -91 
Q 1053 -91 734 211 
Q 416 513 416 1019 
Q 416 1603 808 1906 
Q 1200 2209 1959 2209 
L 2731 2209 
L 2731 2300 
Q 2728 2719 2518 2908 
Q 2309 3097 1850 3097 
Q 1556 3097 1256 3012 
Q 956 2928 672 2766 
L 672 3341 
Q 991 3463 1283 3523 
Q 1575 3584 1850 3584 
Q 2284 3584 2592 3456 
Q 2900 3328 3091 3072 
Q 3209 2916 3259 2686 
Q 3309 2456 3309 1997 
z
" transform="scale(0.015625)"/>
      <path id="DejaVuSansMono-69" d="M 800 3500 
L 2272 3500 
L 2272 447 
L 3413 447 
L 3413 0 
L 556 0 
L 556 447 
L 1697 447 
L 1697 3053 
L 800 3053 
L 800 3500 
z
M 1697 4863 
L 2272 4863 
L 2272 4134 
L 1697 4134 
L 1697 4863 
z
" transform="scale(0.015625)"/>
      <path id="DejaVuSansMono-6f" d="M 1925 3097 
Q 1488 3097 1263 2756 
Q 1038 2416 1038 1747 
Q 1038 1081 1263 739 
Q 1488 397 1925 397 
Q 2366 397 2591 739 
Q 2816 1081 2816 1747 
Q 2816 2416 2591 2756 
Q 2366 3097 1925 3097 
z
M 1925 3584 
Q 2653 3584 3039 3112 
Q 3425 2641 3425 1747 
Q 3425 850 3040 379 
Q 2656 -91 1925 -91 
Q 1197 -91 812 379 
Q 428 850 428 1747 
Q 428 2641 812 3112 
Q 1197 3584 1925 3584 
z
" transform="scale(0.015625)"/>
      <path id="DejaVuSansMono-2c" d="M 1569 947 
L 2356 947 
L 2356 300 
L 1741 -897 
L 1259 -897 
L 1569 300 
L 1569 947 
z
" transform="scale(0.015625)"/>
      <path id="DejaVuSansMono-20" transform="scale(0.015625)"/>
      <path id="DejaVuSansMono-6d" d="M 2113 3144 
Q 2219 3369 2383 3476 
Q 2547 3584 2778 3584 
Q 3200 3584 3373 3257 
Q 3547 2931 3547 2028 
L 3547 0 
L 3022 0 
L 3022 2003 
Q 3022 2744 2939 2923 
Q 2856 3103 2638 3103 
Q 2388 3103 2295 2911 
Q 2203 2719 2203 2003 
L 2203 0 
L 1678 0 
L 1678 2003 
Q 1678 2753 1589 2928 
Q 1500 3103 1269 3103 
Q 1041 3103 952 2911 
Q 863 2719 863 2003 
L 863 0 
L 341 0 
L 341 3500 
L 863 3500 
L 863 3200 
Q 966 3388 1120 3486 
Q 1275 3584 1472 3584 
Q 1709 3584 1867 3475 
Q 2025 3366 2113 3144 
z
" transform="scale(0.015625)"/>
      <path id="DejaVuSansMono-63" d="M 3316 178 
Q 3084 44 2839 -23 
Q 2594 -91 2338 -91 
Q 1525 -91 1067 396 
Q 609 884 609 1747 
Q 609 2609 1067 3096 
Q 1525 3584 2338 3584 
Q 2591 3584 2831 3518 
Q 3072 3453 3316 3316 
L 3316 2713 
Q 3088 2916 2858 3006 
Q 2628 3097 2338 3097 
Q 1797 3097 1506 2747 
Q 1216 2397 1216 1747 
Q 1216 1100 1508 748 
Q 1800 397 2338 397 
Q 2638 397 2875 489 
Q 3113 581 3316 775 
L 3316 178 
z
" transform="scale(0.015625)"/>
      <path id="DejaVuSansMono-6b" d="M 738 4863 
L 1331 4863 
L 1331 2047 
L 2841 3500 
L 3541 3500 
L 2163 2181 
L 3756 0 
L 3053 0 
L 1759 1806 
L 1331 1403 
L 1331 0 
L 738 0 
L 738 4863 
z
" transform="scale(0.015625)"/>
      <path id="DejaVuSansMono-75" d="M 609 1325 
L 609 3494 
L 1184 3494 
L 1184 1325 
Q 1184 853 1351 631 
Q 1519 409 1869 409 
Q 2275 409 2490 695 
Q 2706 981 2706 1516 
L 2706 3494 
L 3284 3494 
L 3284 0 
L 2706 0 
L 2706 525 
Q 2553 222 2289 65 
Q 2025 -91 1672 -91 
Q 1134 -91 871 261 
Q 609 613 609 1325 
z
" transform="scale(0.015625)"/>
     </defs>
     <use xlink:href="#DejaVuSansMono-72"/>
     <use xlink:href="#DejaVuSansMono-65" x="60.205078"/>
     <use xlink:href="#DejaVuSansMono-70" x="120.410156"/>
     <use xlink:href="#DejaVuSansMono-72" x="180.615234"/>
     <use xlink:href="#DejaVuSansMono-65" x="240.820312"/>
     <use xlink:href="#DejaVuSansMono-73" x="301.025391"/>
     <use xlink:href="#DejaVuSansMono-65" x="361.230469"/>
     <use xlink:href="#DejaVuSansMono-6e" x="421.435547"/>
     <use xlink:href="#DejaVuSansMono-74" x="481.640625"/>
     <use xlink:href="#DejaVuSansMono-61" x="541.845703"/>
     <use xlink:href="#DejaVuSansMono-74" x="602.050781"/>
     <use xlink:href="#DejaVuSansMono-69" x="662.255859"/>
     <use xlink:href="#DejaVuSansMono-6f" x="722.460938"/>
     <use xlink:href="#DejaVuSansMono-6e" x="782.666016"/>
     <use xlink:href="#DejaVuSansMono-2c" x="842.871094"/>
     <use xlink:href="#DejaVuSansMono-20" x="903.076172"/>
     <use xlink:href="#DejaVuSansMono-73" x="963.28125"/>
     <use xlink:href="#DejaVuSansMono-65" x="1023.486328"/>
     <use xlink:href="#DejaVuSansMono-6d" x="1083.691406"/>
     <use xlink:href="#DejaVuSansMono-61" x="1143.896484"/>
     <use xlink:href="#DejaVuSansMono-6e" x="1204.101562"/>
     <use xlink:href="#DejaVuSansMono-74" x="1264.306641"/>
     <use xlink:href="#DejaVuSansMono-69" x="1324.511719"/>
     <use xlink:href="#DejaVuSansMono-63" x="1384.716797"/>
     <use xlink:href="#DejaVuSansMono-73" x="1444.921875"/>
     <use xlink:href="#DejaVuSansMono-2c" x="1505.126953"/>
     <use xlink:href="#DejaVuSansMono-20" x="1565.332031"/>
     <use xlink:href="#DejaVuSansMono-74" x="1625.537109"/>
     <use xlink:href="#DejaVuSansMono-61" x="1685.742188"/>
     <use xlink:href="#DejaVuSansMono-73" x="1745.947266"/>
     <use xlink:href="#DejaVuSansMono-6b" x="1806.152344"/>
     <use xlink:href="#DejaVuSansMono-20" x="1866.357422"/>
     <use xlink:href="#DejaVuSansMono-73" x="1926.5625"/>
     <use xlink:href="#DejaVuSansMono-74" x="1986.767578"/>
     <use xlink:href="#DejaVuSansMono-72" x="2046.972656"/>
     <use xlink:href="#DejaVuSansMono-75" x="2107.177734"/>
     <use xlink:href="#DejaVuSansMono-63" x="2167.382812"/>
     <use xlink:href="#DejaVuSansMono-74" x="2227.587891"/>
     <use xlink:href="#DejaVuSansMono-75" x="2287.792969"/>
     <use xlink:href="#DejaVuSansMono-72" x="2347.998047"/>
     <use xlink:href="#DejaVuSansMono-65" x="2408.203125"/>
    </g>
   </g>
   <g id="text_6">
    <!-- egocentric wearables -->
    <g style="fill: #14181d" transform="translate(35.3232 114.10908) scale(0.11 -0.11)">
     <defs>
      <path id="DejaVuSans-Bold-6c" d="M 538 4863 
L 1656 4863 
L 1656 0 
L 538 0 
L 538 4863 
z
" transform="scale(0.015625)"/>
     </defs>
     <use xlink:href="#DejaVuSans-Bold-65"/>
     <use xlink:href="#DejaVuSans-Bold-67" x="67.822266"/>
     <use xlink:href="#DejaVuSans-Bold-6f" x="139.404297"/>
     <use xlink:href="#DejaVuSans-Bold-63" x="208.105469"/>
     <use xlink:href="#DejaVuSans-Bold-65" x="267.382812"/>
     <use xlink:href="#DejaVuSans-Bold-6e" x="335.205078"/>
     <use xlink:href="#DejaVuSans-Bold-74" x="406.396484"/>
     <use xlink:href="#DejaVuSans-Bold-72" x="454.199219"/>
     <use xlink:href="#DejaVuSans-Bold-69" x="503.515625"/>
     <use xlink:href="#DejaVuSans-Bold-63" x="537.792969"/>
     <use xlink:href="#DejaVuSans-Bold-20" x="597.070312"/>
     <use xlink:href="#DejaVuSans-Bold-77" x="631.884766"/>
     <use xlink:href="#DejaVuSans-Bold-65" x="724.267578"/>
     <use xlink:href="#DejaVuSans-Bold-61" x="792.089844"/>
     <use xlink:href="#DejaVuSans-Bold-72" x="859.570312"/>
     <use xlink:href="#DejaVuSans-Bold-61" x="908.886719"/>
     <use xlink:href="#DejaVuSans-Bold-62" x="976.367188"/>
     <use xlink:href="#DejaVuSans-Bold-6c" x="1047.949219"/>
     <use xlink:href="#DejaVuSans-Bold-65" x="1082.226562"/>
     <use xlink:href="#DejaVuSans-Bold-73" x="1150.048828"/>
    </g>
   </g>
   <g id="text_7">
    <!-- pretrain -->
    <g style="fill: #14181d" transform="translate(276.3792 114.152048) scale(0.11 -0.11)">
     <use xlink:href="#DejaVuSans-Bold-70"/>
     <use xlink:href="#DejaVuSans-Bold-72" x="71.582031"/>
     <use xlink:href="#DejaVuSans-Bold-65" x="120.898438"/>
     <use xlink:href="#DejaVuSans-Bold-74" x="188.720703"/>
     <use xlink:href="#DejaVuSans-Bold-72" x="236.523438"/>
     <use xlink:href="#DejaVuSans-Bold-61" x="285.839844"/>
     <use xlink:href="#DejaVuSans-Bold-69" x="353.320312"/>
     <use xlink:href="#DejaVuSans-Bold-6e" x="387.597656"/>
    </g>
   </g>
   <g id="text_8">
    <!-- motion priors, affordances, scene breadth -->
    <g style="fill: #5c6773" transform="translate(439.092 113.456923) scale(0.084 -0.084)">
     <defs>
      <path id="DejaVuSansMono-66" d="M 3322 4863 
L 3322 4384 
L 2669 4384 
Q 2359 4384 2239 4257 
Q 2119 4131 2119 3809 
L 2119 3500 
L 3322 3500 
L 3322 3053 
L 2119 3053 
L 2119 0 
L 1544 0 
L 1544 3053 
L 609 3053 
L 609 3500 
L 1544 3500 
L 1544 3744 
Q 1544 4319 1808 4591 
Q 2072 4863 2631 4863 
L 3322 4863 
z
" transform="scale(0.015625)"/>
      <path id="DejaVuSansMono-64" d="M 2681 3053 
L 2681 4863 
L 3256 4863 
L 3256 0 
L 2681 0 
L 2681 441 
Q 2538 181 2298 45 
Q 2059 -91 1747 -91 
Q 1113 -91 748 401 
Q 384 894 384 1759 
Q 384 2613 750 3098 
Q 1116 3584 1747 3584 
Q 2063 3584 2303 3448 
Q 2544 3313 2681 3053 
z
M 991 1747 
Q 991 1078 1203 737 
Q 1416 397 1831 397 
Q 2247 397 2464 740 
Q 2681 1084 2681 1747 
Q 2681 2413 2464 2755 
Q 2247 3097 1831 3097 
Q 1416 3097 1203 2756 
Q 991 2416 991 1747 
z
" transform="scale(0.015625)"/>
      <path id="DejaVuSansMono-62" d="M 2869 1747 
Q 2869 2416 2656 2756 
Q 2444 3097 2028 3097 
Q 1609 3097 1393 2755 
Q 1178 2413 1178 1747 
Q 1178 1084 1393 740 
Q 1609 397 2028 397 
Q 2444 397 2656 737 
Q 2869 1078 2869 1747 
z
M 1178 3053 
Q 1316 3309 1558 3446 
Q 1800 3584 2119 3584 
Q 2750 3584 3112 3098 
Q 3475 2613 3475 1759 
Q 3475 894 3111 401 
Q 2747 -91 2113 -91 
Q 1800 -91 1561 45 
Q 1322 181 1178 441 
L 1178 0 
L 603 0 
L 603 4863 
L 1178 4863 
L 1178 3053 
z
" transform="scale(0.015625)"/>
      <path id="DejaVuSansMono-68" d="M 3284 2169 
L 3284 0 
L 2706 0 
L 2706 2169 
Q 2706 2641 2540 2862 
Q 2375 3084 2022 3084 
Q 1619 3084 1401 2798 
Q 1184 2513 1184 1978 
L 1184 0 
L 609 0 
L 609 4863 
L 1184 4863 
L 1184 2975 
Q 1338 3275 1600 3429 
Q 1863 3584 2222 3584 
Q 2756 3584 3020 3232 
Q 3284 2881 3284 2169 
z
" transform="scale(0.015625)"/>
     </defs>
     <use xlink:href="#DejaVuSansMono-6d"/>
     <use xlink:href="#DejaVuSansMono-6f" x="60.205078"/>
     <use xlink:href="#DejaVuSansMono-74" x="120.410156"/>
     <use xlink:href="#DejaVuSansMono-69" x="180.615234"/>
     <use xlink:href="#DejaVuSansMono-6f" x="240.820312"/>
     <use xlink:href="#DejaVuSansMono-6e" x="301.025391"/>
     <use xlink:href="#DejaVuSansMono-20" x="361.230469"/>
     <use xlink:href="#DejaVuSansMono-70" x="421.435547"/>
     <use xlink:href="#DejaVuSansMono-72" x="481.640625"/>
     <use xlink:href="#DejaVuSansMono-69" x="541.845703"/>
     <use xlink:href="#DejaVuSansMono-6f" x="602.050781"/>
     <use xlink:href="#DejaVuSansMono-72" x="662.255859"/>
     <use xlink:href="#DejaVuSansMono-73" x="722.460938"/>
     <use xlink:href="#DejaVuSansMono-2c" x="782.666016"/>
     <use xlink:href="#DejaVuSansMono-20" x="842.871094"/>
     <use xlink:href="#DejaVuSansMono-61" x="903.076172"/>
     <use xlink:href="#DejaVuSansMono-66" x="963.28125"/>
     <use xlink:href="#DejaVuSansMono-66" x="1023.486328"/>
     <use xlink:href="#DejaVuSansMono-6f" x="1083.691406"/>
     <use xlink:href="#DejaVuSansMono-72" x="1143.896484"/>
     <use xlink:href="#DejaVuSansMono-64" x="1204.101562"/>
     <use xlink:href="#DejaVuSansMono-61" x="1264.306641"/>
     <use xlink:href="#DejaVuSansMono-6e" x="1324.511719"/>
     <use xlink:href="#DejaVuSansMono-63" x="1384.716797"/>
     <use xlink:href="#DejaVuSansMono-65" x="1444.921875"/>
     <use xlink:href="#DejaVuSansMono-73" x="1505.126953"/>
     <use xlink:href="#DejaVuSansMono-2c" x="1565.332031"/>
     <use xlink:href="#DejaVuSansMono-20" x="1625.537109"/>
     <use xlink:href="#DejaVuSansMono-73" x="1685.742188"/>
     <use xlink:href="#DejaVuSansMono-63" x="1745.947266"/>
     <use xlink:href="#DejaVuSansMono-65" x="1806.152344"/>
     <use xlink:href="#DejaVuSansMono-6e" x="1866.357422"/>
     <use xlink:href="#DejaVuSansMono-65" x="1926.5625"/>
     <use xlink:href="#DejaVuSansMono-20" x="1986.767578"/>
     <use xlink:href="#DejaVuSansMono-62" x="2046.972656"/>
     <use xlink:href="#DejaVuSansMono-72" x="2107.177734"/>
     <use xlink:href="#DejaVuSansMono-65" x="2167.382812"/>
     <use xlink:href="#DejaVuSansMono-61" x="2227.587891"/>
     <use xlink:href="#DejaVuSansMono-64" x="2287.792969"/>
     <use xlink:href="#DejaVuSansMono-74" x="2347.998047"/>
     <use xlink:href="#DejaVuSansMono-68" x="2408.203125"/>
    </g>
   </g>
   <g id="text_9">
    <!-- portable handheld rigs -->
    <g style="fill: #14181d" transform="translate(35.3232 152.529) scale(0.11 -0.11)">
     <use xlink:href="#DejaVuSans-Bold-70"/>
     <use xlink:href="#DejaVuSans-Bold-6f" x="71.582031"/>
     <use xlink:href="#DejaVuSans-Bold-72" x="140.283203"/>
     <use xlink:href="#DejaVuSans-Bold-74" x="189.599609"/>
     <use xlink:href="#DejaVuSans-Bold-61" x="237.402344"/>
     <use xlink:href="#DejaVuSans-Bold-62" x="304.882812"/>
     <use xlink:href="#DejaVuSans-Bold-6c" x="376.464844"/>
     <use xlink:href="#DejaVuSans-Bold-65" x="410.742188"/>
     <use xlink:href="#DejaVuSans-Bold-20" x="478.564453"/>
     <use xlink:href="#DejaVuSans-Bold-68" x="513.378906"/>
     <use xlink:href="#DejaVuSans-Bold-61" x="584.570312"/>
     <use xlink:href="#DejaVuSans-Bold-6e" x="652.050781"/>
     <use xlink:href="#DejaVuSans-Bold-64" x="723.242188"/>
     <use xlink:href="#DejaVuSans-Bold-68" x="794.824219"/>
     <use xlink:href="#DejaVuSans-Bold-65" x="866.015625"/>
     <use xlink:href="#DejaVuSans-Bold-6c" x="933.837891"/>
     <use xlink:href="#DejaVuSans-Bold-64" x="968.115234"/>
     <use xlink:href="#DejaVuSans-Bold-20" x="1039.697266"/>
     <use xlink:href="#DejaVuSans-Bold-72" x="1074.511719"/>
     <use xlink:href="#DejaVuSans-Bold-69" x="1123.828125"/>
     <use xlink:href="#DejaVuSans-Bold-67" x="1158.105469"/>
     <use xlink:href="#DejaVuSans-Bold-73" x="1229.6875"/>
    </g>
   </g>
   <g id="text_10">
    <!-- pretrain + post-train -->
    <g style="fill: #14181d" transform="translate(276.3792 152.571968) scale(0.11 -0.11)">
     <defs>
      <path id="DejaVuSans-Bold-2b" d="M 3053 4013 
L 3053 2375 
L 4684 2375 
L 4684 1638 
L 3053 1638 
L 3053 0 
L 2309 0 
L 2309 1638 
L 678 1638 
L 678 2375 
L 2309 2375 
L 2309 4013 
L 3053 4013 
z
" transform="scale(0.015625)"/>
     </defs>
     <use xlink:href="#DejaVuSans-Bold-70"/>
     <use xlink:href="#DejaVuSans-Bold-72" x="71.582031"/>
     <use xlink:href="#DejaVuSans-Bold-65" x="120.898438"/>
     <use xlink:href="#DejaVuSans-Bold-74" x="188.720703"/>
     <use xlink:href="#DejaVuSans-Bold-72" x="236.523438"/>
     <use xlink:href="#DejaVuSans-Bold-61" x="285.839844"/>
     <use xlink:href="#DejaVuSans-Bold-69" x="353.320312"/>
     <use xlink:href="#DejaVuSans-Bold-6e" x="387.597656"/>
     <use xlink:href="#DejaVuSans-Bold-20" x="458.789062"/>
     <use xlink:href="#DejaVuSans-Bold-2b" x="493.603516"/>
     <use xlink:href="#DejaVuSans-Bold-20" x="577.392578"/>
     <use xlink:href="#DejaVuSans-Bold-70" x="612.207031"/>
     <use xlink:href="#DejaVuSans-Bold-6f" x="683.789062"/>
     <use xlink:href="#DejaVuSans-Bold-73" x="752.490234"/>
     <use xlink:href="#DejaVuSans-Bold-74" x="812.011719"/>
     <use xlink:href="#DejaVuSans-Bold-2d" x="859.814453"/>
     <use xlink:href="#DejaVuSans-Bold-74" x="901.318359"/>
     <use xlink:href="#DejaVuSans-Bold-72" x="949.121094"/>
     <use xlink:href="#DejaVuSans-Bold-61" x="998.4375"/>
     <use xlink:href="#DejaVuSans-Bold-69" x="1065.917969"/>
     <use xlink:href="#DejaVuSans-Bold-6e" x="1100.195312"/>
    </g>
   </g>
   <g id="text_11">
    <!-- manipulation priors near the action space -->
    <g style="fill: #5c6773" transform="translate(439.092 151.876843) scale(0.084 -0.084)">
     <defs>
      <path id="DejaVuSansMono-6c" d="M 1997 1269 
Q 1997 881 2139 684 
Q 2281 488 2559 488 
L 3231 488 
L 3231 0 
L 2503 0 
Q 1988 0 1705 331 
Q 1422 663 1422 1269 
L 1422 4447 
L 500 4447 
L 500 4897 
L 1997 4897 
L 1997 1269 
z
" transform="scale(0.015625)"/>
     </defs>
     <use xlink:href="#DejaVuSansMono-6d"/>
     <use xlink:href="#DejaVuSansMono-61" x="60.205078"/>
     <use xlink:href="#DejaVuSansMono-6e" x="120.410156"/>
     <use xlink:href="#DejaVuSansMono-69" x="180.615234"/>
     <use xlink:href="#DejaVuSansMono-70" x="240.820312"/>
     <use xlink:href="#DejaVuSansMono-75" x="301.025391"/>
     <use xlink:href="#DejaVuSansMono-6c" x="361.230469"/>
     <use xlink:href="#DejaVuSansMono-61" x="421.435547"/>
     <use xlink:href="#DejaVuSansMono-74" x="481.640625"/>
     <use xlink:href="#DejaVuSansMono-69" x="541.845703"/>
     <use xlink:href="#DejaVuSansMono-6f" x="602.050781"/>
     <use xlink:href="#DejaVuSansMono-6e" x="662.255859"/>
     <use xlink:href="#DejaVuSansMono-20" x="722.460938"/>
     <use xlink:href="#DejaVuSansMono-70" x="782.666016"/>
     <use xlink:href="#DejaVuSansMono-72" x="842.871094"/>
     <use xlink:href="#DejaVuSansMono-69" x="903.076172"/>
     <use xlink:href="#DejaVuSansMono-6f" x="963.28125"/>
     <use xlink:href="#DejaVuSansMono-72" x="1023.486328"/>
     <use xlink:href="#DejaVuSansMono-73" x="1083.691406"/>
     <use xlink:href="#DejaVuSansMono-20" x="1143.896484"/>
     <use xlink:href="#DejaVuSansMono-6e" x="1204.101562"/>
     <use xlink:href="#DejaVuSansMono-65" x="1264.306641"/>
     <use xlink:href="#DejaVuSansMono-61" x="1324.511719"/>
     <use xlink:href="#DejaVuSansMono-72" x="1384.716797"/>
     <use xlink:href="#DejaVuSansMono-20" x="1444.921875"/>
     <use xlink:href="#DejaVuSansMono-74" x="1505.126953"/>
     <use xlink:href="#DejaVuSansMono-68" x="1565.332031"/>
     <use xlink:href="#DejaVuSansMono-65" x="1625.537109"/>
     <use xlink:href="#DejaVuSansMono-20" x="1685.742188"/>
     <use xlink:href="#DejaVuSansMono-61" x="1745.947266"/>
     <use xlink:href="#DejaVuSansMono-63" x="1806.152344"/>
     <use xlink:href="#DejaVuSansMono-74" x="1866.357422"/>
     <use xlink:href="#DejaVuSansMono-69" x="1926.5625"/>
     <use xlink:href="#DejaVuSansMono-6f" x="1986.767578"/>
     <use xlink:href="#DejaVuSansMono-6e" x="2046.972656"/>
     <use xlink:href="#DejaVuSansMono-20" x="2107.177734"/>
     <use xlink:href="#DejaVuSansMono-73" x="2167.382812"/>
     <use xlink:href="#DejaVuSansMono-70" x="2227.587891"/>
     <use xlink:href="#DejaVuSansMono-61" x="2287.792969"/>
     <use xlink:href="#DejaVuSansMono-63" x="2347.998047"/>
     <use xlink:href="#DejaVuSansMono-65" x="2408.203125"/>
    </g>
   </g>
   <g id="text_12">
    <!-- public robot datasets -->
    <g style="fill: #14181d" transform="translate(35.3232 190.991888) scale(0.11 -0.11)">
     <use xlink:href="#DejaVuSans-Bold-70"/>
     <use xlink:href="#DejaVuSans-Bold-75" x="71.582031"/>
     <use xlink:href="#DejaVuSans-Bold-62" x="142.773438"/>
     <use xlink:href="#DejaVuSans-Bold-6c" x="214.355469"/>
     <use xlink:href="#DejaVuSans-Bold-69" x="248.632812"/>
     <use xlink:href="#DejaVuSans-Bold-63" x="282.910156"/>
     <use xlink:href="#DejaVuSans-Bold-20" x="342.1875"/>
     <use xlink:href="#DejaVuSans-Bold-72" x="377.001953"/>
     <use xlink:href="#DejaVuSans-Bold-6f" x="426.318359"/>
     <use xlink:href="#DejaVuSans-Bold-62" x="495.019531"/>
     <use xlink:href="#DejaVuSans-Bold-6f" x="566.601562"/>
     <use xlink:href="#DejaVuSans-Bold-74" x="635.302734"/>
     <use xlink:href="#DejaVuSans-Bold-20" x="683.105469"/>
     <use xlink:href="#DejaVuSans-Bold-64" x="717.919922"/>
     <use xlink:href="#DejaVuSans-Bold-61" x="789.501953"/>
     <use xlink:href="#DejaVuSans-Bold-74" x="856.982422"/>
     <use xlink:href="#DejaVuSans-Bold-61" x="904.785156"/>
     <use xlink:href="#DejaVuSans-Bold-73" x="972.265625"/>
     <use xlink:href="#DejaVuSans-Bold-65" x="1031.787109"/>
     <use xlink:href="#DejaVuSans-Bold-74" x="1099.609375"/>
     <use xlink:href="#DejaVuSans-Bold-73" x="1147.412109"/>
    </g>
   </g>
   <g id="text_13">
    <!-- pretrain -->
    <g style="fill: #14181d" transform="translate(276.3792 190.991888) scale(0.11 -0.11)">
     <use xlink:href="#DejaVuSans-Bold-70"/>
     <use xlink:href="#DejaVuSans-Bold-72" x="71.582031"/>
     <use xlink:href="#DejaVuSans-Bold-65" x="120.898438"/>
     <use xlink:href="#DejaVuSans-Bold-74" x="188.720703"/>
     <use xlink:href="#DejaVuSans-Bold-72" x="236.523438"/>
     <use xlink:href="#DejaVuSans-Bold-61" x="285.839844"/>
     <use xlink:href="#DejaVuSans-Bold-69" x="353.320312"/>
     <use xlink:href="#DejaVuSans-Bold-6e" x="387.597656"/>
    </g>
   </g>
   <g id="text_14">
    <!-- action pretraining, after normalisation -->
    <g style="fill: #5c6773" transform="translate(439.092 190.267888) scale(0.084 -0.084)">
     <defs>
      <path id="DejaVuSansMono-67" d="M 2681 1778 
Q 2681 2425 2470 2761 
Q 2259 3097 1856 3097 
Q 1434 3097 1212 2761 
Q 991 2425 991 1778 
Q 991 1131 1214 792 
Q 1438 453 1863 453 
Q 2259 453 2470 793 
Q 2681 1134 2681 1778 
z
M 3256 225 
Q 3256 -563 2884 -969 
Q 2513 -1375 1791 -1375 
Q 1553 -1375 1293 -1331 
Q 1034 -1288 775 -1203 
L 775 -634 
Q 1081 -778 1331 -847 
Q 1581 -916 1791 -916 
Q 2256 -916 2468 -662 
Q 2681 -409 2681 141 
L 2681 166 
L 2681 556 
Q 2544 263 2306 119 
Q 2069 -25 1728 -25 
Q 1116 -25 750 465 
Q 384 956 384 1778 
Q 384 2603 750 3093 
Q 1116 3584 1728 3584 
Q 2066 3584 2300 3450 
Q 2534 3316 2681 3034 
L 2681 3488 
L 3256 3488 
L 3256 225 
z
" transform="scale(0.015625)"/>
     </defs>
     <use xlink:href="#DejaVuSansMono-61"/>
     <use xlink:href="#DejaVuSansMono-63" x="60.205078"/>
     <use xlink:href="#DejaVuSansMono-74" x="120.410156"/>
     <use xlink:href="#DejaVuSansMono-69" x="180.615234"/>
     <use xlink:href="#DejaVuSansMono-6f" x="240.820312"/>
     <use xlink:href="#DejaVuSansMono-6e" x="301.025391"/>
     <use xlink:href="#DejaVuSansMono-20" x="361.230469"/>
     <use xlink:href="#DejaVuSansMono-70" x="421.435547"/>
     <use xlink:href="#DejaVuSansMono-72" x="481.640625"/>
     <use xlink:href="#DejaVuSansMono-65" x="541.845703"/>
     <use xlink:href="#DejaVuSansMono-74" x="602.050781"/>
     <use xlink:href="#DejaVuSansMono-72" x="662.255859"/>
     <use xlink:href="#DejaVuSansMono-61" x="722.460938"/>
     <use xlink:href="#DejaVuSansMono-69" x="782.666016"/>
     <use xlink:href="#DejaVuSansMono-6e" x="842.871094"/>
     <use xlink:href="#DejaVuSansMono-69" x="903.076172"/>
     <use xlink:href="#DejaVuSansMono-6e" x="963.28125"/>
     <use xlink:href="#DejaVuSansMono-67" x="1023.486328"/>
     <use xlink:href="#DejaVuSansMono-2c" x="1083.691406"/>
     <use xlink:href="#DejaVuSansMono-20" x="1143.896484"/>
     <use xlink:href="#DejaVuSansMono-61" x="1204.101562"/>
     <use xlink:href="#DejaVuSansMono-66" x="1264.306641"/>
     <use xlink:href="#DejaVuSansMono-74" x="1324.511719"/>
     <use xlink:href="#DejaVuSansMono-65" x="1384.716797"/>
     <use xlink:href="#DejaVuSansMono-72" x="1444.921875"/>
     <use xlink:href="#DejaVuSansMono-20" x="1505.126953"/>
     <use xlink:href="#DejaVuSansMono-6e" x="1565.332031"/>
     <use xlink:href="#DejaVuSansMono-6f" x="1625.537109"/>
     <use xlink:href="#DejaVuSansMono-72" x="1685.742188"/>
     <use xlink:href="#DejaVuSansMono-6d" x="1745.947266"/>
     <use xlink:href="#DejaVuSansMono-61" x="1806.152344"/>
     <use xlink:href="#DejaVuSansMono-6c" x="1866.357422"/>
     <use xlink:href="#DejaVuSansMono-69" x="1926.5625"/>
     <use xlink:href="#DejaVuSansMono-73" x="1986.767578"/>
     <use xlink:href="#DejaVuSansMono-61" x="2046.972656"/>
     <use xlink:href="#DejaVuSansMono-74" x="2107.177734"/>
     <use xlink:href="#DejaVuSansMono-69" x="2167.382812"/>
     <use xlink:href="#DejaVuSansMono-6f" x="2227.587891"/>
     <use xlink:href="#DejaVuSansMono-6e" x="2287.792969"/>
    </g>
   </g>
   <g id="text_15">
    <!-- our teleoperation -->
    <g style="fill: #14181d" transform="translate(35.3232 229.411808) scale(0.11 -0.11)">
     <use xlink:href="#DejaVuSans-Bold-6f"/>
     <use xlink:href="#DejaVuSans-Bold-75" x="68.701172"/>
     <use xlink:href="#DejaVuSans-Bold-72" x="139.892578"/>
     <use xlink:href="#DejaVuSans-Bold-20" x="189.208984"/>
     <use xlink:href="#DejaVuSans-Bold-74" x="224.023438"/>
     <use xlink:href="#DejaVuSans-Bold-65" x="271.826172"/>
     <use xlink:href="#DejaVuSans-Bold-6c" x="339.648438"/>
     <use xlink:href="#DejaVuSans-Bold-65" x="373.925781"/>
     <use xlink:href="#DejaVuSans-Bold-6f" x="441.748047"/>
     <use xlink:href="#DejaVuSans-Bold-70" x="510.449219"/>
     <use xlink:href="#DejaVuSans-Bold-65" x="582.03125"/>
     <use xlink:href="#DejaVuSans-Bold-72" x="649.853516"/>
     <use xlink:href="#DejaVuSans-Bold-61" x="699.169922"/>
     <use xlink:href="#DejaVuSans-Bold-74" x="766.650391"/>
     <use xlink:href="#DejaVuSans-Bold-69" x="814.453125"/>
     <use xlink:href="#DejaVuSans-Bold-6f" x="848.730469"/>
     <use xlink:href="#DejaVuSans-Bold-6e" x="917.431641"/>
    </g>
   </g>
   <g id="text_16">
    <!-- post-train -->
    <g style="fill: #14181d" transform="translate(276.3792 229.411808) scale(0.11 -0.11)">
     <use xlink:href="#DejaVuSans-Bold-70"/>
     <use xlink:href="#DejaVuSans-Bold-6f" x="71.582031"/>
     <use xlink:href="#DejaVuSans-Bold-73" x="140.283203"/>
     <use xlink:href="#DejaVuSans-Bold-74" x="199.804688"/>
     <use xlink:href="#DejaVuSans-Bold-2d" x="247.607422"/>
     <use xlink:href="#DejaVuSans-Bold-74" x="289.111328"/>
     <use xlink:href="#DejaVuSans-Bold-72" x="336.914062"/>
     <use xlink:href="#DejaVuSans-Bold-61" x="386.230469"/>
     <use xlink:href="#DejaVuSans-Bold-69" x="453.710938"/>
     <use xlink:href="#DejaVuSans-Bold-6e" x="487.988281"/>
    </g>
   </g>
   <g id="text_17">
    <!-- action-space grounding, high-quality demos -->
    <g style="fill: #5c6773" transform="translate(439.092 228.687808) scale(0.084 -0.084)">
     <defs>
      <path id="DejaVuSansMono-2d" d="M 1113 2009 
L 2741 2009 
L 2741 1497 
L 1113 1497 
L 1113 2009 
z
" transform="scale(0.015625)"/>
      <path id="DejaVuSansMono-71" d="M 1038 1734 
Q 1038 1066 1248 725 
Q 1459 384 1875 384 
Q 2291 384 2505 726 
Q 2719 1069 2719 1734 
Q 2719 2400 2505 2742 
Q 2291 3084 1875 3084 
Q 1459 3084 1248 2743 
Q 1038 2403 1038 1734 
z
M 2719 434 
Q 2578 175 2339 36 
Q 2100 -103 1784 -103 
Q 1156 -103 792 383 
Q 428 869 428 1722 
Q 428 2591 790 3081 
Q 1153 3572 1784 3572 
Q 2097 3572 2336 3436 
Q 2575 3300 2719 3041 
L 2719 3488 
L 3297 3488 
L 3297 -1344 
L 2719 -1344 
L 2719 434 
z
" transform="scale(0.015625)"/>
      <path id="DejaVuSansMono-79" d="M 2681 1125 
Q 2538 759 2316 163 
Q 2006 -663 1900 -844 
Q 1756 -1088 1540 -1209 
Q 1325 -1331 1038 -1331 
L 575 -1331 
L 575 -850 
L 916 -850 
Q 1169 -850 1312 -703 
Q 1456 -556 1678 56 
L 325 3500 
L 934 3500 
L 1972 763 
L 2994 3500 
L 3603 3500 
L 2681 1125 
z
" transform="scale(0.015625)"/>
     </defs>
     <use xlink:href="#DejaVuSansMono-61"/>
     <use xlink:href="#DejaVuSansMono-63" x="60.205078"/>
     <use xlink:href="#DejaVuSansMono-74" x="120.410156"/>
     <use xlink:href="#DejaVuSansMono-69" x="180.615234"/>
     <use xlink:href="#DejaVuSansMono-6f" x="240.820312"/>
     <use xlink:href="#DejaVuSansMono-6e" x="301.025391"/>
     <use xlink:href="#DejaVuSansMono-2d" x="361.230469"/>
     <use xlink:href="#DejaVuSansMono-73" x="421.435547"/>
     <use xlink:href="#DejaVuSansMono-70" x="481.640625"/>
     <use xlink:href="#DejaVuSansMono-61" x="541.845703"/>
     <use xlink:href="#DejaVuSansMono-63" x="602.050781"/>
     <use xlink:href="#DejaVuSansMono-65" x="662.255859"/>
     <use xlink:href="#DejaVuSansMono-20" x="722.460938"/>
     <use xlink:href="#DejaVuSansMono-67" x="782.666016"/>
     <use xlink:href="#DejaVuSansMono-72" x="842.871094"/>
     <use xlink:href="#DejaVuSansMono-6f" x="903.076172"/>
     <use xlink:href="#DejaVuSansMono-75" x="963.28125"/>
     <use xlink:href="#DejaVuSansMono-6e" x="1023.486328"/>
     <use xlink:href="#DejaVuSansMono-64" x="1083.691406"/>
     <use xlink:href="#DejaVuSansMono-69" x="1143.896484"/>
     <use xlink:href="#DejaVuSansMono-6e" x="1204.101562"/>
     <use xlink:href="#DejaVuSansMono-67" x="1264.306641"/>
     <use xlink:href="#DejaVuSansMono-2c" x="1324.511719"/>
     <use xlink:href="#DejaVuSansMono-20" x="1384.716797"/>
     <use xlink:href="#DejaVuSansMono-68" x="1444.921875"/>
     <use xlink:href="#DejaVuSansMono-69" x="1505.126953"/>
     <use xlink:href="#DejaVuSansMono-67" x="1565.332031"/>
     <use xlink:href="#DejaVuSansMono-68" x="1625.537109"/>
     <use xlink:href="#DejaVuSansMono-2d" x="1685.742188"/>
     <use xlink:href="#DejaVuSansMono-71" x="1745.947266"/>
     <use xlink:href="#DejaVuSansMono-75" x="1806.152344"/>
     <use xlink:href="#DejaVuSansMono-61" x="1866.357422"/>
     <use xlink:href="#DejaVuSansMono-6c" x="1926.5625"/>
     <use xlink:href="#DejaVuSansMono-69" x="1986.767578"/>
     <use xlink:href="#DejaVuSansMono-74" x="2046.972656"/>
     <use xlink:href="#DejaVuSansMono-79" x="2107.177734"/>
     <use xlink:href="#DejaVuSansMono-20" x="2167.382812"/>
     <use xlink:href="#DejaVuSansMono-64" x="2227.587891"/>
     <use xlink:href="#DejaVuSansMono-65" x="2287.792969"/>
     <use xlink:href="#DejaVuSansMono-6d" x="2347.998047"/>
     <use xlink:href="#DejaVuSansMono-6f" x="2408.203125"/>
     <use xlink:href="#DejaVuSansMono-73" x="2468.408203"/>
    </g>
   </g>
   <g id="text_18">
    <!-- our rollouts + interventions -->
    <g style="fill: #14181d" transform="translate(35.3232 267.831728) scale(0.11 -0.11)">
     <use xlink:href="#DejaVuSans-Bold-6f"/>
     <use xlink:href="#DejaVuSans-Bold-75" x="68.701172"/>
     <use xlink:href="#DejaVuSans-Bold-72" x="139.892578"/>
     <use xlink:href="#DejaVuSans-Bold-20" x="189.208984"/>
     <use xlink:href="#DejaVuSans-Bold-72" x="224.023438"/>
     <use xlink:href="#DejaVuSans-Bold-6f" x="273.339844"/>
     <use xlink:href="#DejaVuSans-Bold-6c" x="342.041016"/>
     <use xlink:href="#DejaVuSans-Bold-6c" x="376.318359"/>
     <use xlink:href="#DejaVuSans-Bold-6f" x="410.595703"/>
     <use xlink:href="#DejaVuSans-Bold-75" x="479.296875"/>
     <use xlink:href="#DejaVuSans-Bold-74" x="550.488281"/>
     <use xlink:href="#DejaVuSans-Bold-73" x="598.291016"/>
     <use xlink:href="#DejaVuSans-Bold-20" x="657.8125"/>
     <use xlink:href="#DejaVuSans-Bold-2b" x="692.626953"/>
     <use xlink:href="#DejaVuSans-Bold-20" x="776.416016"/>
     <use xlink:href="#DejaVuSans-Bold-69" x="811.230469"/>
     <use xlink:href="#DejaVuSans-Bold-6e" x="845.507812"/>
     <use xlink:href="#DejaVuSans-Bold-74" x="916.699219"/>
     <use xlink:href="#DejaVuSans-Bold-65" x="964.501953"/>
     <use xlink:href="#DejaVuSans-Bold-72" x="1032.324219"/>
     <use xlink:href="#DejaVuSans-Bold-76" x="1081.640625"/>
     <use xlink:href="#DejaVuSans-Bold-65" x="1146.826172"/>
     <use xlink:href="#DejaVuSans-Bold-6e" x="1214.648438"/>
     <use xlink:href="#DejaVuSans-Bold-74" x="1285.839844"/>
     <use xlink:href="#DejaVuSans-Bold-69" x="1333.642578"/>
     <use xlink:href="#DejaVuSans-Bold-6f" x="1367.919922"/>
     <use xlink:href="#DejaVuSans-Bold-6e" x="1436.621094"/>
     <use xlink:href="#DejaVuSans-Bold-73" x="1507.8125"/>
    </g>
   </g>
   <g id="text_19">
    <!-- experience loop -->
    <g style="fill: #14181d" transform="translate(276.3792 267.831728) scale(0.11 -0.11)">
     <use xlink:href="#DejaVuSans-Bold-65"/>
     <use xlink:href="#DejaVuSans-Bold-78" x="67.822266"/>
     <use xlink:href="#DejaVuSans-Bold-70" x="132.324219"/>
     <use xlink:href="#DejaVuSans-Bold-65" x="203.90625"/>
     <use xlink:href="#DejaVuSans-Bold-72" x="271.728516"/>
     <use xlink:href="#DejaVuSans-Bold-69" x="321.044922"/>
     <use xlink:href="#DejaVuSans-Bold-65" x="355.322266"/>
     <use xlink:href="#DejaVuSans-Bold-6e" x="423.144531"/>
     <use xlink:href="#DejaVuSans-Bold-63" x="494.335938"/>
     <use xlink:href="#DejaVuSans-Bold-65" x="553.613281"/>
     <use xlink:href="#DejaVuSans-Bold-20" x="621.435547"/>
     <use xlink:href="#DejaVuSans-Bold-6c" x="656.25"/>
     <use xlink:href="#DejaVuSans-Bold-6f" x="690.527344"/>
     <use xlink:href="#DejaVuSans-Bold-6f" x="759.228516"/>
     <use xlink:href="#DejaVuSans-Bold-70" x="827.929688"/>
    </g>
   </g>
   <g id="text_20">
    <!-- on-policy distribution, value, advantage -->
    <g style="fill: #5c6773" transform="translate(439.092 267.107729) scale(0.084 -0.084)">
     <defs>
      <path id="DejaVuSansMono-76" d="M 313 3500 
L 909 3500 
L 1925 563 
L 2944 3500 
L 3541 3500 
L 2297 0 
L 1556 0 
L 313 3500 
z
" transform="scale(0.015625)"/>
     </defs>
     <use xlink:href="#DejaVuSansMono-6f"/>
     <use xlink:href="#DejaVuSansMono-6e" x="60.205078"/>
     <use xlink:href="#DejaVuSansMono-2d" x="120.410156"/>
     <use xlink:href="#DejaVuSansMono-70" x="180.615234"/>
     <use xlink:href="#DejaVuSansMono-6f" x="240.820312"/>
     <use xlink:href="#DejaVuSansMono-6c" x="301.025391"/>
     <use xlink:href="#DejaVuSansMono-69" x="361.230469"/>
     <use xlink:href="#DejaVuSansMono-63" x="421.435547"/>
     <use xlink:href="#DejaVuSansMono-79" x="481.640625"/>
     <use xlink:href="#DejaVuSansMono-20" x="541.845703"/>
     <use xlink:href="#DejaVuSansMono-64" x="602.050781"/>
     <use xlink:href="#DejaVuSansMono-69" x="662.255859"/>
     <use xlink:href="#DejaVuSansMono-73" x="722.460938"/>
     <use xlink:href="#DejaVuSansMono-74" x="782.666016"/>
     <use xlink:href="#DejaVuSansMono-72" x="842.871094"/>
     <use xlink:href="#DejaVuSansMono-69" x="903.076172"/>
     <use xlink:href="#DejaVuSansMono-62" x="963.28125"/>
     <use xlink:href="#DejaVuSansMono-75" x="1023.486328"/>
     <use xlink:href="#DejaVuSansMono-74" x="1083.691406"/>
     <use xlink:href="#DejaVuSansMono-69" x="1143.896484"/>
     <use xlink:href="#DejaVuSansMono-6f" x="1204.101562"/>
     <use xlink:href="#DejaVuSansMono-6e" x="1264.306641"/>
     <use xlink:href="#DejaVuSansMono-2c" x="1324.511719"/>
     <use xlink:href="#DejaVuSansMono-20" x="1384.716797"/>
     <use xlink:href="#DejaVuSansMono-76" x="1444.921875"/>
     <use xlink:href="#DejaVuSansMono-61" x="1505.126953"/>
     <use xlink:href="#DejaVuSansMono-6c" x="1565.332031"/>
     <use xlink:href="#DejaVuSansMono-75" x="1625.537109"/>
     <use xlink:href="#DejaVuSansMono-65" x="1685.742188"/>
     <use xlink:href="#DejaVuSansMono-2c" x="1745.947266"/>
     <use xlink:href="#DejaVuSansMono-20" x="1806.152344"/>
     <use xlink:href="#DejaVuSansMono-61" x="1866.357422"/>
     <use xlink:href="#DejaVuSansMono-64" x="1926.5625"/>
     <use xlink:href="#DejaVuSansMono-76" x="1986.767578"/>
     <use xlink:href="#DejaVuSansMono-61" x="2046.972656"/>
     <use xlink:href="#DejaVuSansMono-6e" x="2107.177734"/>
     <use xlink:href="#DejaVuSansMono-74" x="2167.382812"/>
     <use xlink:href="#DejaVuSansMono-61" x="2227.587891"/>
     <use xlink:href="#DejaVuSansMono-67" x="2287.792969"/>
     <use xlink:href="#DejaVuSansMono-65" x="2347.998047"/>
    </g>
   </g>
   <g id="text_21">
    <!-- reconstructed scenes -->
    <g style="fill: #14181d" transform="translate(35.3232 306.251648) scale(0.11 -0.11)">
     <use xlink:href="#DejaVuSans-Bold-72"/>
     <use xlink:href="#DejaVuSans-Bold-65" x="49.316406"/>
     <use xlink:href="#DejaVuSans-Bold-63" x="117.138672"/>
     <use xlink:href="#DejaVuSans-Bold-6f" x="176.416016"/>
     <use xlink:href="#DejaVuSans-Bold-6e" x="245.117188"/>
     <use xlink:href="#DejaVuSans-Bold-73" x="316.308594"/>
     <use xlink:href="#DejaVuSans-Bold-74" x="375.830078"/>
     <use xlink:href="#DejaVuSans-Bold-72" x="423.632812"/>
     <use xlink:href="#DejaVuSans-Bold-75" x="472.949219"/>
     <use xlink:href="#DejaVuSans-Bold-63" x="544.140625"/>
     <use xlink:href="#DejaVuSans-Bold-74" x="603.417969"/>
     <use xlink:href="#DejaVuSans-Bold-65" x="651.220703"/>
     <use xlink:href="#DejaVuSans-Bold-64" x="719.042969"/>
     <use xlink:href="#DejaVuSans-Bold-20" x="790.625"/>
     <use xlink:href="#DejaVuSans-Bold-73" x="825.439453"/>
     <use xlink:href="#DejaVuSans-Bold-63" x="884.960938"/>
     <use xlink:href="#DejaVuSans-Bold-65" x="944.238281"/>
     <use xlink:href="#DejaVuSans-Bold-6e" x="1012.060547"/>
     <use xlink:href="#DejaVuSans-Bold-65" x="1083.251953"/>
     <use xlink:href="#DejaVuSans-Bold-73" x="1151.074219"/>
    </g>
   </g>
   <g id="text_22">
    <!-- evaluation -->
    <g style="fill: #14181d" transform="translate(276.3792 306.251648) scale(0.11 -0.11)">
     <use xlink:href="#DejaVuSans-Bold-65"/>
     <use xlink:href="#DejaVuSans-Bold-76" x="67.822266"/>
     <use xlink:href="#DejaVuSans-Bold-61" x="133.007812"/>
     <use xlink:href="#DejaVuSans-Bold-6c" x="200.488281"/>
     <use xlink:href="#DejaVuSans-Bold-75" x="234.765625"/>
     <use xlink:href="#DejaVuSans-Bold-61" x="305.957031"/>
     <use xlink:href="#DejaVuSans-Bold-74" x="373.4375"/>
     <use xlink:href="#DejaVuSans-Bold-69" x="421.240234"/>
     <use xlink:href="#DejaVuSans-Bold-6f" x="455.517578"/>
     <use xlink:href="#DejaVuSans-Bold-6e" x="524.21875"/>
    </g>
   </g>
   <g id="text_23">
    <!-- screening, failure search, cheap iteration -->
    <g style="fill: #5c6773" transform="translate(439.092 305.527648) scale(0.084 -0.084)">
     <use xlink:href="#DejaVuSansMono-73"/>
     <use xlink:href="#DejaVuSansMono-63" x="60.205078"/>
     <use xlink:href="#DejaVuSansMono-72" x="120.410156"/>
     <use xlink:href="#DejaVuSansMono-65" x="180.615234"/>
     <use xlink:href="#DejaVuSansMono-65" x="240.820312"/>
     <use xlink:href="#DejaVuSansMono-6e" x="301.025391"/>
     <use xlink:href="#DejaVuSansMono-69" x="361.230469"/>
     <use xlink:href="#DejaVuSansMono-6e" x="421.435547"/>
     <use xlink:href="#DejaVuSansMono-67" x="481.640625"/>
     <use xlink:href="#DejaVuSansMono-2c" x="541.845703"/>
     <use xlink:href="#DejaVuSansMono-20" x="602.050781"/>
     <use xlink:href="#DejaVuSansMono-66" x="662.255859"/>
     <use xlink:href="#DejaVuSansMono-61" x="722.460938"/>
     <use xlink:href="#DejaVuSansMono-69" x="782.666016"/>
     <use xlink:href="#DejaVuSansMono-6c" x="842.871094"/>
     <use xlink:href="#DejaVuSansMono-75" x="903.076172"/>
     <use xlink:href="#DejaVuSansMono-72" x="963.28125"/>
     <use xlink:href="#DejaVuSansMono-65" x="1023.486328"/>
     <use xlink:href="#DejaVuSansMono-20" x="1083.691406"/>
     <use xlink:href="#DejaVuSansMono-73" x="1143.896484"/>
     <use xlink:href="#DejaVuSansMono-65" x="1204.101562"/>
     <use xlink:href="#DejaVuSansMono-61" x="1264.306641"/>
     <use xlink:href="#DejaVuSansMono-72" x="1324.511719"/>
     <use xlink:href="#DejaVuSansMono-63" x="1384.716797"/>
     <use xlink:href="#DejaVuSansMono-68" x="1444.921875"/>
     <use xlink:href="#DejaVuSansMono-2c" x="1505.126953"/>
     <use xlink:href="#DejaVuSansMono-20" x="1565.332031"/>
     <use xlink:href="#DejaVuSansMono-63" x="1625.537109"/>
     <use xlink:href="#DejaVuSansMono-68" x="1685.742188"/>
     <use xlink:href="#DejaVuSansMono-65" x="1745.947266"/>
     <use xlink:href="#DejaVuSansMono-61" x="1806.152344"/>
     <use xlink:href="#DejaVuSansMono-70" x="1866.357422"/>
     <use xlink:href="#DejaVuSansMono-20" x="1926.5625"/>
     <use xlink:href="#DejaVuSansMono-69" x="1986.767578"/>
     <use xlink:href="#DejaVuSansMono-74" x="2046.972656"/>
     <use xlink:href="#DejaVuSansMono-65" x="2107.177734"/>
     <use xlink:href="#DejaVuSansMono-72" x="2167.382812"/>
     <use xlink:href="#DejaVuSansMono-61" x="2227.587891"/>
     <use xlink:href="#DejaVuSansMono-74" x="2287.792969"/>
     <use xlink:href="#DejaVuSansMono-69" x="2347.998047"/>
     <use xlink:href="#DejaVuSansMono-6f" x="2408.203125"/>
     <use xlink:href="#DejaVuSansMono-6e" x="2468.408203"/>
    </g>
   </g>
   <g id="text_24">
    <!-- a corpus carrying no actions in our action space can train representation, and nothing else -->
    <g style="fill: #b3453c" transform="translate(20.592 362.608672) scale(0.084 -0.084)">
     <use xlink:href="#DejaVuSansMono-61"/>
     <use xlink:href="#DejaVuSansMono-20" x="60.205078"/>
     <use xlink:href="#DejaVuSansMono-63" x="120.410156"/>
     <use xlink:href="#DejaVuSansMono-6f" x="180.615234"/>
     <use xlink:href="#DejaVuSansMono-72" x="240.820312"/>
     <use xlink:href="#DejaVuSansMono-70" x="301.025391"/>
     <use xlink:href="#DejaVuSansMono-75" x="361.230469"/>
     <use xlink:href="#DejaVuSansMono-73" x="421.435547"/>
     <use xlink:href="#DejaVuSansMono-20" x="481.640625"/>
     <use xlink:href="#DejaVuSansMono-63" x="541.845703"/>
     <use xlink:href="#DejaVuSansMono-61" x="602.050781"/>
     <use xlink:href="#DejaVuSansMono-72" x="662.255859"/>
     <use xlink:href="#DejaVuSansMono-72" x="722.460938"/>
     <use xlink:href="#DejaVuSansMono-79" x="782.666016"/>
     <use xlink:href="#DejaVuSansMono-69" x="842.871094"/>
     <use xlink:href="#DejaVuSansMono-6e" x="903.076172"/>
     <use xlink:href="#DejaVuSansMono-67" x="963.28125"/>
     <use xlink:href="#DejaVuSansMono-20" x="1023.486328"/>
     <use xlink:href="#DejaVuSansMono-6e" x="1083.691406"/>
     <use xlink:href="#DejaVuSansMono-6f" x="1143.896484"/>
     <use xlink:href="#DejaVuSansMono-20" x="1204.101562"/>
     <use xlink:href="#DejaVuSansMono-61" x="1264.306641"/>
     <use xlink:href="#DejaVuSansMono-63" x="1324.511719"/>
     <use xlink:href="#DejaVuSansMono-74" x="1384.716797"/>
     <use xlink:href="#DejaVuSansMono-69" x="1444.921875"/>
     <use xlink:href="#DejaVuSansMono-6f" x="1505.126953"/>
     <use xlink:href="#DejaVuSansMono-6e" x="1565.332031"/>
     <use xlink:href="#DejaVuSansMono-73" x="1625.537109"/>
     <use xlink:href="#DejaVuSansMono-20" x="1685.742188"/>
     <use xlink:href="#DejaVuSansMono-69" x="1745.947266"/>
     <use xlink:href="#DejaVuSansMono-6e" x="1806.152344"/>
     <use xlink:href="#DejaVuSansMono-20" x="1866.357422"/>
     <use xlink:href="#DejaVuSansMono-6f" x="1926.5625"/>
     <use xlink:href="#DejaVuSansMono-75" x="1986.767578"/>
     <use xlink:href="#DejaVuSansMono-72" x="2046.972656"/>
     <use xlink:href="#DejaVuSansMono-20" x="2107.177734"/>
     <use xlink:href="#DejaVuSansMono-61" x="2167.382812"/>
     <use xlink:href="#DejaVuSansMono-63" x="2227.587891"/>
     <use xlink:href="#DejaVuSansMono-74" x="2287.792969"/>
     <use xlink:href="#DejaVuSansMono-69" x="2347.998047"/>
     <use xlink:href="#DejaVuSansMono-6f" x="2408.203125"/>
     <use xlink:href="#DejaVuSansMono-6e" x="2468.408203"/>
     <use xlink:href="#DejaVuSansMono-20" x="2528.613281"/>
     <use xlink:href="#DejaVuSansMono-73" x="2588.818359"/>
     <use xlink:href="#DejaVuSansMono-70" x="2649.023438"/>
     <use xlink:href="#DejaVuSansMono-61" x="2709.228516"/>
     <use xlink:href="#DejaVuSansMono-63" x="2769.433594"/>
     <use xlink:href="#DejaVuSansMono-65" x="2829.638672"/>
     <use xlink:href="#DejaVuSansMono-20" x="2889.84375"/>
     <use xlink:href="#DejaVuSansMono-63" x="2950.048828"/>
     <use xlink:href="#DejaVuSansMono-61" x="3010.253906"/>
     <use xlink:href="#DejaVuSansMono-6e" x="3070.458984"/>
     <use xlink:href="#DejaVuSansMono-20" x="3130.664062"/>
     <use xlink:href="#DejaVuSansMono-74" x="3190.869141"/>
     <use xlink:href="#DejaVuSansMono-72" x="3251.074219"/>
     <use xlink:href="#DejaVuSansMono-61" x="3311.279297"/>
     <use xlink:href="#DejaVuSansMono-69" x="3371.484375"/>
     <use xlink:href="#DejaVuSansMono-6e" x="3431.689453"/>
     <use xlink:href="#DejaVuSansMono-20" x="3491.894531"/>
     <use xlink:href="#DejaVuSansMono-72" x="3552.099609"/>
     <use xlink:href="#DejaVuSansMono-65" x="3612.304688"/>
     <use xlink:href="#DejaVuSansMono-70" x="3672.509766"/>
     <use xlink:href="#DejaVuSansMono-72" x="3732.714844"/>
     <use xlink:href="#DejaVuSansMono-65" x="3792.919922"/>
     <use xlink:href="#DejaVuSansMono-73" x="3853.125"/>
     <use xlink:href="#DejaVuSansMono-65" x="3913.330078"/>
     <use xlink:href="#DejaVuSansMono-6e" x="3973.535156"/>
     <use xlink:href="#DejaVuSansMono-74" x="4033.740234"/>
     <use xlink:href="#DejaVuSansMono-61" x="4093.945312"/>
     <use xlink:href="#DejaVuSansMono-74" x="4154.150391"/>
     <use xlink:href="#DejaVuSansMono-69" x="4214.355469"/>
     <use xlink:href="#DejaVuSansMono-6f" x="4274.560547"/>
     <use xlink:href="#DejaVuSansMono-6e" x="4334.765625"/>
     <use xlink:href="#DejaVuSansMono-2c" x="4394.970703"/>
     <use xlink:href="#DejaVuSansMono-20" x="4455.175781"/>
     <use xlink:href="#DejaVuSansMono-61" x="4515.380859"/>
     <use xlink:href="#DejaVuSansMono-6e" x="4575.585938"/>
     <use xlink:href="#DejaVuSansMono-64" x="4635.791016"/>
     <use xlink:href="#DejaVuSansMono-20" x="4695.996094"/>
     <use xlink:href="#DejaVuSansMono-6e" x="4756.201172"/>
     <use xlink:href="#DejaVuSansMono-6f" x="4816.40625"/>
     <use xlink:href="#DejaVuSansMono-74" x="4876.611328"/>
     <use xlink:href="#DejaVuSansMono-68" x="4936.816406"/>
     <use xlink:href="#DejaVuSansMono-69" x="4997.021484"/>
     <use xlink:href="#DejaVuSansMono-6e" x="5057.226562"/>
     <use xlink:href="#DejaVuSansMono-67" x="5117.431641"/>
     <use xlink:href="#DejaVuSansMono-20" x="5177.636719"/>
     <use xlink:href="#DejaVuSansMono-65" x="5237.841797"/>
     <use xlink:href="#DejaVuSansMono-6c" x="5298.046875"/>
     <use xlink:href="#DejaVuSansMono-73" x="5358.251953"/>
     <use xlink:href="#DejaVuSansMono-65" x="5418.457031"/>
    </g>
   </g>
  </g>
 </g>
 <defs>
  <clipPath id="p0b42dc4517">
   <rect x="7.2" y="7.2" width="669.6" height="365.904"/>
  </clipPath>
 </defs>
</svg>
